Playfair_1200pt SemiExpanded Light.ufo
<glyph name="numbersign" format="2">
  <advance width="763"/>
  <unicode hex="0023"/>
  <outline>
    <contour>
      <point x="420" y="12" type="line"/>
      <point x="510" y="37" type="line"/>
      <point x="634" y="677" type="line"/>
      <point x="544" y="652" type="line"/>
    </contour>
    <contour>
      <point x="57" y="42" type="line"/>
      <point x="640" y="204" type="line"/>
      <point x="640" y="205" type="line"/>
      <point x="57" y="43" type="line"/>
    </contour>
    <contour>
      <point x="133" y="-68" type="line"/>
      <point x="223" y="-43" type="line"/>
      <point x="347" y="598" type="line"/>
      <point x="257" y="572" type="line"/>
    </contour>
    <contour>
      <point x="123" y="381" type="line"/>
      <point x="705" y="543" type="line"/>
      <point x="706" y="544" type="line"/>
      <point x="123" y="382" type="line"/>
    </contour>
  </outline>
</glyph>
<glyph name="percent" format="2">
  <advance width="870"/>
  <unicode hex="0025"/>
  <outline>
    <contour>
      <point x="167" y="-14" type="line"/>
      <point x="708" y="528" type="line"/>
      <point x="707" y="529" type="line"/>
      <point x="166" y="-13" type="line"/>
    </contour>
    <contour>
      <point x="638" y="-14" type="curve" smooth="yes"/>
      <point x="728" y="-14"/>
      <point x="790" y="38"/>
      <point x="790" y="115" type="curve" smooth="yes"/>
      <point x="790" y="189"/>
      <point x="732" y="237"/>
      <point x="644" y="237" type="curve" smooth="yes"/>
      <point x="554" y="237"/>
      <point x="492" y="185"/>
      <point x="492" y="108" type="curve" smooth="yes"/>
      <point x="492" y="34"/>
      <point x="550" y="-14"/>
    </contour>
    <contour>
      <point x="643" y="-13" type="curve" smooth="yes"/>
      <point x="591" y="-13"/>
      <point x="562" y="32"/>
      <point x="562" y="113" type="curve" smooth="yes"/>
      <point x="562" y="193"/>
      <point x="589" y="236"/>
      <point x="639" y="236" type="curve" smooth="yes"/>
      <point x="691" y="236"/>
      <point x="720" y="191"/>
      <point x="720" y="112" type="curve" smooth="yes"/>
      <point x="720" y="30"/>
      <point x="693" y="-13"/>
    </contour>
    <contour>
      <point x="226" y="278" type="curve" smooth="yes"/>
      <point x="316" y="278"/>
      <point x="378" y="330"/>
      <point x="378" y="406" type="curve" smooth="yes"/>
      <point x="378" y="480"/>
      <point x="320" y="529"/>
      <point x="232" y="529" type="curve" smooth="yes"/>
      <point x="142" y="529"/>
      <point x="80" y="477"/>
      <point x="80" y="400" type="curve" smooth="yes"/>
      <point x="80" y="326"/>
      <point x="138" y="278"/>
    </contour>
    <contour>
      <point x="231" y="279" type="curve" smooth="yes"/>
      <point x="179" y="279"/>
      <point x="150" y="324"/>
      <point x="150" y="406" type="curve" smooth="yes"/>
      <point x="150" y="485"/>
      <point x="177" y="528"/>
      <point x="227" y="528" type="curve" smooth="yes"/>
      <point x="279" y="528"/>
      <point x="308" y="484"/>
      <point x="308" y="404" type="curve" smooth="yes"/>
      <point x="308" y="322"/>
      <point x="281" y="279"/>
    </contour>
    <contour>
      <point x="502" y="470" type="curve" smooth="yes"/>
      <point x="579" y="470"/>
      <point x="654" y="491"/>
      <point x="708" y="528" type="curve"/>
      <point x="707" y="529" type="line"/>
      <point x="654" y="493"/>
      <point x="577" y="471"/>
      <point x="502" y="471" type="curve" smooth="yes"/>
      <point x="441" y="471"/>
      <point x="367" y="486"/>
      <point x="319" y="508" type="curve"/>
      <point x="318" y="507" type="line"/>
      <point x="368" y="484"/>
      <point x="439" y="470"/>
    </contour>
  </outline>
</glyph>
<glyph name="ampersand" format="2">
  <advance width="1322"/>
  <unicode hex="0026"/>
  <outline>
    <contour>
      <point x="420" y="-14" type="curve" smooth="yes"/>
      <point x="645" y="-14"/>
      <point x="808" y="107"/>
      <point x="904" y="348" type="curve"/>
      <point x="903" y="348" type="line"/>
      <point x="814" y="125"/>
      <point x="664" y="14"/>
      <point x="463" y="14" type="curve" smooth="yes"/>
      <point x="268" y="14"/>
      <point x="152" y="114"/>
      <point x="152" y="281" type="curve" smooth="yes"/>
      <point x="152" y="415"/>
      <point x="219" y="526"/>
      <point x="301" y="526" type="curve" smooth="yes"/>
      <point x="343" y="526"/>
      <point x="367" y="494"/>
      <point x="367" y="435" type="curve" smooth="yes"/>
      <point x="367" y="345"/>
      <point x="339" y="292"/>
      <point x="242" y="249" type="curve"/>
      <point x="242" y="248" type="line"/>
      <point x="520" y="353"/>
      <point x="722" y="514"/>
      <point x="722" y="631" type="curve" smooth="yes"/>
      <point x="722" y="679"/>
      <point x="692" y="712"/>
      <point x="648" y="712" type="curve" smooth="yes"/>
      <point x="618" y="712"/>
      <point x="598" y="695"/>
      <point x="598" y="671" type="curve" smooth="yes"/>
      <point x="598" y="627"/>
      <point x="663" y="600"/>
      <point x="663" y="540" type="curve" smooth="yes"/>
      <point x="663" y="477"/>
      <point x="487" y="343"/>
      <point x="257" y="255" type="curve"/>
      <point x="257" y="254" type="line"/>
      <point x="387" y="326"/>
      <point x="444" y="384"/>
      <point x="444" y="439" type="curve" smooth="yes"/>
      <point x="444" y="494"/>
      <point x="394" y="528"/>
      <point x="314" y="528" type="curve" smooth="yes"/>
      <point x="169" y="528"/>
      <point x="60" y="416"/>
      <point x="60" y="265" type="curve" smooth="yes"/>
      <point x="60" y="96"/>
      <point x="202" y="-14"/>
    </contour>
    <contour>
      <point x="633" y="163" type="curve" smooth="yes"/>
      <point x="663" y="163"/>
      <point x="686" y="182"/>
      <point x="686" y="207" type="curve" smooth="yes"/>
      <point x="686" y="257"/>
      <point x="598" y="284"/>
      <point x="598" y="321" type="curve" smooth="yes"/>
      <point x="598" y="339"/>
      <point x="655" y="348"/>
      <point x="766" y="348" type="curve" smooth="yes"/>
      <point x="942" y="348"/>
      <point x="987" y="304"/>
      <point x="1096" y="304" type="curve" smooth="yes"/>
      <point x="1204" y="304"/>
      <point x="1272" y="347"/>
      <point x="1272" y="413" type="curve" smooth="yes"/>
      <point x="1272" y="447"/>
      <point x="1253" y="466"/>
      <point x="1224" y="466" type="curve" smooth="yes"/>
      <point x="1135" y="466"/>
      <point x="1197" y="305"/>
      <point x="1092" y="305" type="curve" smooth="yes"/>
      <point x="1015" y="305"/>
      <point x="924" y="406"/>
      <point x="787" y="406" type="curve" smooth="yes"/>
      <point x="661" y="406"/>
      <point x="570" y="337"/>
      <point x="570" y="242" type="curve" smooth="yes"/>
      <point x="570" y="193"/>
      <point x="594" y="163"/>
    </contour>
  </outline>
</glyph>
<glyph name="quotesingle" format="2">
  <advance width="266"/>
  <unicode hex="0027"/>
  <outline>
    <contour>
      <point x="133" y="468" type="curve"/>
      <point x="134" y="468" type="line"/>
      <point x="155" y="556"/>
      <point x="187" y="619"/>
      <point x="187" y="666" type="curve" smooth="yes"/>
      <point x="187" y="705"/>
      <point x="167" y="730"/>
      <point x="133" y="730" type="curve" smooth="yes"/>
      <point x="100" y="730"/>
      <point x="79" y="704"/>
      <point x="79" y="664" type="curve" smooth="yes"/>
      <point x="79" y="619"/>
      <point x="110" y="556"/>
    </contour>
  </outline>
</glyph>
<glyph name="parenleft" format="2">
  <advance width="525"/>
  <unicode hex="0028"/>
  <outline>
    <contour>
      <point x="493" y="-191" type="curve"/>
      <point x="494" y="-190" type="line"/>
      <point x="341" y="-82"/>
      <point x="239" y="84"/>
      <point x="239" y="301" type="curve" smooth="yes"/>
      <point x="239" y="515"/>
      <point x="339" y="675"/>
      <point x="494" y="781" type="curve"/>
      <point x="493" y="782" type="line"/>
      <point x="272" y="671"/>
      <point x="156" y="505"/>
      <point x="156" y="303" type="curve" smooth="yes"/>
      <point x="156" y="89"/>
      <point x="279" y="-91"/>
    </contour>
  </outline>
</glyph>
<glyph name="asterisk" format="2">
  <advance width="514"/>
  <unicode hex="002A"/>
  <outline>
    <contour>
      <point x="440" y="623" type="curve" smooth="yes"/>
      <point x="431" y="639"/>
      <point x="409" y="649"/>
      <point x="374" y="629" type="curve" smooth="yes"/>
      <point x="342" y="610"/>
      <point x="309" y="570"/>
      <point x="256" y="520" type="curve"/>
      <point x="257" y="517" type="line"/>
      <point x="331" y="539"/>
      <point x="378" y="546"/>
      <point x="411" y="565" type="curve" smooth="yes"/>
      <point x="446" y="585"/>
      <point x="449" y="608"/>
    </contour>
    <contour>
      <point x="439" y="412" type="curve" smooth="yes"/>
      <point x="449" y="428"/>
      <point x="446" y="452"/>
      <point x="412" y="472" type="curve" smooth="yes"/>
      <point x="379" y="490"/>
      <point x="328" y="499"/>
      <point x="258" y="520" type="curve"/>
      <point x="256" y="517" type="line"/>
      <point x="312" y="464"/>
      <point x="342" y="427"/>
      <point x="375" y="408" type="curve" smooth="yes"/>
      <point x="410" y="388"/>
      <point x="431" y="397"/>
    </contour>
    <contour>
      <point x="256" y="307" type="curve" smooth="yes"/>
      <point x="275" y="307"/>
      <point x="294" y="321"/>
      <point x="295" y="361" type="curve" smooth="yes"/>
      <point x="294" y="398"/>
      <point x="276" y="447"/>
      <point x="259" y="518" type="curve"/>
      <point x="256" y="518" type="line"/>
      <point x="238" y="443"/>
      <point x="221" y="399"/>
      <point x="221" y="361" type="curve" smooth="yes"/>
      <point x="221" y="320"/>
      <point x="239" y="307"/>
    </contour>
    <contour>
      <point x="74" y="413" type="curve" smooth="yes"/>
      <point x="83" y="397"/>
      <point x="105" y="387"/>
      <point x="140" y="407" type="curve" smooth="yes"/>
      <point x="172" y="426"/>
      <point x="205" y="466"/>
      <point x="258" y="516" type="curve"/>
      <point x="256" y="519" type="line"/>
      <point x="183" y="497"/>
      <point x="136" y="490"/>
      <point x="103" y="471" type="curve" smooth="yes"/>
      <point x="68" y="450"/>
      <point x="65" y="428"/>
    </contour>
    <contour>
      <point x="75" y="624" type="curve" smooth="yes"/>
      <point x="65" y="608"/>
      <point x="68" y="584"/>
      <point x="102" y="564" type="curve" smooth="yes"/>
      <point x="135" y="546"/>
      <point x="186" y="537"/>
      <point x="256" y="516" type="curve"/>
      <point x="257" y="519" type="line"/>
      <point x="202" y="572"/>
      <point x="172" y="609"/>
      <point x="139" y="628" type="curve" smooth="yes"/>
      <point x="104" y="648"/>
      <point x="83" y="639"/>
    </contour>
    <contour>
      <point x="257" y="729" type="curve" smooth="yes"/>
      <point x="239" y="729"/>
      <point x="220" y="715"/>
      <point x="220" y="675" type="curve" smooth="yes"/>
      <point x="220" y="637"/>
      <point x="238" y="589"/>
      <point x="255" y="518" type="curve"/>
      <point x="258" y="518" type="line"/>
      <point x="276" y="593"/>
      <point x="293" y="637"/>
      <point x="293" y="675" type="curve" smooth="yes"/>
      <point x="293" y="715"/>
      <point x="275" y="729"/>
    </contour>
  </outline>
</glyph>
<glyph name="plus" format="2">
  <advance width="677"/>
  <unicode hex="002B"/>
  <outline>
    <contour>
      <point x="338" y="16" type="line"/>
      <point x="339" y="16" type="line"/>
      <point x="339" y="265" type="line"/>
      <point x="589" y="265" type="line"/>
      <point x="589" y="266" type="line"/>
      <point x="339" y="266" type="line"/>
      <point x="339" y="517" type="line"/>
      <point x="338" y="517" type="line"/>
      <point x="338" y="266" type="line"/>
      <point x="88" y="266" type="line"/>
      <point x="88" y="265" type="line"/>
      <point x="338" y="265" type="line"/>
    </contour>
  </outline>
</glyph>
<glyph name="comma" format="2">
  <advance width="315"/>
  <unicode hex="002C"/>
  <outline>
    <contour>
      <point x="108" y="-121" type="line"/>
      <point x="188" y="-101"/>
      <point x="229" y="-55"/>
      <point x="229" y="12" type="curve" smooth="yes"/>
      <point x="229" y="68"/>
      <point x="198" y="106"/>
      <point x="153" y="106" type="curve" smooth="yes"/>
      <point x="114" y="106"/>
      <point x="84" y="82"/>
      <point x="84" y="50" type="curve" smooth="yes"/>
      <point x="84" y="20"/>
      <point x="103" y="-2"/>
      <point x="143" y="-2" type="curve" smooth="yes"/>
      <point x="167" y="-2"/>
      <point x="182" y="10"/>
      <point x="200" y="10" type="curve" smooth="yes"/>
      <point x="214" y="10"/>
      <point x="220" y="3"/>
      <point x="220" y="-14" type="curve" smooth="yes"/>
      <point x="220" y="-54"/>
      <point x="188" y="-99"/>
      <point x="108" y="-120" type="curve"/>
    </contour>
  </outline>
</glyph>
<glyph name="hyphen" format="2">
  <advance width="603"/>
  <unicode hex="002D"/>
  <outline>
    <contour>
      <point x="85" y="269" type="line"/>
      <point x="518" y="269" type="line"/>
      <point x="518" y="289" type="line"/>
      <point x="85" y="289" type="line"/>
    </contour>
  </outline>
</glyph>
<glyph name="period" format="2">
  <advance width="298"/>
  <unicode hex="002E"/>
  <anchor x="0" y="0" name="^entry"/>
  <anchor x="429" y="0" name="^exit"/>
  <anchor x="149" y="0" name="_Ldot"/>
  <anchor x="149" y="92" name="_ascender"/>
  <anchor x="149" y="0" name="_baseline"/>
  <anchor x="149" y="0" name="_center"/>
  <anchor x="149" y="0" name="center"/>
  <outline>
    <contour>
      <point x="149" y="-14" type="curve" smooth="yes"/>
      <point x="188" y="-14"/>
      <point x="214" y="10"/>
      <point x="214" y="46" type="curve" smooth="yes"/>
      <point x="214" y="82"/>
      <point x="188" y="106"/>
      <point x="149" y="106" type="curve" smooth="yes"/>
      <point x="110" y="106"/>
      <point x="84" y="82"/>
      <point x="84" y="46" type="curve" smooth="yes"/>
      <point x="84" y="10"/>
      <point x="110" y="-14"/>
    </contour>
  </outline>
</glyph>
<glyph name="slash" format="2">
  <advance width="416"/>
  <unicode hex="002F"/>
  <anchor x="102" y="708" name="ascender"/>
  <anchor x="315" y="0" name="baseline"/>
  <outline>
    <contour>
      <point x="41" y="-14" type="line"/>
      <point x="42" y="-14" type="line"/>
      <point x="375" y="722" type="line"/>
      <point x="374" y="722" type="line"/>
    </contour>
  </outline>
</glyph>
<glyph name="zero" format="2">
  <advance width="738"/>
  <unicode hex="0030"/>
  <anchor x="369" y="260" name="center"/>
  <outline>
    <contour>
      <point x="362" y="-14" type="curve" smooth="yes"/>
      <point x="534" y="-14"/>
      <point x="656" y="102"/>
      <point x="656" y="265" type="curve" smooth="yes"/>
      <point x="656" y="422"/>
      <point x="542" y="529"/>
      <point x="376" y="529" type="curve" smooth="yes"/>
      <point x="204" y="529"/>
      <point x="82" y="413"/>
      <point x="82" y="251" type="curve" smooth="yes"/>
      <point x="82" y="94"/>
      <point x="197" y="-14"/>
    </contour>
    <contour>
      <point x="367" y="-13" type="curve" smooth="yes"/>
      <point x="251" y="-13"/>
      <point x="179" y="88"/>
      <point x="179" y="254" type="curve" smooth="yes"/>
      <point x="179" y="423"/>
      <point x="253" y="528"/>
      <point x="371" y="528" type="curve" smooth="yes"/>
      <point x="488" y="528"/>
      <point x="559" y="427"/>
      <point x="559" y="261" type="curve" smooth="yes"/>
      <point x="559" y="91"/>
      <point x="486" y="-13"/>
    </contour>
  </outline>
</glyph>
<glyph name="one" format="2">
  <advance width="440"/>
  <unicode hex="0031"/>
  <outline>
    <contour>
      <point x="63" y="0" type="line"/>
      <point x="99" y="1"/>
      <point x="170" y="4"/>
      <point x="242" y="4" type="curve" smooth="yes"/>
      <point x="307" y="4"/>
      <point x="375" y="1"/>
      <point x="407" y="0" type="curve"/>
      <point x="407" y="1" type="line"/>
      <point x="309" y="5"/>
      <point x="284" y="26"/>
      <point x="284" y="83" type="curve" smooth="yes"/>
      <point x="284" y="536" type="line"/>
      <point x="226" y="500"/>
      <point x="158" y="487"/>
      <point x="49" y="485" type="curve"/>
      <point x="49" y="484" type="line"/>
      <point x="175" y="484"/>
      <point x="194" y="462"/>
      <point x="194" y="375" type="curve" smooth="yes"/>
      <point x="194" y="83" type="line" smooth="yes"/>
      <point x="194" y="18"/>
      <point x="145" y="5"/>
      <point x="63" y="1" type="curve"/>
    </contour>
  </outline>
</glyph>
<glyph name="two" format="2">
  <advance width="569"/>
  <unicode hex="0032"/>
  <outline>
    <contour>
      <point x="516" y="-5" type="curve"/>
      <point x="513" y="25"/>
      <point x="511" y="69"/>
      <point x="512" y="126" type="curve"/>
      <point x="511" y="126" type="line"/>
      <point x="504" y="85"/>
      <point x="485" y="77"/>
      <point x="415" y="77" type="curve" smooth="yes"/>
      <point x="157" y="77" type="line"/>
      <point x="157" y="78" type="line"/>
      <point x="254" y="166"/>
      <point x="454" y="272"/>
      <point x="454" y="403" type="curve" smooth="yes"/>
      <point x="454" y="481"/>
      <point x="385" y="529"/>
      <point x="280" y="529" type="curve" smooth="yes"/>
      <point x="160" y="529"/>
      <point x="56" y="468"/>
      <point x="56" y="389" type="curve" smooth="yes"/>
      <point x="56" y="350"/>
      <point x="82" y="322"/>
      <point x="119" y="322" type="curve" smooth="yes"/>
      <point x="148" y="322"/>
      <point x="167" y="339"/>
      <point x="167" y="365" type="curve" smooth="yes"/>
      <point x="167" y="408"/>
      <point x="119" y="435"/>
      <point x="119" y="467" type="curve" smooth="yes"/>
      <point x="119" y="493"/>
      <point x="158" y="512"/>
      <point x="215" y="512" type="curve" smooth="yes"/>
      <point x="306" y="512"/>
      <point x="356" y="465"/>
      <point x="356" y="377" type="curve" smooth="yes"/>
      <point x="356" y="217"/>
      <point x="155" y="84"/>
      <point x="62" y="1" type="curve"/>
      <point x="62" y="0" type="line"/>
      <point x="414" y="0" type="line" smooth="yes"/>
      <point x="460" y="0"/>
      <point x="505" y="-1"/>
    </contour>
  </outline>
</glyph>
<glyph name="three" format="2">
  <advance width="585"/>
  <unicode hex="0033"/>
  <outline>
    <contour>
      <point x="261" y="-150" type="curve" smooth="yes"/>
      <point x="409" y="-150"/>
      <point x="520" y="-74"/>
      <point x="520" y="28" type="curve" smooth="yes"/>
      <point x="520" y="122"/>
      <point x="429" y="186"/>
      <point x="284" y="194" type="curve"/>
      <point x="407" y="224"/>
      <point x="490" y="300"/>
      <point x="490" y="383" type="curve" smooth="yes"/>
      <point x="490" y="468"/>
      <point x="404" y="529"/>
      <point x="284" y="529" type="curve" smooth="yes"/>
      <point x="161" y="529"/>
      <point x="58" y="466"/>
      <point x="58" y="391" type="curve" smooth="yes"/>
      <point x="58" y="353"/>
      <point x="84" y="325"/>
      <point x="121" y="325" type="curve" smooth="yes"/>
      <point x="150" y="325"/>
      <point x="169" y="342"/>
      <point x="169" y="368" type="curve" smooth="yes"/>
      <point x="169" y="409"/>
      <point x="121" y="436"/>
      <point x="121" y="465" type="curve" smooth="yes"/>
      <point x="121" y="494"/>
      <point x="172" y="517"/>
      <point x="235" y="517" type="curve" smooth="yes"/>
      <point x="334" y="517"/>
      <point x="393" y="458"/>
      <point x="393" y="359" type="curve" smooth="yes"/>
      <point x="393" y="281"/>
      <point x="356" y="225"/>
      <point x="284" y="195" type="curve"/>
      <point x="257" y="199"/>
      <point x="244" y="200"/>
      <point x="232" y="200" type="curve" smooth="yes"/>
      <point x="217" y="200"/>
      <point x="208" y="197"/>
      <point x="208" y="192" type="curve" smooth="yes"/>
      <point x="208" y="187"/>
      <point x="215" y="184"/>
      <point x="228" y="184" type="curve" smooth="yes"/>
      <point x="240" y="184"/>
      <point x="254" y="186"/>
      <point x="284" y="193" type="curve"/>
      <point x="365" y="187"/>
      <point x="423" y="118"/>
      <point x="423" y="26" type="curve" smooth="yes"/>
      <point x="423" y="-79"/>
      <point x="348" y="-144"/>
      <point x="228" y="-144" type="curve" smooth="yes"/>
      <point x="160" y="-144"/>
      <point x="109" y="-122"/>
      <point x="109" y="-92" type="curve" smooth="yes"/>
      <point x="109" y="-64"/>
      <point x="155" y="-43"/>
      <point x="155" y="-3" type="curve" smooth="yes"/>
      <point x="155" y="22"/>
      <point x="136" y="39"/>
      <point x="107" y="39" type="curve" smooth="yes"/>
      <point x="71" y="39"/>
      <point x="44" y="12"/>
      <point x="44" y="-26" type="curve" smooth="yes"/>
      <point x="44" y="-97"/>
      <point x="137" y="-150"/>
    </contour>
  </outline>
</glyph>
<glyph name="four" format="2">
  <advance width="598"/>
  <unicode hex="0034"/>
  <outline>
    <contour>
      <point x="14" y="34" type="line"/>
      <point x="560" y="34" type="line"/>
      <point x="560" y="111" type="line"/>
      <point x="77" y="111" type="line"/>
      <point x="73" y="105" type="line"/>
      <point x="420" y="528" type="line"/>
      <point x="419" y="529" type="line"/>
      <point x="14" y="35" type="line"/>
    </contour>
    <contour>
      <point x="343" y="-141" type="line"/>
      <point x="420" y="-141" type="line"/>
      <point x="420" y="529" type="line"/>
      <point x="419" y="529" type="line"/>
      <point x="343" y="435" type="line"/>
    </contour>
  </outline>
</glyph>
<glyph name="five" format="2">
  <advance width="568"/>
  <unicode hex="0035"/>
  <outline>
    <contour>
      <point x="257" y="-150" type="curve" smooth="yes"/>
      <point x="410" y="-150"/>
      <point x="512" y="-66"/>
      <point x="512" y="61" type="curve" smooth="yes"/>
      <point x="512" y="192"/>
      <point x="426" y="271"/>
      <point x="282" y="271" type="curve" smooth="yes"/>
      <point x="222" y="271"/>
      <point x="162" y="255"/>
      <point x="119" y="227" type="curve"/>
      <point x="159" y="442" type="line"/>
      <point x="189" y="435"/>
      <point x="242" y="427"/>
      <point x="301" y="427" type="curve" smooth="yes"/>
      <point x="404" y="427"/>
      <point x="466" y="459"/>
      <point x="487" y="530" type="curve"/>
      <point x="486" y="531" type="line"/>
      <point x="446" y="511"/>
      <point x="396" y="504"/>
      <point x="317" y="504" type="curve" smooth="yes"/>
      <point x="258" y="504"/>
      <point x="215" y="508"/>
      <point x="172" y="519" type="curve"/>
      <point x="117" y="224" type="line"/>
      <point x="119" y="226" type="line"/>
      <point x="161" y="252"/>
      <point x="199" y="261"/>
      <point x="241" y="261" type="curve" smooth="yes"/>
      <point x="352" y="261"/>
      <point x="415" y="187"/>
      <point x="415" y="59" type="curve" smooth="yes"/>
      <point x="415" y="-68"/>
      <point x="343" y="-145"/>
      <point x="226" y="-145" type="curve" smooth="yes"/>
      <point x="166" y="-145"/>
      <point x="116" y="-123"/>
      <point x="116" y="-93" type="curve" smooth="yes"/>
      <point x="116" y="-64"/>
      <point x="154" y="-37"/>
      <point x="154" y="3" type="curve" smooth="yes"/>
      <point x="154" y="29"/>
      <point x="135" y="45"/>
      <point x="105" y="45" type="curve" smooth="yes"/>
      <point x="68" y="45"/>
      <point x="44" y="20"/>
      <point x="44" y="-17" type="curve" smooth="yes"/>
      <point x="44" y="-94"/>
      <point x="134" y="-150"/>
    </contour>
    <contour>
      <point x="97" y="189" type="curve" smooth="yes"/>
      <point x="109" y="189"/>
      <point x="116" y="202"/>
      <point x="119" y="227" type="curve"/>
      <point x="118" y="227" type="line"/>
      <point x="97" y="218"/>
      <point x="86" y="208"/>
      <point x="86" y="199" type="curve" smooth="yes"/>
      <point x="86" y="193"/>
      <point x="90" y="189"/>
    </contour>
  </outline>
</glyph>
<glyph name="six" format="2">
  <advance width="657"/>
  <unicode hex="0036"/>
  <outline>
    <contour>
      <point x="334" y="-14" type="curve" smooth="yes"/>
      <point x="479" y="-14"/>
      <point x="575" y="80"/>
      <point x="575" y="224" type="curve" smooth="yes"/>
      <point x="575" y="358"/>
      <point x="491" y="448"/>
      <point x="368" y="448" type="curve" smooth="yes"/>
      <point x="265" y="448"/>
      <point x="186" y="366"/>
      <point x="168" y="289" type="curve"/>
      <point x="169" y="289" type="line"/>
      <point x="188" y="366"/>
      <point x="260" y="433"/>
      <point x="346" y="433" type="curve" smooth="yes"/>
      <point x="432" y="433"/>
      <point x="478" y="360"/>
      <point x="478" y="221" type="curve" smooth="yes"/>
      <point x="478" y="72"/>
      <point x="427" y="-13"/>
      <point x="339" y="-13" type="curve" smooth="yes"/>
      <point x="233" y="-13"/>
      <point x="179" y="105"/>
      <point x="179" y="337" type="curve" smooth="yes"/>
      <point x="179" y="588"/>
      <point x="249" y="718"/>
      <point x="384" y="718" type="curve" smooth="yes"/>
      <point x="435" y="718"/>
      <point x="475" y="698"/>
      <point x="475" y="672" type="curve" smooth="yes"/>
      <point x="475" y="643"/>
      <point x="425" y="618"/>
      <point x="425" y="575" type="curve" smooth="yes"/>
      <point x="425" y="549"/>
      <point x="444" y="532"/>
      <point x="473" y="532" type="curve" smooth="yes"/>
      <point x="510" y="532"/>
      <point x="536" y="560"/>
      <point x="536" y="601" type="curve" smooth="yes"/>
      <point x="536" y="669"/>
      <point x="462" y="722"/>
      <point x="366" y="722" type="curve" smooth="yes"/>
      <point x="197" y="722"/>
      <point x="82" y="558"/>
      <point x="82" y="316" type="curve" smooth="yes"/>
      <point x="82" y="103"/>
      <point x="172" y="-14"/>
    </contour>
  </outline>
</glyph>
<glyph name="seven" format="2">
  <advance width="519"/>
  <unicode hex="0037"/>
  <outline>
    <contour>
      <point x="258" y="-148" type="curve" smooth="yes"/>
      <point x="285" y="-148"/>
      <point x="307" y="-127"/>
      <point x="307" y="-97" type="curve" smooth="yes"/>
      <point x="307" y="-76"/>
      <point x="303" y="-50"/>
      <point x="303" y="-18" type="curve" smooth="yes"/>
      <point x="303" y="220"/>
      <point x="440" y="372"/>
      <point x="509" y="513" type="curve"/>
      <point x="509" y="514" type="line"/>
      <point x="172" y="514" type="line" smooth="yes"/>
      <point x="124" y="514"/>
      <point x="68" y="515"/>
      <point x="53" y="519" type="curve"/>
      <point x="57" y="481"/>
      <point x="58" y="436"/>
      <point x="58" y="359" type="curve"/>
      <point x="59" y="359" type="line"/>
      <point x="68" y="419"/>
      <point x="96" y="437"/>
      <point x="182" y="437" type="curve" smooth="yes"/>
      <point x="465" y="437" type="line"/>
      <point x="465" y="436" type="line"/>
      <point x="403" y="329"/>
      <point x="211" y="133"/>
      <point x="211" y="-92" type="curve" smooth="yes"/>
      <point x="211" y="-121"/>
      <point x="226" y="-148"/>
    </contour>
  </outline>
</glyph>
<glyph name="eight" format="2">
  <advance width="618"/>
  <unicode hex="0038"/>
  <outline>
    <contour>
      <point x="297" y="-14" type="curve" smooth="yes"/>
      <point x="449" y="-14"/>
      <point x="553" y="68"/>
      <point x="553" y="187" type="curve" smooth="yes"/>
      <point x="553" y="414"/>
      <point x="182" y="387"/>
      <point x="182" y="593" type="curve" smooth="yes"/>
      <point x="182" y="669"/>
      <point x="229" y="720"/>
      <point x="300" y="720" type="curve" smooth="yes"/>
      <point x="382" y="720"/>
      <point x="434" y="657"/>
      <point x="434" y="559" type="curve" smooth="yes"/>
      <point x="434" y="493"/>
      <point x="412" y="436"/>
      <point x="368" y="393" type="curve"/>
      <point x="369" y="393" type="line"/>
      <point x="468" y="455"/>
      <point x="512" y="513"/>
      <point x="512" y="577" type="curve" smooth="yes"/>
      <point x="512" y="663"/>
      <point x="431" y="722"/>
      <point x="315" y="722" type="curve" smooth="yes"/>
      <point x="188" y="722"/>
      <point x="101" y="652"/>
      <point x="101" y="551" type="curve" smooth="yes"/>
      <point x="101" y="341"/>
      <point x="473" y="347"/>
      <point x="473" y="135" type="curve" smooth="yes"/>
      <point x="473" y="38"/>
      <point x="406" y="-12"/>
      <point x="311" y="-12" type="curve" smooth="yes"/>
      <point x="213" y="-12"/>
      <point x="152" y="59"/>
      <point x="152" y="175" type="curve" smooth="yes"/>
      <point x="152" y="256"/>
      <point x="180" y="319"/>
      <point x="241" y="374" type="curve"/>
      <point x="240" y="374" type="line"/>
      <point x="125" y="316"/>
      <point x="65" y="243"/>
      <point x="65" y="160" type="curve" smooth="yes"/>
      <point x="65" y="55"/>
      <point x="158" y="-14"/>
    </contour>
  </outline>
</glyph>
<glyph name="nine" format="2">
  <advance width="657"/>
  <unicode hex="0039"/>
  <outline>
    <contour>
      <point x="289" y="-150" type="curve" smooth="yes"/>
      <point x="462" y="-150"/>
      <point x="575" y="-6"/>
      <point x="575" y="213" type="curve" smooth="yes"/>
      <point x="575" y="414"/>
      <point x="482" y="529"/>
      <point x="319" y="529" type="curve" smooth="yes"/>
      <point x="177" y="529"/>
      <point x="82" y="445"/>
      <point x="82" y="320" type="curve" smooth="yes"/>
      <point x="82" y="204"/>
      <point x="164" y="127"/>
      <point x="286" y="127" type="curve" smooth="yes"/>
      <point x="380" y="127"/>
      <point x="462" y="172"/>
      <point x="486" y="237" type="curve"/>
      <point x="485" y="237" type="line"/>
      <point x="465" y="183"/>
      <point x="396" y="142"/>
      <point x="323" y="142" type="curve" smooth="yes"/>
      <point x="230" y="142"/>
      <point x="179" y="210"/>
      <point x="179" y="332" type="curve" smooth="yes"/>
      <point x="179" y="454"/>
      <point x="231" y="528"/>
      <point x="318" y="528" type="curve" smooth="yes"/>
      <point x="423" y="528"/>
      <point x="478" y="420"/>
      <point x="478" y="211" type="curve" smooth="yes"/>
      <point x="478" y="-25"/>
      <point x="407" y="-145"/>
      <point x="268" y="-145" type="curve" smooth="yes"/>
      <point x="217" y="-145"/>
      <point x="181" y="-129"/>
      <point x="181" y="-107" type="curve" smooth="yes"/>
      <point x="181" y="-81"/>
      <point x="232" y="-55"/>
      <point x="232" y="-13" type="curve" smooth="yes"/>
      <point x="232" y="13"/>
      <point x="213" y="30"/>
      <point x="184" y="30" type="curve" smooth="yes"/>
      <point x="147" y="30"/>
      <point x="121" y="2"/>
      <point x="121" y="-37" type="curve" smooth="yes"/>
      <point x="121" y="-102"/>
      <point x="192" y="-150"/>
    </contour>
  </outline>
</glyph>
<glyph name="less" format="2">
  <advance width="630"/>
  <unicode hex="003C"/>
  <outline>
    <contour>
      <point x="523" y="39" type="line"/>
      <point x="524" y="40" type="line"/>
      <point x="39" y="266" type="line"/>
      <point x="524" y="492" type="line"/>
      <point x="523" y="493" type="line"/>
      <point x="36" y="266" type="line"/>
    </contour>
  </outline>
</glyph>
<glyph name="equal" format="2">
  <advance width="677"/>
  <unicode hex="003D"/>
  <outline>
    <contour>
      <point x="88" y="350" type="line"/>
      <point x="589" y="350" type="line"/>
      <point x="589" y="351" type="line"/>
      <point x="88" y="351" type="line"/>
    </contour>
    <contour>
      <point x="88" y="181" type="line"/>
      <point x="589" y="181" type="line"/>
      <point x="589" y="182" type="line"/>
      <point x="88" y="182" type="line"/>
    </contour>
  </outline>
</glyph>
<glyph name="at" format="2">
  <advance width="1096"/>
  <unicode hex="0040"/>
  <outline>
    <contour>
      <point x="455" y="-161" type="curve" smooth="yes"/>
      <point x="544" y="-161"/>
      <point x="620" y="-145"/>
      <point x="675" y="-122" type="curve"/>
      <point x="675" y="-121" type="line"/>
      <point x="620" y="-144"/>
      <point x="542" y="-160"/>
      <point x="455" y="-160" type="curve" smooth="yes"/>
      <point x="220" y="-160"/>
      <point x="91" y="-50"/>
      <point x="91" y="154" type="curve" smooth="yes"/>
      <point x="91" y="441"/>
      <point x="343" y="667"/>
      <point x="663" y="667" type="curve" smooth="yes"/>
      <point x="885" y="667"/>
      <point x="1017" y="563"/>
      <point x="1017" y="387" type="curve" smooth="yes"/>
      <point x="1017" y="196"/>
      <point x="863" y="33"/>
      <point x="722" y="33" type="curve" smooth="yes"/>
      <point x="676" y="33"/>
      <point x="673" y="53"/>
      <point x="687" y="104" type="curve" smooth="yes"/>
      <point x="774" y="415" type="line" smooth="yes"/>
      <point x="784" y="450"/>
      <point x="796" y="469"/>
      <point x="807" y="483" type="curve"/>
      <point x="806" y="484" type="line"/>
      <point x="779" y="452"/>
      <point x="729" y="420"/>
      <point x="685" y="404" type="curve"/>
      <point x="618" y="166" type="line" smooth="yes"/>
      <point x="586" y="53"/>
      <point x="633" y="26"/>
      <point x="697" y="26" type="curve" smooth="yes"/>
      <point x="867" y="26"/>
      <point x="1018" y="196"/>
      <point x="1018" y="387" type="curve" smooth="yes"/>
      <point x="1018" y="564"/>
      <point x="886" y="668"/>
      <point x="663" y="668" type="curve" smooth="yes"/>
      <point x="342" y="668"/>
      <point x="90" y="442"/>
      <point x="90" y="153" type="curve" smooth="yes"/>
      <point x="90" y="-50"/>
      <point x="219" y="-161"/>
    </contour>
    <contour>
      <point x="468" y="26" type="curve" smooth="yes"/>
      <point x="523" y="26"/>
      <point x="575" y="58"/>
      <point x="612" y="121" type="curve"/>
      <point x="612" y="122" type="line"/>
      <point x="588" y="83"/>
      <point x="549" y="60"/>
      <point x="505" y="60" type="curve" smooth="yes"/>
      <point x="447" y="60"/>
      <point x="415" y="109"/>
      <point x="415" y="196" type="curve" smooth="yes"/>
      <point x="415" y="344"/>
      <point x="501" y="476"/>
      <point x="598" y="476" type="curve" smooth="yes"/>
      <point x="640" y="476"/>
      <point x="678" y="434"/>
      <point x="683" y="336" type="curve"/>
      <point x="743" y="393" type="line"/>
      <point x="712" y="445"/>
      <point x="655" y="478"/>
      <point x="579" y="478" type="curve" smooth="yes"/>
      <point x="442" y="478"/>
      <point x="324" y="345"/>
      <point x="324" y="192" type="curve" smooth="yes"/>
      <point x="324" y="89"/>
      <point x="378" y="26"/>
    </contour>
  </outline>
</glyph>
<glyph name="A" format="2">
  <advance width="786"/>
  <unicode hex="0041"/>
  <anchor x="392" y="0" name="bottom"/>
  <anchor x="392" y="354" name="center"/>
  <anchor x="678" y="0" name="ogonek"/>
  <anchor x="393" y="708" name="top"/>
  <anchor x="393" y="688" name="top_low_1"/>
  <anchor x="393" y="668" name="top_low_2"/>
  <anchor x="393" y="648" name="top_low_3"/>
  <outline>
    <contour>
      <point x="141" y="160" type="curve"/>
      <point x="350" y="623" type="line"/>
      <point x="345" y="614" type="line"/>
      <point x="578" y="90" type="line"/>
      <point x="599" y="36"/>
      <point x="588" y="11"/>
      <point x="528" y="4" type="curve"/>
      <point x="502" y="1" type="line"/>
      <point x="502" y="0" type="line"/>
      <point x="542" y="1"/>
      <point x="593" y="3"/>
      <point x="665" y="3" type="curve"/>
      <point x="667" y="3" type="line"/>
      <point x="669" y="3" type="line"/>
      <point x="722" y="3"/>
      <point x="760" y="1"/>
      <point x="789" y="0" type="curve"/>
      <point x="789" y="1" type="line"/>
      <point x="767" y="3" type="line"/>
      <point x="723" y="7"/>
      <point x="707" y="24"/>
      <point x="684" y="75" type="curve"/>
      <point x="395" y="723" type="line"/>
      <point x="394" y="723" type="line"/>
      <point x="132" y="144" type="line"/>
      <point x="86" y="43"/>
      <point x="61" y="18"/>
      <point x="-10" y="3" type="curve"/>
      <point x="-19" y="1" type="line"/>
      <point x="-19" y="0" type="line"/>
      <point x="1" y="1"/>
      <point x="32" y="3"/>
      <point x="82" y="3" type="curve"/>
      <point x="154" y="3"/>
      <point x="217" y="2"/>
      <point x="251" y="0" type="curve"/>
      <point x="251" y="1" type="line"/>
      <point x="233" y="4" type="line"/>
      <point x="129" y="22"/>
      <point x="101" y="70"/>
    </contour>
    <contour>
      <point x="193" y="277" type="line"/>
      <point x="542" y="277" type="line"/>
      <point x="542" y="278" type="line"/>
      <point x="194" y="278" type="line"/>
    </contour>
  </outline>
</glyph>
<glyph name="B" format="2">
  <advance width="731"/>
  <unicode hex="0042"/>
  <anchor x="365" y="0" name="bottom"/>
  <anchor x="195" y="367" name="center"/>
  <anchor x="358" y="0" name="currency"/>
  <anchor x="365" y="708" name="top"/>
  <anchor x="365" y="688" name="top_low_1"/>
  <anchor x="365" y="668" name="top_low_2"/>
  <anchor x="365" y="648" name="top_low_3"/>
  <outline>
    <contour>
      <point x="340" y="0" type="curve"/>
      <point x="394" y="0" type="line" smooth="yes"/>
      <point x="564" y="0"/>
      <point x="673" y="77"/>
      <point x="673" y="197" type="curve" smooth="yes"/>
      <point x="673" y="304"/>
      <point x="586" y="361"/>
      <point x="411" y="368" type="curve"/>
      <point x="411" y="369" type="line"/>
      <point x="540" y="391"/>
      <point x="610" y="452"/>
      <point x="610" y="544" type="curve" smooth="yes"/>
      <point x="610" y="649"/>
      <point x="521" y="708"/>
      <point x="364" y="708" type="curve" smooth="yes"/>
      <point x="340" y="708" type="line"/>
      <point x="304" y="708"/>
      <point x="259" y="705"/>
      <point x="195" y="705" type="curve"/>
      <point x="131" y="705"/>
      <point x="86" y="707"/>
      <point x="50" y="708" type="curve"/>
      <point x="50" y="707" type="line"/>
      <point x="76" y="704" type="line"/>
      <point x="136" y="697"/>
      <point x="149" y="683"/>
      <point x="149" y="621" type="curve"/>
      <point x="149" y="87" type="line"/>
      <point x="149" y="25"/>
      <point x="136" y="11"/>
      <point x="76" y="4" type="curve"/>
      <point x="50" y="1" type="line"/>
      <point x="50" y="0" type="line"/>
      <point x="86" y="1"/>
      <point x="131" y="3"/>
      <point x="195" y="3" type="curve"/>
      <point x="259" y="3"/>
      <point x="304" y="0"/>
    </contour>
    <contour>
      <point x="332" y="2" type="curve" smooth="yes"/>
      <point x="257" y="2"/>
      <point x="242" y="16"/>
      <point x="242" y="84" type="curve" smooth="yes"/>
      <point x="242" y="704" type="line"/>
      <point x="335" y="704" type="line" smooth="yes"/>
      <point x="459" y="704"/>
      <point x="514" y="651"/>
      <point x="514" y="535" type="curve" smooth="yes"/>
      <point x="514" y="426"/>
      <point x="468" y="368"/>
      <point x="382" y="368" type="curve" smooth="yes"/>
      <point x="226" y="368" type="line"/>
      <point x="226" y="367" type="line"/>
      <point x="396" y="367" type="line" smooth="yes"/>
      <point x="515" y="367"/>
      <point x="573" y="313"/>
      <point x="573" y="200" type="curve" smooth="yes"/>
      <point x="573" y="67"/>
      <point x="493" y="2"/>
    </contour>
  </outline>
</glyph>
<glyph name="C" format="2">
  <advance width="820"/>
  <unicode hex="0043"/>
  <anchor x="441" y="0" name="bottom"/>
  <anchor x="432" y="354" name="center"/>
  <anchor x="434" y="0" name="currency"/>
  <anchor x="165" y="354" name="middlestroke"/>
  <anchor x="432" y="708" name="top"/>
  <anchor x="432" y="688" name="top_low_1"/>
  <anchor x="432" y="668" name="top_low_2"/>
  <anchor x="432" y="648" name="top_low_3"/>
  <outline>
    <contour>
      <point x="433" y="-14" type="curve" smooth="yes"/>
      <point x="557" y="-14"/>
      <point x="641" y="39"/>
      <point x="689" y="39" type="curve" smooth="yes"/>
      <point x="717" y="39"/>
      <point x="730" y="25"/>
      <point x="739" y="-14" type="curve"/>
      <point x="740" y="-14" type="line"/>
      <point x="737" y="38"/>
      <point x="736" y="101"/>
      <point x="736" y="240" type="curve"/>
      <point x="735" y="240" type="line"/>
      <point x="703" y="82"/>
      <point x="592" y="-12"/>
      <point x="440" y="-12" type="curve" smooth="yes"/>
      <point x="268" y="-12"/>
      <point x="166" y="124"/>
      <point x="166" y="356" type="curve" smooth="yes"/>
      <point x="166" y="586"/>
      <point x="267" y="720"/>
      <point x="440" y="720" type="curve" smooth="yes"/>
      <point x="591" y="720"/>
      <point x="702" y="626"/>
      <point x="734" y="468" type="curve"/>
      <point x="735" y="468" type="line"/>
      <point x="735" y="607"/>
      <point x="736" y="670"/>
      <point x="739" y="722" type="curve"/>
      <point x="738" y="722" type="line"/>
      <point x="729" y="683"/>
      <point x="716" y="668"/>
      <point x="688" y="668" type="curve" smooth="yes"/>
      <point x="642" y="668"/>
      <point x="551" y="722"/>
      <point x="437" y="722" type="curve" smooth="yes"/>
      <point x="220" y="722"/>
      <point x="66" y="566"/>
      <point x="66" y="344" type="curve" smooth="yes"/>
      <point x="66" y="128"/>
      <point x="212" y="-14"/>
    </contour>
  </outline>
</glyph>
<glyph name="D" format="2">
  <advance width="847"/>
  <unicode hex="0044"/>
  <anchor x="400" y="0" name="bottom"/>
  <anchor x="224" y="356" name="center"/>
  <anchor x="429" y="708" name="top"/>
  <anchor x="429" y="688" name="top_low_1"/>
  <anchor x="429" y="668" name="top_low_2"/>
  <anchor x="429" y="648" name="top_low_3"/>
  <outline>
    <contour>
      <point x="340" y="0" type="curve"/>
      <point x="357" y="0" type="line" smooth="yes"/>
      <point x="619" y="0"/>
      <point x="781" y="134"/>
      <point x="781" y="369" type="curve" smooth="yes"/>
      <point x="781" y="588"/>
      <point x="640" y="708"/>
      <point x="361" y="708" type="curve" smooth="yes"/>
      <point x="340" y="708" type="line"/>
      <point x="304" y="708"/>
      <point x="259" y="705"/>
      <point x="195" y="705" type="curve"/>
      <point x="131" y="705"/>
      <point x="86" y="707"/>
      <point x="50" y="708" type="curve"/>
      <point x="50" y="707" type="line"/>
      <point x="76" y="704" type="line"/>
      <point x="136" y="697"/>
      <point x="149" y="683"/>
      <point x="149" y="621" type="curve"/>
      <point x="149" y="87" type="line"/>
      <point x="149" y="25"/>
      <point x="136" y="11"/>
      <point x="76" y="4" type="curve"/>
      <point x="50" y="1" type="line"/>
      <point x="50" y="0" type="line"/>
      <point x="86" y="1"/>
      <point x="131" y="3"/>
      <point x="195" y="3" type="curve"/>
      <point x="259" y="3"/>
      <point x="304" y="0"/>
    </contour>
    <contour>
      <point x="338" y="1" type="curve" smooth="yes"/>
      <point x="256" y="1"/>
      <point x="242" y="14"/>
      <point x="242" y="85" type="curve" smooth="yes"/>
      <point x="242" y="704" type="line"/>
      <point x="339" y="704" type="line" smooth="yes"/>
      <point x="578" y="704"/>
      <point x="681" y="603"/>
      <point x="681" y="354" type="curve" smooth="yes"/>
      <point x="681" y="108"/>
      <point x="581" y="1"/>
    </contour>
  </outline>
</glyph>
<glyph name="E" format="2">
  <advance width="762"/>
  <unicode hex="0045"/>
  <anchor x="388" y="0" name="bottom"/>
  <anchor x="364" y="354" name="center"/>
  <anchor x="625" y="0" name="ogonek"/>
  <anchor x="363" y="708" name="top"/>
  <anchor x="363" y="688" name="top_low_1"/>
  <anchor x="363" y="668" name="top_low_2"/>
  <anchor x="363" y="648" name="top_low_3"/>
  <outline>
    <contour>
      <point x="186" y="3" type="curve"/>
      <point x="198" y="3" type="line"/>
      <point x="389" y="3" type="line"/>
      <point x="512" y="3"/>
      <point x="596" y="2"/>
      <point x="667" y="0" type="curve"/>
      <point x="664" y="67"/>
      <point x="670" y="143"/>
      <point x="683" y="230" type="curve"/>
      <point x="682" y="230" type="line"/>
      <point x="618" y="32"/>
      <point x="546" y="4"/>
      <point x="388" y="4" type="curve"/>
      <point x="329" y="4" type="line"/>
      <point x="255" y="4"/>
      <point x="243" y="18"/>
      <point x="243" y="103" type="curve"/>
      <point x="243" y="704" type="line"/>
      <point x="341" y="704" type="line"/>
      <point x="497" y="704"/>
      <point x="568" y="680"/>
      <point x="631" y="508" type="curve"/>
      <point x="632" y="508" type="line"/>
      <point x="622" y="584"/>
      <point x="617" y="650"/>
      <point x="620" y="708" type="curve"/>
      <point x="549" y="706"/>
      <point x="465" y="705"/>
      <point x="342" y="705" type="curve"/>
      <point x="198" y="705" type="line"/>
      <point x="186" y="705" type="line"/>
      <point x="126" y="705"/>
      <point x="84" y="707"/>
      <point x="50" y="708" type="curve"/>
      <point x="50" y="707" type="line"/>
      <point x="77" y="704" type="line"/>
      <point x="137" y="697"/>
      <point x="150" y="683"/>
      <point x="150" y="621" type="curve"/>
      <point x="150" y="87" type="line"/>
      <point x="150" y="25"/>
      <point x="137" y="11"/>
      <point x="77" y="4" type="curve"/>
      <point x="50" y="1" type="line"/>
      <point x="50" y="0" type="line"/>
      <point x="84" y="1"/>
      <point x="126" y="3"/>
    </contour>
    <contour>
      <point x="207" y="356" type="line"/>
      <point x="510" y="356" type="line"/>
      <point x="510" y="357" type="line"/>
      <point x="207" y="357" type="line"/>
    </contour>
    <contour>
      <point x="556" y="204" type="curve"/>
      <point x="557" y="204" type="line"/>
      <point x="552" y="284"/>
      <point x="551" y="317"/>
      <point x="551" y="356" type="curve" smooth="yes"/>
      <point x="551" y="391"/>
      <point x="549" y="427"/>
      <point x="554" y="508" type="curve"/>
      <point x="553" y="508" type="line"/>
      <point x="535" y="395"/>
      <point x="492" y="357"/>
      <point x="388" y="357" type="curve"/>
      <point x="388" y="356" type="line"/>
      <point x="501" y="356"/>
      <point x="535" y="321"/>
    </contour>
  </outline>
</glyph>
<glyph name="F" format="2">
  <advance width="675"/>
  <unicode hex="0046"/>
  <anchor x="318" y="0" name="bottom"/>
  <anchor x="250" y="140" name="center"/>
  <anchor x="150" y="250" name="stem"/>
  <anchor x="351" y="708" name="top"/>
  <anchor x="351" y="688" name="top_low_1"/>
  <anchor x="351" y="668" name="top_low_2"/>
  <anchor x="351" y="648" name="top_low_3"/>
  <outline>
    <contour>
      <point x="150" y="250" type="line"/>
      <point x="243" y="250" type="line"/>
      <point x="243" y="704" type="line"/>
      <point x="341" y="704" type="line"/>
      <point x="497" y="704"/>
      <point x="568" y="680"/>
      <point x="631" y="508" type="curve"/>
      <point x="632" y="508" type="line"/>
      <point x="622" y="584"/>
      <point x="617" y="650"/>
      <point x="620" y="708" type="curve"/>
      <point x="549" y="706"/>
      <point x="465" y="705"/>
      <point x="342" y="705" type="curve"/>
      <point x="196" y="705" type="line"/>
      <point x="186" y="705" type="line"/>
      <point x="126" y="705"/>
      <point x="84" y="707"/>
      <point x="50" y="708" type="curve"/>
      <point x="50" y="707" type="line"/>
      <point x="77" y="704" type="line"/>
      <point x="137" y="697"/>
      <point x="150" y="683"/>
      <point x="150" y="621" type="curve"/>
    </contour>
    <contour>
      <point x="207" y="346" type="line"/>
      <point x="526" y="346" type="line"/>
      <point x="526" y="347" type="line"/>
      <point x="207" y="347" type="line"/>
    </contour>
    <contour>
      <point x="546" y="174" type="curve"/>
      <point x="547" y="174" type="line"/>
      <point x="542" y="265"/>
      <point x="541" y="302"/>
      <point x="541" y="346" type="curve" smooth="yes"/>
      <point x="541" y="381"/>
      <point x="539" y="417"/>
      <point x="544" y="498" type="curve"/>
      <point x="543" y="498" type="line"/>
      <point x="525" y="385"/>
      <point x="482" y="347"/>
      <point x="378" y="347" type="curve"/>
      <point x="378" y="346" type="line"/>
      <point x="491" y="346"/>
      <point x="530" y="306"/>
    </contour>
    <component base="_UC-bottom-stem-normal-wide"/>
  </outline>
</glyph>
<glyph name="G" format="2">
  <advance width="883"/>
  <unicode hex="0047"/>
  <anchor x="443" y="0" name="bottom"/>
  <anchor x="437" y="0" name="currency"/>
  <anchor x="428" y="708" name="top"/>
  <anchor x="428" y="688" name="top_low_1"/>
  <anchor x="428" y="668" name="top_low_2"/>
  <anchor x="428" y="648" name="top_low_3"/>
  <outline>
    <contour>
      <point x="433" y="-14" type="curve" smooth="yes"/>
      <point x="571" y="-14"/>
      <point x="628" y="40"/>
      <point x="682" y="40" type="curve" smooth="yes"/>
      <point x="710" y="40"/>
      <point x="725" y="25"/>
      <point x="735" y="-14" type="curve"/>
      <point x="736" y="-14" type="line"/>
      <point x="736" y="217" type="line" smooth="yes"/>
      <point x="736" y="289"/>
      <point x="743" y="298"/>
      <point x="799" y="303" type="curve"/>
      <point x="799" y="304" type="line"/>
      <point x="773" y="302"/>
      <point x="733" y="301"/>
      <point x="682" y="301" type="curve" smooth="yes"/>
      <point x="619" y="301"/>
      <point x="569" y="303"/>
      <point x="544" y="304" type="curve"/>
      <point x="544" y="303" type="line"/>
      <point x="628" y="299"/>
      <point x="643" y="284"/>
      <point x="643" y="207" type="curve" smooth="yes"/>
      <point x="643" y="146" type="line" smooth="yes"/>
      <point x="643" y="47"/>
      <point x="574" y="-12"/>
      <point x="440" y="-12" type="curve" smooth="yes"/>
      <point x="268" y="-12"/>
      <point x="166" y="124"/>
      <point x="166" y="356" type="curve" smooth="yes"/>
      <point x="166" y="586"/>
      <point x="267" y="720"/>
      <point x="440" y="720" type="curve" smooth="yes"/>
      <point x="591" y="720"/>
      <point x="702" y="626"/>
      <point x="734" y="468" type="curve"/>
      <point x="735" y="468" type="line"/>
      <point x="735" y="607"/>
      <point x="736" y="670"/>
      <point x="739" y="722" type="curve"/>
      <point x="738" y="722" type="line"/>
      <point x="729" y="683"/>
      <point x="716" y="668"/>
      <point x="688" y="668" type="curve" smooth="yes"/>
      <point x="642" y="668"/>
      <point x="551" y="722"/>
      <point x="437" y="722" type="curve" smooth="yes"/>
      <point x="220" y="722"/>
      <point x="66" y="566"/>
      <point x="66" y="344" type="curve" smooth="yes"/>
      <point x="66" y="128"/>
      <point x="212" y="-14"/>
    </contour>
  </outline>
</glyph>
<glyph name="I" format="2">
  <advance width="393"/>
  <unicode hex="0049"/>
  <anchor x="51" y="0" name="#entry"/>
  <anchor x="342" y="0" name="^exit"/>
  <anchor x="197" y="0" name="bottom"/>
  <anchor x="197" y="354" name="center"/>
  <anchor x="311" y="0" name="ogonek"/>
  <anchor x="196" y="708" name="top"/>
  <anchor x="196" y="688" name="top_low_1"/>
  <anchor x="196" y="668" name="top_low_2"/>
  <anchor x="196" y="648" name="top_low_3"/>
  <outline>
    <contour>
      <point x="186" y="3" type="curve"/>
      <point x="197" y="3" type="line"/>
      <point x="207" y="3" type="line"/>
      <point x="267" y="3"/>
      <point x="309" y="1"/>
      <point x="343" y="0" type="curve"/>
      <point x="343" y="1" type="line"/>
      <point x="316" y="4" type="line"/>
      <point x="256" y="11"/>
      <point x="243" y="25"/>
      <point x="243" y="87" type="curve"/>
      <point x="243" y="621" type="line"/>
      <point x="243" y="683"/>
      <point x="256" y="697"/>
      <point x="316" y="704" type="curve"/>
      <point x="343" y="707" type="line"/>
      <point x="343" y="708" type="line"/>
      <point x="309" y="707"/>
      <point x="267" y="705"/>
      <point x="207" y="705" type="curve"/>
      <point x="197" y="705" type="line"/>
      <point x="186" y="705" type="line"/>
      <point x="126" y="705"/>
      <point x="84" y="707"/>
      <point x="50" y="708" type="curve"/>
      <point x="50" y="707" type="line"/>
      <point x="77" y="704" type="line"/>
      <point x="137" y="697"/>
      <point x="150" y="683"/>
      <point x="150" y="621" type="curve"/>
      <point x="150" y="87" type="line"/>
      <point x="150" y="25"/>
      <point x="137" y="11"/>
      <point x="77" y="4" type="curve"/>
      <point x="50" y="1" type="line"/>
      <point x="50" y="0" type="line"/>
      <point x="84" y="1"/>
      <point x="126" y="3"/>
    </contour>
  </outline>
</glyph>
<glyph name="K" format="2">
  <advance width="779"/>
  <unicode hex="004B"/>
  <anchor x="409" y="0" name="bottom"/>
  <anchor x="444" y="361" name="center"/>
  <anchor x="196" y="520" name="stroke"/>
  <anchor x="390" y="708" name="top"/>
  <anchor x="390" y="688" name="top_low_1"/>
  <anchor x="390" y="668" name="top_low_2"/>
  <anchor x="390" y="648" name="top_low_3"/>
  <outline>
    <contour>
      <point x="590" y="0" type="curve"/>
      <point x="611" y="1"/>
      <point x="634" y="2"/>
      <point x="659" y="2" type="curve" smooth="yes"/>
      <point x="688" y="2"/>
      <point x="721" y="1"/>
      <point x="774" y="0" type="curve"/>
      <point x="774" y="1" type="line"/>
      <point x="723" y="7"/>
      <point x="704" y="18"/>
      <point x="656" y="97" type="curve" smooth="yes"/>
      <point x="563" y="248" type="line" smooth="yes"/>
      <point x="507" y="339"/>
      <point x="467" y="374"/>
      <point x="397" y="392" type="curve"/>
      <point x="394" y="382" type="line"/>
      <point x="590" y="605" type="line" smooth="yes"/>
      <point x="640" y="662"/>
      <point x="678" y="694"/>
      <point x="749" y="707" type="curve"/>
      <point x="749" y="708" type="line"/>
      <point x="718" y="706"/>
      <point x="681" y="705"/>
      <point x="633" y="705" type="curve" smooth="yes"/>
      <point x="567" y="705"/>
      <point x="501" y="707"/>
      <point x="459" y="708" type="curve"/>
      <point x="459" y="707" type="line"/>
      <point x="601" y="695"/>
      <point x="624" y="645"/>
      <point x="537" y="547" type="curve" smooth="yes"/>
      <point x="457" y="456" type="line" smooth="yes"/>
      <point x="398" y="389"/>
      <point x="369" y="362"/>
      <point x="260" y="362" type="curve" smooth="yes"/>
      <point x="223" y="362" type="line"/>
      <point x="223" y="361" type="line"/>
      <point x="260" y="361" type="line" smooth="yes"/>
      <point x="363" y="361"/>
      <point x="406" y="333"/>
      <point x="478" y="215" type="curve" smooth="yes"/>
      <point x="565" y="73" type="line" smooth="yes"/>
      <point x="581" y="48"/>
      <point x="589" y="26"/>
    </contour>
    <contour>
      <point x="186" y="3" type="curve"/>
      <point x="196" y="3" type="line"/>
      <point x="207" y="3" type="line"/>
      <point x="267" y="3"/>
      <point x="309" y="1"/>
      <point x="343" y="0" type="curve"/>
      <point x="343" y="1" type="line"/>
      <point x="316" y="4" type="line"/>
      <point x="256" y="11"/>
      <point x="243" y="25"/>
      <point x="243" y="87" type="curve"/>
      <point x="243" y="708" type="line"/>
      <point x="227" y="706"/>
      <point x="212" y="705"/>
      <point x="196" y="705" type="curve"/>
      <point x="186" y="705" type="line"/>
      <point x="126" y="705"/>
      <point x="84" y="707"/>
      <point x="50" y="708" type="curve"/>
      <point x="50" y="707" type="line"/>
      <point x="77" y="704" type="line"/>
      <point x="137" y="697"/>
      <point x="150" y="683"/>
      <point x="150" y="621" type="curve"/>
      <point x="150" y="87" type="line"/>
      <point x="150" y="25"/>
      <point x="137" y="11"/>
      <point x="77" y="4" type="curve"/>
      <point x="50" y="1" type="line"/>
      <point x="50" y="0" type="line"/>
      <point x="84" y="1"/>
      <point x="126" y="3"/>
    </contour>
  </outline>
</glyph>
<glyph name="M" format="2">
  <advance width="1026"/>
  <unicode hex="004D"/>
  <anchor x="514" y="0" name="bottom"/>
  <anchor x="514" y="708" name="top"/>
  <anchor x="514" y="688" name="top_low_1"/>
  <anchor x="514" y="668" name="top_low_2"/>
  <anchor x="514" y="648" name="top_low_3"/>
  <outline>
    <contour>
      <point x="484" y="-15" type="line"/>
      <point x="485" y="-15" type="line"/>
      <point x="782" y="704" type="line"/>
      <point x="783" y="704" type="line"/>
      <point x="783" y="87" type="line"/>
      <point x="783" y="25"/>
      <point x="770" y="11"/>
      <point x="710" y="4" type="curve"/>
      <point x="683" y="1" type="line"/>
      <point x="683" y="0" type="line"/>
      <point x="717" y="1"/>
      <point x="759" y="3"/>
      <point x="819" y="3" type="curve"/>
      <point x="830" y="3" type="line"/>
      <point x="840" y="3" type="line"/>
      <point x="900" y="3"/>
      <point x="942" y="1"/>
      <point x="976" y="0" type="curve"/>
      <point x="976" y="1" type="line"/>
      <point x="949" y="4" type="line"/>
      <point x="889" y="11"/>
      <point x="876" y="25"/>
      <point x="876" y="87" type="curve"/>
      <point x="876" y="621" type="line"/>
      <point x="876" y="683"/>
      <point x="889" y="697"/>
      <point x="949" y="704" type="curve"/>
      <point x="976" y="707" type="line"/>
      <point x="976" y="708" type="line"/>
      <point x="942" y="707"/>
      <point x="900" y="705"/>
      <point x="840" y="705" type="curve"/>
      <point x="830" y="705" type="line"/>
      <point x="818" y="705"/>
      <point x="800" y="705"/>
      <point x="782" y="708" type="curve"/>
      <point x="527" y="90" type="line"/>
      <point x="529" y="92" type="line"/>
      <point x="230" y="708" type="line"/>
      <point x="225" y="706"/>
      <point x="215" y="705"/>
      <point x="204" y="705" type="curve"/>
      <point x="186" y="705" type="line"/>
      <point x="126" y="705"/>
      <point x="84" y="707"/>
      <point x="50" y="708" type="curve"/>
      <point x="50" y="707" type="line"/>
      <point x="77" y="704" type="line"/>
      <point x="137" y="697"/>
      <point x="150" y="683"/>
      <point x="150" y="621" type="curve"/>
      <point x="150" y="87" type="line"/>
      <point x="150" y="25"/>
      <point x="137" y="11"/>
      <point x="77" y="4" type="curve"/>
      <point x="51" y="1" type="line"/>
      <point x="51" y="0" type="line"/>
      <point x="76" y="1"/>
      <point x="107" y="3"/>
      <point x="151" y="3" type="curve"/>
      <point x="184" y="3"/>
      <point x="227" y="1"/>
      <point x="262" y="0" type="curve"/>
      <point x="262" y="1" type="line"/>
      <point x="230" y="5" type="line"/>
      <point x="165" y="12"/>
      <point x="151" y="26"/>
      <point x="151" y="87" type="curve"/>
      <point x="151" y="667" type="line"/>
      <point x="152" y="667" type="line"/>
    </contour>
  </outline>
</glyph>
<glyph name="O" format="2">
  <advance width="874"/>
  <unicode hex="004F"/>
  <anchor x="439" y="0" name="bottom"/>
  <anchor x="437" y="354" name="center"/>
  <anchor x="557" y="0" name="ogonek"/>
  <anchor x="437" y="708" name="top"/>
  <anchor x="437" y="688" name="top_low_1"/>
  <anchor x="437" y="668" name="top_low_2"/>
  <anchor x="437" y="648" name="top_low_3"/>
  <anchor x="24" y="708" name="topleft"/>
  <anchor x="850" y="708" name="topright"/>
  <outline>
    <contour>
      <point x="436" y="-14" type="curve" smooth="yes"/>
      <point x="653" y="-14"/>
      <point x="808" y="136"/>
      <point x="808" y="360" type="curve" smooth="yes"/>
      <point x="808" y="589"/>
      <point x="659" y="722"/>
      <point x="437" y="722" type="curve" smooth="yes"/>
      <point x="221" y="722"/>
      <point x="66" y="572"/>
      <point x="66" y="348" type="curve" smooth="yes"/>
      <point x="66" y="119"/>
      <point x="215" y="-14"/>
    </contour>
    <contour>
      <point x="436" y="-13" type="curve" smooth="yes"/>
      <point x="286" y="-13"/>
      <point x="166" y="129"/>
      <point x="166" y="352" type="curve" smooth="yes"/>
      <point x="166" y="569"/>
      <point x="274" y="721"/>
      <point x="437" y="721" type="curve" smooth="yes"/>
      <point x="587" y="721"/>
      <point x="708" y="579"/>
      <point x="708" y="356" type="curve" smooth="yes"/>
      <point x="708" y="139"/>
      <point x="600" y="-13"/>
    </contour>
  </outline>
</glyph>
<glyph name="R" format="2">
  <advance width="763"/>
  <unicode hex="0052"/>
  <anchor x="150" y="0" name="baseline_left"/>
  <anchor x="395" y="0" name="bottom"/>
  <anchor x="197" y="347" name="center"/>
  <anchor x="150" y="180" name="stem"/>
  <anchor x="346" y="708" name="top"/>
  <outline>
    <contour>
      <point x="150" y="180" type="line"/>
      <point x="243" y="180" type="line"/>
      <point x="243" y="704" type="line"/>
      <point x="334" y="704" type="line" smooth="yes"/>
      <point x="477" y="704"/>
      <point x="544" y="646"/>
      <point x="544" y="522" type="curve" smooth="yes"/>
      <point x="544" y="403"/>
      <point x="478" y="347"/>
      <point x="340" y="347" type="curve" smooth="yes"/>
      <point x="197" y="347" type="line"/>
      <point x="197" y="346" type="line"/>
      <point x="352" y="346" type="line" smooth="yes"/>
      <point x="522" y="346"/>
      <point x="644" y="426"/>
      <point x="644" y="537" type="curve" smooth="yes"/>
      <point x="644" y="641"/>
      <point x="537" y="708"/>
      <point x="368" y="708" type="curve" smooth="yes"/>
      <point x="342" y="708"/>
      <point x="265" y="705"/>
      <point x="196" y="705" type="curve"/>
      <point x="186" y="705" type="line"/>
      <point x="126" y="705"/>
      <point x="84" y="707"/>
      <point x="50" y="708" type="curve"/>
      <point x="50" y="707" type="line"/>
      <point x="77" y="704" type="line"/>
      <point x="137" y="697"/>
      <point x="150" y="683"/>
      <point x="150" y="621" type="curve"/>
    </contour>
    <contour>
      <point x="666" y="-14" type="curve" smooth="yes"/>
      <point x="717" y="-14"/>
      <point x="747" y="1"/>
      <point x="785" y="46" type="curve"/>
      <point x="784" y="47" type="line"/>
      <point x="762" y="21"/>
      <point x="741" y="9"/>
      <point x="716" y="9" type="curve" smooth="yes"/>
      <point x="680" y="9"/>
      <point x="663" y="26"/>
      <point x="647" y="78" type="curve" smooth="yes"/>
      <point x="608" y="207" type="line" smooth="yes"/>
      <point x="574" y="321"/>
      <point x="525" y="347"/>
      <point x="342" y="347" type="curve" smooth="yes"/>
      <point x="216" y="347" type="line"/>
      <point x="216" y="346" type="line"/>
      <point x="357" y="346" type="line" smooth="yes"/>
      <point x="447" y="346"/>
      <point x="484" y="316"/>
      <point x="510" y="221" type="curve" smooth="yes"/>
      <point x="545" y="94" type="line" smooth="yes"/>
      <point x="565" y="22"/>
      <point x="606" y="-14"/>
    </contour>
    <contour>
      <point x="186" y="3" type="curve"/>
      <point x="196" y="3" type="line"/>
      <point x="207" y="3" type="line"/>
      <point x="267" y="3"/>
      <point x="309" y="1"/>
      <point x="343" y="0" type="curve"/>
      <point x="343" y="1" type="line"/>
      <point x="316" y="4" type="line"/>
      <point x="256" y="11"/>
      <point x="243" y="25"/>
      <point x="243" y="87" type="curve"/>
      <point x="243" y="180" type="line"/>
      <point x="150" y="180" type="line"/>
      <point x="150" y="87" type="line"/>
      <point x="150" y="25"/>
      <point x="137" y="11"/>
      <point x="77" y="4" type="curve"/>
      <point x="50" y="1" type="line"/>
      <point x="50" y="0" type="line"/>
      <point x="84" y="1"/>
      <point x="126" y="3"/>
    </contour>
  </outline>
</glyph>
<glyph name="S" format="2">
  <advance width="636"/>
  <unicode hex="0053"/>
  <anchor x="339" y="0" name="bottom"/>
  <anchor x="322" y="354" name="center"/>
  <anchor x="321" y="0" name="currency"/>
  <anchor x="324" y="708" name="top"/>
  <anchor x="324" y="688" name="top_low_1"/>
  <anchor x="324" y="668" name="top_low_2"/>
  <anchor x="324" y="648" name="top_low_3"/>
  <outline>
    <contour>
      <point x="331" y="-14" type="curve" smooth="yes"/>
      <point x="478" y="-14"/>
      <point x="571" y="62"/>
      <point x="571" y="183" type="curve" smooth="yes"/>
      <point x="571" y="278"/>
      <point x="513" y="337"/>
      <point x="358" y="401" type="curve" smooth="yes"/>
      <point x="207" y="464"/>
      <point x="158" y="508"/>
      <point x="158" y="582" type="curve" smooth="yes"/>
      <point x="158" y="666"/>
      <point x="219" y="720"/>
      <point x="314" y="720" type="curve" smooth="yes"/>
      <point x="434" y="720"/>
      <point x="519" y="637"/>
      <point x="530" y="511" type="curve"/>
      <point x="531" y="511" type="line"/>
      <point x="531" y="643"/>
      <point x="532" y="683"/>
      <point x="537" y="722" type="curve"/>
      <point x="536" y="722" type="line"/>
      <point x="526" y="694"/>
      <point x="513" y="683"/>
      <point x="489" y="683" type="curve" smooth="yes"/>
      <point x="442" y="683"/>
      <point x="402" y="722"/>
      <point x="304" y="722" type="curve" smooth="yes"/>
      <point x="172" y="722"/>
      <point x="87" y="651"/>
      <point x="87" y="540" type="curve" smooth="yes"/>
      <point x="87" y="447"/>
      <point x="146" y="388"/>
      <point x="303" y="324" type="curve" smooth="yes"/>
      <point x="440" y="269"/>
      <point x="482" y="227"/>
      <point x="482" y="145" type="curve" smooth="yes"/>
      <point x="482" y="46"/>
      <point x="420" y="-12"/>
      <point x="315" y="-12" type="curve" smooth="yes"/>
      <point x="181" y="-12"/>
      <point x="91" y="81"/>
      <point x="80" y="233" type="curve"/>
      <point x="79" y="233" type="line"/>
      <point x="79" y="85"/>
      <point x="78" y="26"/>
      <point x="74" y="-14" type="curve"/>
      <point x="75" y="-14" type="line"/>
      <point x="84" y="22"/>
      <point x="97" y="37"/>
      <point x="121" y="37" type="curve" smooth="yes"/>
      <point x="164" y="37"/>
      <point x="211" y="-14"/>
    </contour>
  </outline>
</glyph>
<glyph name="T" format="2">
  <advance width="733"/>
  <unicode hex="0054"/>
  <anchor x="413" y="0" name="#exit"/>
  <anchor x="413" y="0" name="%exit"/>
  <anchor x="366" y="0" name="bottom"/>
  <anchor x="367" y="354" name="center"/>
  <anchor x="367" y="285" name="center_lowered"/>
  <outline>
    <contour>
      <point x="360" y="3" type="curve"/>
      <point x="367" y="3" type="line"/>
      <point x="373" y="3" type="line"/>
      <point x="444" y="3"/>
      <point x="494" y="1"/>
      <point x="533" y="0" type="curve"/>
      <point x="533" y="1" type="line"/>
      <point x="492" y="5" type="line"/>
      <point x="426" y="12"/>
      <point x="413" y="25"/>
      <point x="413" y="87" type="curve"/>
      <point x="413" y="250" type="line"/>
      <point x="320" y="250" type="line"/>
      <point x="320" y="87" type="line"/>
      <point x="320" y="25"/>
      <point x="307" y="12"/>
      <point x="241" y="5" type="curve"/>
      <point x="200" y="1" type="line"/>
      <point x="200" y="0" type="line"/>
      <point x="239" y="1"/>
      <point x="289" y="3"/>
    </contour>
    <component base="_UC-T-upper"/>
  </outline>
</glyph>
<glyph name="V" format="2">
  <advance width="786"/>
  <unicode hex="0056"/>
  <anchor x="390" y="0" name="bottom"/>
  <anchor x="392" y="708" name="top"/>
  <anchor x="392" y="688" name="top_low_1"/>
  <anchor x="392" y="668" name="top_low_2"/>
  <anchor x="392" y="648" name="top_low_3"/>
  <outline>
    <contour>
      <point x="391" y="-15" type="line"/>
      <point x="392" y="-15" type="line"/>
      <point x="654" y="564" type="line"/>
      <point x="700" y="665"/>
      <point x="725" y="690"/>
      <point x="796" y="705" type="curve"/>
      <point x="805" y="707" type="line"/>
      <point x="805" y="708" type="line"/>
      <point x="785" y="707"/>
      <point x="754" y="705"/>
      <point x="704" y="705" type="curve"/>
      <point x="632" y="705"/>
      <point x="569" y="706"/>
      <point x="535" y="708" type="curve"/>
      <point x="535" y="707" type="line"/>
      <point x="553" y="704" type="line"/>
      <point x="657" y="686"/>
      <point x="685" y="638"/>
      <point x="645" y="548" type="curve"/>
      <point x="436" y="85" type="line"/>
      <point x="441" y="94" type="line"/>
      <point x="208" y="618" type="line"/>
      <point x="187" y="672"/>
      <point x="198" y="697"/>
      <point x="258" y="704" type="curve"/>
      <point x="284" y="707" type="line"/>
      <point x="284" y="708" type="line"/>
      <point x="244" y="707"/>
      <point x="193" y="705"/>
      <point x="121" y="705" type="curve"/>
      <point x="119" y="705" type="line"/>
      <point x="117" y="705" type="line"/>
      <point x="64" y="705"/>
      <point x="26" y="707"/>
      <point x="-3" y="708" type="curve"/>
      <point x="-3" y="707" type="line"/>
      <point x="19" y="705" type="line"/>
      <point x="63" y="701"/>
      <point x="79" y="684"/>
      <point x="102" y="633" type="curve"/>
    </contour>
  </outline>
</glyph>
<glyph name="W" format="2">
  <advance width="1108"/>
  <unicode hex="0057"/>
  <anchor x="565" y="0" name="bottom"/>
  <anchor x="569" y="357" name="currency"/>
  <anchor x="569" y="708" name="top"/>
  <anchor x="569" y="688" name="top_low_1"/>
  <anchor x="569" y="668" name="top_low_2"/>
  <anchor x="569" y="648" name="top_low_3"/>
  <outline>
    <contour>
      <point x="767" y="-15" type="line"/>
      <point x="768" y="-15" type="line"/>
      <point x="978" y="560" type="line"/>
      <point x="1016" y="664"/>
      <point x="1038" y="690"/>
      <point x="1109" y="705" type="curve"/>
      <point x="1118" y="707" type="line"/>
      <point x="1118" y="708" type="line"/>
      <point x="1098" y="707"/>
      <point x="1067" y="705"/>
      <point x="1017" y="705" type="curve"/>
      <point x="945" y="705"/>
      <point x="882" y="706"/>
      <point x="848" y="708" type="curve"/>
      <point x="848" y="707" type="line"/>
      <point x="866" y="704" type="line"/>
      <point x="970" y="686"/>
      <point x="1004" y="636"/>
      <point x="970" y="543" type="curve"/>
      <point x="810" y="105" type="line"/>
      <point x="815" y="114" type="line"/>
      <point x="622" y="616" type="line"/>
      <point x="603" y="671"/>
      <point x="616" y="697"/>
      <point x="676" y="704" type="curve"/>
      <point x="702" y="707" type="line"/>
      <point x="702" y="708" type="line"/>
      <point x="662" y="707"/>
      <point x="611" y="705"/>
      <point x="539" y="705" type="curve"/>
      <point x="538" y="705" type="line"/>
      <point x="537" y="705" type="line"/>
      <point x="484" y="705"/>
      <point x="446" y="707"/>
      <point x="417" y="708" type="curve"/>
      <point x="417" y="707" type="line"/>
      <point x="439" y="705" type="line"/>
      <point x="483" y="701"/>
      <point x="498" y="684"/>
      <point x="518" y="632" type="curve"/>
    </contour>
    <contour>
      <point x="352" y="-15" type="line"/>
      <point x="353" y="-15" type="line"/>
      <point x="567" y="560" type="line"/>
      <point x="566" y="561" type="line"/>
      <point x="384" y="73" type="line"/>
      <point x="400" y="114" type="line"/>
      <point x="207" y="616" type="line"/>
      <point x="189" y="671"/>
      <point x="202" y="697"/>
      <point x="262" y="704" type="curve"/>
      <point x="288" y="707" type="line"/>
      <point x="288" y="708" type="line"/>
      <point x="248" y="707"/>
      <point x="197" y="705"/>
      <point x="125" y="705" type="curve"/>
      <point x="124" y="705" type="line"/>
      <point x="123" y="705" type="line"/>
      <point x="70" y="705"/>
      <point x="32" y="707"/>
      <point x="3" y="708" type="curve"/>
      <point x="3" y="707" type="line"/>
      <point x="25" y="705" type="line"/>
      <point x="69" y="701"/>
      <point x="84" y="684"/>
      <point x="104" y="632" type="curve"/>
    </contour>
  </outline>
</glyph>
<glyph name="X" format="2">
  <advance width="745"/>
  <unicode hex="0058"/>
  <anchor x="372" y="0" name="bottom"/>
  <anchor x="733" y="0" name="bottomright"/>
  <anchor x="372" y="708" name="top"/>
  <anchor x="372" y="688" name="top_low_1"/>
  <anchor x="372" y="668" name="top_low_2"/>
  <anchor x="372" y="648" name="top_low_3"/>
  <outline>
    <contour>
      <point x="620" y="3" type="curve"/>
      <point x="626" y="3" type="line"/>
      <point x="631" y="3" type="line"/>
      <point x="684" y="3"/>
      <point x="722" y="1"/>
      <point x="751" y="0" type="curve"/>
      <point x="751" y="1" type="line"/>
      <point x="729" y="3" type="line"/>
      <point x="685" y="7"/>
      <point x="665" y="21"/>
      <point x="632" y="67" type="curve"/>
      <point x="236" y="627" type="line"/>
      <point x="205" y="676"/>
      <point x="209" y="697"/>
      <point x="269" y="703" type="curve"/>
      <point x="295" y="706" type="line"/>
      <point x="295" y="707" type="line"/>
      <point x="255" y="706"/>
      <point x="204" y="705"/>
      <point x="132" y="705" type="curve"/>
      <point x="126" y="705" type="line"/>
      <point x="121" y="705" type="line"/>
      <point x="68" y="705"/>
      <point x="30" y="707"/>
      <point x="1" y="708" type="curve"/>
      <point x="1" y="707" type="line"/>
      <point x="23" y="705" type="line"/>
      <point x="67" y="701"/>
      <point x="87" y="687"/>
      <point x="120" y="641" type="curve"/>
      <point x="516" y="81" type="line"/>
      <point x="547" y="32"/>
      <point x="543" y="11"/>
      <point x="483" y="5" type="curve"/>
      <point x="457" y="2" type="line"/>
      <point x="457" y="1" type="line"/>
      <point x="497" y="2"/>
      <point x="548" y="3"/>
    </contour>
    <contour>
      <point x="190" y="139" type="curve"/>
      <point x="351" y="347" type="line"/>
      <point x="350" y="348" type="line"/>
      <point x="178" y="125" type="line"/>
      <point x="109" y="37"/>
      <point x="75" y="18"/>
      <point x="4" y="3" type="curve"/>
      <point x="-5" y="1" type="line"/>
      <point x="-5" y="0" type="line"/>
      <point x="15" y="1"/>
      <point x="46" y="3"/>
      <point x="96" y="3" type="curve"/>
      <point x="168" y="3"/>
      <point x="231" y="2"/>
      <point x="265" y="0" type="curve"/>
      <point x="265" y="1" type="line"/>
      <point x="247" y="4" type="line"/>
      <point x="143" y="22"/>
      <point x="130" y="61"/>
    </contour>
    <contour>
      <point x="382" y="360" type="line"/>
      <point x="555" y="583" type="line"/>
      <point x="623" y="671"/>
      <point x="658" y="690"/>
      <point x="729" y="705" type="curve"/>
      <point x="738" y="707" type="line"/>
      <point x="738" y="708" type="line"/>
      <point x="718" y="707"/>
      <point x="687" y="705"/>
      <point x="637" y="705" type="curve"/>
      <point x="565" y="705"/>
      <point x="502" y="706"/>
      <point x="468" y="708" type="curve"/>
      <point x="468" y="707" type="line"/>
      <point x="486" y="704" type="line"/>
      <point x="590" y="686"/>
      <point x="603" y="647"/>
      <point x="542" y="569" type="curve"/>
      <point x="381" y="361" type="line"/>
    </contour>
  </outline>
</glyph>
<glyph name="Y" format="2">
  <advance width="813"/>
  <unicode hex="0059"/>
  <anchor x="420" y="0" name="bottom"/>
  <anchor x="421" y="255" name="center"/>
  <anchor x="419" y="708" name="top"/>
  <anchor x="419" y="688" name="top_low_1"/>
  <anchor x="419" y="668" name="top_low_2"/>
  <anchor x="419" y="648" name="top_low_3"/>
  <outline>
    <contour>
      <point x="408" y="199" type="line"/>
      <point x="420" y="199" type="line"/>
      <point x="629" y="570" type="line"/>
      <point x="684" y="667"/>
      <point x="713" y="690"/>
      <point x="784" y="705" type="curve"/>
      <point x="793" y="707" type="line"/>
      <point x="793" y="708" type="line"/>
      <point x="773" y="707"/>
      <point x="742" y="705"/>
      <point x="692" y="705" type="curve"/>
      <point x="620" y="705"/>
      <point x="557" y="706"/>
      <point x="523" y="708" type="curve"/>
      <point x="523" y="707" type="line"/>
      <point x="541" y="704" type="line"/>
      <point x="645" y="686"/>
      <point x="667" y="641"/>
      <point x="619" y="555" type="curve"/>
      <point x="456" y="266" type="line"/>
      <point x="465" y="276" type="line"/>
      <point x="250" y="624" type="line"/>
      <point x="222" y="675"/>
      <point x="228" y="697"/>
      <point x="288" y="703" type="curve"/>
      <point x="314" y="706" type="line"/>
      <point x="314" y="707" type="line"/>
      <point x="274" y="706"/>
      <point x="223" y="705"/>
      <point x="151" y="705" type="curve"/>
      <point x="144" y="705" type="line"/>
      <point x="140" y="705" type="line"/>
      <point x="87" y="705"/>
      <point x="49" y="707"/>
      <point x="20" y="708" type="curve"/>
      <point x="20" y="707" type="line"/>
      <point x="42" y="705" type="line"/>
      <point x="86" y="701"/>
      <point x="105" y="686"/>
      <point x="135" y="638" type="curve"/>
    </contour>
    <contour>
      <point x="414" y="3" type="curve"/>
      <point x="421" y="3" type="line"/>
      <point x="427" y="3" type="line"/>
      <point x="498" y="3"/>
      <point x="548" y="1"/>
      <point x="587" y="0" type="curve"/>
      <point x="587" y="1" type="line"/>
      <point x="546" y="5" type="line"/>
      <point x="480" y="12"/>
      <point x="467" y="25"/>
      <point x="467" y="87" type="curve"/>
      <point x="467" y="284" type="line"/>
      <point x="430" y="219" type="line"/>
      <point x="374" y="311" type="line"/>
      <point x="374" y="87" type="line"/>
      <point x="374" y="25"/>
      <point x="361" y="12"/>
      <point x="295" y="5" type="curve"/>
      <point x="254" y="1" type="line"/>
      <point x="254" y="0" type="line"/>
      <point x="293" y="1"/>
      <point x="343" y="3"/>
    </contour>
  </outline>
</glyph>
<glyph name="Z" format="2">
  <advance width="710"/>
  <unicode hex="005A"/>
  <anchor x="357" y="0" name="bottom"/>
  <anchor x="361" y="354" name="center"/>
  <anchor x="352" y="708" name="top"/>
  <anchor x="352" y="688" name="top_low_1"/>
  <anchor x="352" y="668" name="top_low_2"/>
  <anchor x="352" y="648" name="top_low_3"/>
  <outline>
    <contour>
      <point x="60" y="0" type="line"/>
      <point x="118" y="3"/>
      <point x="188" y="3"/>
      <point x="249" y="3" type="curve" smooth="yes"/>
      <point x="369" y="3" type="line"/>
      <point x="492" y="3"/>
      <point x="576" y="2"/>
      <point x="647" y="0" type="curve"/>
      <point x="644" y="67"/>
      <point x="650" y="143"/>
      <point x="663" y="230" type="curve"/>
      <point x="662" y="230" type="line"/>
      <point x="598" y="32"/>
      <point x="526" y="4"/>
      <point x="368" y="4" type="curve"/>
      <point x="168" y="4" type="line"/>
      <point x="657" y="707" type="line"/>
      <point x="657" y="708" type="line"/>
      <point x="604" y="705"/>
      <point x="533" y="705"/>
      <point x="479" y="705" type="curve" smooth="yes"/>
      <point x="371" y="705" type="line"/>
      <point x="248" y="705"/>
      <point x="164" y="706"/>
      <point x="93" y="708" type="curve"/>
      <point x="96" y="650"/>
      <point x="91" y="584"/>
      <point x="81" y="508" type="curve"/>
      <point x="82" y="508" type="line"/>
      <point x="145" y="680"/>
      <point x="216" y="704"/>
      <point x="372" y="704" type="curve"/>
      <point x="549" y="704" type="line"/>
      <point x="60" y="1" type="line"/>
    </contour>
  </outline>
</glyph>
<glyph name="bracketleft" format="2">
  <advance width="386"/>
  <unicode hex="005B"/>
  <outline>
    <contour>
      <point x="113" y="-181" type="line"/>
      <point x="308" y="-181" type="line"/>
      <point x="308" y="-180" type="line"/>
      <point x="203" y="-180" type="line"/>
      <point x="203" y="771" type="line"/>
      <point x="308" y="771" type="line"/>
      <point x="308" y="772" type="line"/>
      <point x="113" y="772" type="line"/>
    </contour>
  </outline>
</glyph>
<glyph name="asciicircum" format="2">
  <advance width="617"/>
  <unicode hex="005E"/>
  <outline>
    <contour>
      <point x="94" y="321" type="line"/>
      <point x="288" y="443" type="line"/>
      <point x="524" y="323" type="line"/>
      <point x="524" y="324" type="line"/>
      <point x="309" y="539" type="line"/>
      <point x="308" y="539" type="line"/>
      <point x="94" y="322" type="line"/>
    </contour>
  </outline>
</glyph>
<glyph name="c" format="2">
  <advance width="609"/>
  <unicode hex="0063"/>
  <anchor x="335" y="0" name="bottom"/>
  <anchor x="309" y="257" name="center"/>
  <anchor x="340" y="0" name="currency"/>
  <anchor x="480" y="514" name="hook"/>
  <anchor x="329" y="512" name="top"/>
  <outline>
    <contour>
      <point x="333" y="-14" type="curve" smooth="yes"/>
      <point x="436" y="-14"/>
      <point x="519" y="36"/>
      <point x="559" y="122" type="curve"/>
      <point x="558" y="122" type="line"/>
      <point x="516" y="39"/>
      <point x="449" y="1"/>
      <point x="376" y="1" type="curve" smooth="yes"/>
      <point x="245" y="1"/>
      <point x="171" y="96"/>
      <point x="171" y="262" type="curve" smooth="yes"/>
      <point x="171" y="426"/>
      <point x="248" y="524"/>
      <point x="378" y="524" type="curve" smooth="yes"/>
      <point x="432" y="524"/>
      <point x="467" y="507"/>
      <point x="467" y="481" type="curve" smooth="yes"/>
      <point x="467" y="448"/>
      <point x="423" y="418"/>
      <point x="423" y="384" type="curve" smooth="yes"/>
      <point x="423" y="357"/>
      <point x="443" y="339"/>
      <point x="474" y="339" type="curve" smooth="yes"/>
      <point x="514" y="339"/>
      <point x="543" y="369"/>
      <point x="543" y="409" type="curve" smooth="yes"/>
      <point x="543" y="476"/>
      <point x="457" y="529"/>
      <point x="349" y="529" type="curve" smooth="yes"/>
      <point x="188" y="529"/>
      <point x="73" y="413"/>
      <point x="73" y="251" type="curve" smooth="yes"/>
      <point x="73" y="95"/>
      <point x="180" y="-14"/>
    </contour>
  </outline>
</glyph>
<glyph name="e" format="2">
  <advance width="617"/>
  <unicode hex="0065"/>
  <anchor x="348" y="0" name="bottom"/>
  <anchor x="330" y="257" name="center"/>
  <anchor x="419" y="0" name="ogonek"/>
  <anchor x="325" y="512" name="top"/>
  <anchor x="325" y="492" name="top_low_1"/>
  <anchor x="325" y="472" name="top_low_2"/>
  <anchor x="325" y="452" name="top_low_3"/>
  <outline>
    <contour>
      <point x="326" y="-14" type="curve" smooth="yes"/>
      <point x="427" y="-14"/>
      <point x="508" y="36"/>
      <point x="547" y="122" type="curve"/>
      <point x="546" y="122" type="line"/>
      <point x="505" y="39"/>
      <point x="440" y="1"/>
      <point x="369" y="1" type="curve" smooth="yes"/>
      <point x="240" y="1"/>
      <point x="171" y="96"/>
      <point x="171" y="272" type="curve" smooth="yes"/>
      <point x="171" y="291"/>
      <point x="172" y="303"/>
      <point x="173" y="318" type="curve"/>
      <point x="173" y="319" type="line"/>
      <point x="183" y="446"/>
      <point x="244" y="528"/>
      <point x="328" y="528" type="curve" smooth="yes"/>
      <point x="408" y="528"/>
      <point x="458" y="449"/>
      <point x="456" y="319" type="curve"/>
      <point x="129" y="319" type="line"/>
      <point x="130" y="318" type="line"/>
      <point x="552" y="318" type="line"/>
      <point x="552" y="445"/>
      <point x="469" y="529"/>
      <point x="335" y="529" type="curve" smooth="yes"/>
      <point x="180" y="529"/>
      <point x="73" y="418"/>
      <point x="73" y="255" type="curve" smooth="yes"/>
      <point x="73" y="96"/>
      <point x="176" y="-14"/>
    </contour>
  </outline>
</glyph>
<glyph name="g" format="2">
  <advance width="639"/>
  <unicode hex="0067"/>
  <anchor x="317" y="-231" name="bottom"/>
  <anchor x="295" y="0" name="center"/>
  <anchor x="291" y="512" name="top"/>
  <outline>
    <contour>
      <point x="271" y="-239" type="curve" smooth="yes"/>
      <point x="452" y="-239"/>
      <point x="580" y="-151"/>
      <point x="580" y="-27" type="curve" smooth="yes"/>
      <point x="580" y="56"/>
      <point x="522" y="98"/>
      <point x="407" y="98" type="curve" smooth="yes"/>
      <point x="240" y="98" type="line" smooth="yes"/>
      <point x="207" y="98"/>
      <point x="180" y="113"/>
      <point x="180" y="141" type="curve" smooth="yes"/>
      <point x="180" y="165"/>
      <point x="192" y="186"/>
      <point x="236" y="216" type="curve"/>
      <point x="235" y="216" type="line"/>
      <point x="165" y="178"/>
      <point x="129" y="140"/>
      <point x="129" y="101" type="curve" smooth="yes"/>
      <point x="129" y="49"/>
      <point x="181" y="16"/>
      <point x="263" y="16" type="curve" smooth="yes"/>
      <point x="390" y="16" type="line" smooth="yes"/>
      <point x="470" y="16"/>
      <point x="511" y="-15"/>
      <point x="511" y="-75" type="curve" smooth="yes"/>
      <point x="511" y="-168"/>
      <point x="427" y="-234"/>
      <point x="310" y="-234" type="curve" smooth="yes"/>
      <point x="196" y="-234"/>
      <point x="125" y="-180"/>
      <point x="125" y="-94" type="curve" smooth="yes"/>
      <point x="125" y="-37"/>
      <point x="153" y="13"/>
      <point x="194" y="29" type="curve"/>
      <point x="194" y="30" type="line"/>
      <point x="92" y="-7"/>
      <point x="39" y="-47"/>
      <point x="39" y="-107" type="curve" smooth="yes"/>
      <point x="39" y="-187"/>
      <point x="130" y="-239"/>
    </contour>
    <contour>
      <point x="279" y="213" type="curve" smooth="yes"/>
      <point x="398" y="213"/>
      <point x="479" y="277"/>
      <point x="479" y="371" type="curve" smooth="yes"/>
      <point x="479" y="465"/>
      <point x="398" y="529"/>
      <point x="277" y="529" type="curve" smooth="yes"/>
      <point x="157" y="529"/>
      <point x="77" y="466"/>
      <point x="77" y="371" type="curve" smooth="yes"/>
      <point x="77" y="276"/>
      <point x="158" y="213"/>
    </contour>
    <contour>
      <point x="279" y="214" type="curve" smooth="yes"/>
      <point x="210" y="214"/>
      <point x="174" y="269"/>
      <point x="174" y="371" type="curve" smooth="yes"/>
      <point x="174" y="474"/>
      <point x="210" y="528"/>
      <point x="279" y="528" type="curve" smooth="yes"/>
      <point x="346" y="528"/>
      <point x="382" y="473"/>
      <point x="382" y="371" type="curve" smooth="yes"/>
      <point x="382" y="269"/>
      <point x="346" y="214"/>
    </contour>
    <contour>
      <point x="350" y="513" type="line"/>
      <point x="617" y="513" type="line"/>
      <point x="617" y="514" type="line"/>
      <point x="348" y="514" type="line"/>
    </contour>
  </outline>
</glyph>
<glyph name="k" format="2">
  <advance width="651"/>
  <unicode hex="006B"/>
  <anchor x="326" y="0" name="bottom"/>
  <anchor x="315" y="758" name="top"/>
  <outline>
    <contour>
      <point x="27" y="0" type="line"/>
      <point x="53" y="1"/>
      <point x="114" y="4"/>
      <point x="166" y="4" type="curve" smooth="yes"/>
      <point x="219" y="4"/>
      <point x="281" y="1"/>
      <point x="307" y="0" type="curve"/>
      <point x="307" y="1" type="line"/>
      <point x="239" y="3"/>
      <point x="212" y="17"/>
      <point x="212" y="73" type="curve" smooth="yes"/>
      <point x="212" y="784" type="line"/>
      <point x="180" y="775"/>
      <point x="142" y="770"/>
      <point x="100" y="770" type="curve" smooth="yes"/>
      <point x="77" y="770"/>
      <point x="50" y="771"/>
      <point x="27" y="773" type="curve"/>
      <point x="27" y="772" type="line"/>
      <point x="99" y="766"/>
      <point x="122" y="745"/>
      <point x="122" y="684" type="curve" smooth="yes"/>
      <point x="122" y="73" type="line" smooth="yes"/>
      <point x="122" y="17"/>
      <point x="96" y="3"/>
      <point x="27" y="1" type="curve"/>
    </contour>
    <contour>
      <point x="494" y="0" type="curve"/>
      <point x="515" y="1"/>
      <point x="537" y="2"/>
      <point x="562" y="2" type="curve" smooth="yes"/>
      <point x="591" y="2"/>
      <point x="624" y="1"/>
      <point x="677" y="0" type="curve"/>
      <point x="677" y="1" type="line"/>
      <point x="626" y="7"/>
      <point x="609" y="19"/>
      <point x="559" y="97" type="curve" smooth="yes"/>
      <point x="493" y="201" type="line" smooth="yes"/>
      <point x="450" y="269"/>
      <point x="421" y="297"/>
      <point x="377" y="311" type="curve"/>
      <point x="362" y="292" type="line"/>
      <point x="476" y="412" type="line" smooth="yes"/>
      <point x="541" y="480"/>
      <point x="569" y="498"/>
      <point x="632" y="513" type="curve"/>
      <point x="632" y="514" type="line"/>
      <point x="598" y="512"/>
      <point x="555" y="511"/>
      <point x="502" y="511" type="curve" smooth="yes"/>
      <point x="439" y="511"/>
      <point x="391" y="512"/>
      <point x="360" y="514" type="curve"/>
      <point x="360" y="513" type="line"/>
      <point x="489" y="507"/>
      <point x="517" y="457"/>
      <point x="445" y="381" type="curve" smooth="yes"/>
      <point x="405" y="339" type="line" smooth="yes"/>
      <point x="363" y="294"/>
      <point x="325" y="278"/>
      <point x="269" y="278" type="curve" smooth="yes"/>
      <point x="205" y="278" type="line"/>
      <point x="205" y="277" type="line"/>
      <point x="254" y="277" type="line" smooth="yes"/>
      <point x="322" y="277"/>
      <point x="352" y="259"/>
      <point x="395" y="191" type="curve" smooth="yes"/>
      <point x="469" y="73" type="line" smooth="yes"/>
      <point x="485" y="48"/>
      <point x="493" y="26"/>
    </contour>
    <component base="_LC-baseline-normal-narrow"/>
    <component base="_LC-ascender-left-inserif" xOffset="6"/>
    <component base="_LC-k-legs" xOffset="259"/>
  </outline>
</glyph>
<glyph name="l" format="2">
  <advance width="342"/>
  <unicode hex="006C"/>
  <anchor x="131" y="256" name="#entry"/>
  <anchor x="221" y="256" name="#exit"/>
  <anchor x="-153" y="0" name="%entry"/>
  <anchor x="131" y="0" name="%exit"/>
  <anchor x="0" y="0" name="^entry"/>
  <anchor x="286" y="0" name="^exit"/>
  <anchor x="176" y="0" name="bottom"/>
  <anchor x="176" y="354" name="center"/>
  <anchor x="272" y="512" name="right"/>
  <anchor x="131" y="256" name="stem"/>
  <anchor x="176" y="773" name="top"/>
  <anchor x="284" y="773" name="topright"/>
  <outline>
    <contour>
      <point x="176" y="3" type="curve"/>
      <point x="176" y="3" type="line"/>
      <point x="176" y="3" type="line"/>
      <point x="221" y="3"/>
      <point x="264" y="1"/>
      <point x="316" y="0" type="curve"/>
      <point x="316" y="1" type="line"/>
      <point x="296" y="2" type="line"/>
      <point x="243" y="5"/>
      <point x="221" y="23"/>
      <point x="221" y="73" type="curve"/>
      <point x="221" y="256" type="line"/>
      <point x="131" y="256" type="line"/>
      <point x="131" y="73" type="line"/>
      <point x="131" y="23"/>
      <point x="109" y="5"/>
      <point x="56" y="2" type="curve"/>
      <point x="36" y="1" type="line"/>
      <point x="36" y="0" type="line"/>
      <point x="88" y="1"/>
      <point x="131" y="3"/>
    </contour>
    <component base="_LC-ascender-left-inserif"/>
  </outline>
</glyph>
<glyph name="m" format="2">
  <advance width="1087"/>
  <unicode hex="006D"/>
  <anchor x="131" y="256" name="#entry"/>
  <anchor x="221" y="256" name="#exit"/>
  <anchor x="-153" y="0" name="%entry"/>
  <anchor x="131" y="0" name="%exit"/>
  <anchor x="0" y="0" name="^entry"/>
  <anchor x="336" y="0" name="^exit"/>
  <anchor x="544" y="0" name="bottom"/>
  <anchor x="221" y="256" name="reversedExit"/>
  <anchor x="131" y="256" name="stem"/>
  <anchor x="544" y="512" name="top"/>
  <anchor x="221" y="514" name="topright"/>
  <outline>
    <contour>
      <point x="176" y="3" type="curve"/>
      <point x="176" y="3" type="line"/>
      <point x="176" y="3" type="line"/>
      <point x="221" y="3"/>
      <point x="264" y="1"/>
      <point x="316" y="0" type="curve"/>
      <point x="316" y="1" type="line"/>
      <point x="296" y="2" type="line"/>
      <point x="243" y="5"/>
      <point x="221" y="23"/>
      <point x="221" y="73" type="curve"/>
      <point x="221" y="256" type="line"/>
      <point x="131" y="256" type="line"/>
      <point x="131" y="73" type="line"/>
      <point x="131" y="23"/>
      <point x="109" y="5"/>
      <point x="56" y="2" type="curve"/>
      <point x="36" y="1" type="line"/>
      <point x="36" y="0" type="line"/>
      <point x="88" y="1"/>
      <point x="131" y="3"/>
    </contour>
    <contour>
      <point x="131" y="256" type="line"/>
      <point x="221" y="256" type="line"/>
      <point x="221" y="514" type="line"/>
      <point x="221" y="526" type="line"/>
      <point x="189" y="516"/>
      <point x="147" y="512"/>
      <point x="100" y="512" type="curve"/>
      <point x="82" y="512"/>
      <point x="71" y="512"/>
      <point x="36" y="514" type="curve"/>
      <point x="36" y="513" type="line"/>
      <point x="47" y="512" type="line"/>
      <point x="111" y="506"/>
      <point x="131" y="486"/>
      <point x="131" y="431" type="curve"/>
    </contour>
    <contour>
      <point x="499" y="256" type="line"/>
      <point x="589" y="256" type="line"/>
      <point x="589" y="335" type="line" smooth="yes"/>
      <point x="589" y="459"/>
      <point x="525" y="529"/>
      <point x="413" y="529" type="curve" smooth="yes"/>
      <point x="312" y="529"/>
      <point x="240" y="471"/>
      <point x="191" y="351" type="curve"/>
      <point x="192" y="350" type="line"/>
      <point x="241" y="463"/>
      <point x="300" y="514"/>
      <point x="381" y="514" type="curve" smooth="yes"/>
      <point x="460" y="514"/>
      <point x="499" y="467"/>
      <point x="499" y="372" type="curve" smooth="yes"/>
    </contour>
    <contour>
      <point x="499" y="0" type="line"/>
      <point x="499" y="0" type="line"/>
      <point x="519" y="2"/>
      <point x="541" y="3"/>
      <point x="561" y="3" type="curve"/>
      <point x="581" y="3"/>
      <point x="638" y="1"/>
      <point x="684" y="0" type="curve"/>
      <point x="684" y="1" type="line"/>
      <point x="664" y="2" type="line"/>
      <point x="611" y="5"/>
      <point x="589" y="23"/>
      <point x="589" y="73" type="curve"/>
      <point x="589" y="256" type="line"/>
      <point x="499" y="256" type="line"/>
    </contour>
    <contour>
      <point x="867" y="256" type="line"/>
      <point x="957" y="256" type="line"/>
      <point x="957" y="335" type="line" smooth="yes"/>
      <point x="957" y="459"/>
      <point x="893" y="529"/>
      <point x="781" y="529" type="curve" smooth="yes"/>
      <point x="676" y="529"/>
      <point x="605" y="477"/>
      <point x="550" y="368" type="curve"/>
      <point x="551" y="367" type="line"/>
      <point x="605" y="468"/>
      <point x="664" y="514"/>
      <point x="749" y="514" type="curve" smooth="yes"/>
      <point x="828" y="514"/>
      <point x="867" y="467"/>
      <point x="867" y="372" type="curve" smooth="yes"/>
    </contour>
    <contour>
      <point x="866" y="0" type="line"/>
      <point x="866" y="0" type="line"/>
      <point x="886" y="2"/>
      <point x="908" y="3"/>
      <point x="928" y="3" type="curve"/>
      <point x="948" y="3"/>
      <point x="1005" y="1"/>
      <point x="1051" y="0" type="curve"/>
      <point x="1051" y="1" type="line"/>
      <point x="1031" y="2" type="line"/>
      <point x="978" y="5"/>
      <point x="956" y="23"/>
      <point x="956" y="73" type="curve"/>
      <point x="956" y="256" type="line"/>
      <point x="866" y="256" type="line"/>
    </contour>
  </outline>
</glyph>
<glyph name="o" format="2">
  <advance width="679"/>
  <unicode hex="006F"/>
  <anchor x="-129" y="256" name="#entry"/>
  <anchor x="339" y="0" name="bottom"/>
  <anchor x="339" y="257" name="center"/>
  <anchor x="446" y="0" name="ogonek"/>
  <anchor x="339" y="512" name="top"/>
  <anchor x="339" y="492" name="top_low_1"/>
  <anchor x="339" y="472" name="top_low_2"/>
  <anchor x="339" y="452" name="top_low_3"/>
  <anchor x="339" y="432" name="top_low_4"/>
  <anchor x="606" y="512" name="topright"/>
  <outline>
    <contour>
      <point x="339" y="-14" type="curve" smooth="yes"/>
      <point x="496" y="-14"/>
      <point x="606" y="86"/>
      <point x="606" y="257" type="curve" smooth="yes"/>
      <point x="606" y="428"/>
      <point x="496" y="529"/>
      <point x="339" y="529" type="curve" smooth="yes"/>
      <point x="183" y="529"/>
      <point x="73" y="428"/>
      <point x="73" y="257" type="curve" smooth="yes"/>
      <point x="73" y="85"/>
      <point x="183" y="-14"/>
    </contour>
    <contour>
      <point x="339" y="-13" type="curve" smooth="yes"/>
      <point x="241" y="-13"/>
      <point x="171" y="86"/>
      <point x="171" y="257" type="curve" smooth="yes"/>
      <point x="171" y="427"/>
      <point x="241" y="528"/>
      <point x="339" y="528" type="curve" smooth="yes"/>
      <point x="438" y="528"/>
      <point x="508" y="427"/>
      <point x="508" y="257" type="curve" smooth="yes"/>
      <point x="508" y="87"/>
      <point x="438" y="-13"/>
    </contour>
  </outline>
</glyph>
<glyph name="q" format="2">
  <advance width="713"/>
  <unicode hex="0071"/>
  <anchor x="492" y="256" name="#entry"/>
  <anchor x="492" y="256" name="#exit"/>
  <anchor x="381" y="0" name="bottom"/>
  <anchor x="582" y="0" name="bottom-right"/>
  <anchor x="341" y="257" name="center"/>
  <anchor x="582" y="0" name="lower-right"/>
  <outline>
    <contour>
      <point x="307" y="-14" type="curve" smooth="yes"/>
      <point x="400" y="-14"/>
      <point x="476" y="36"/>
      <point x="507" y="120" type="curve"/>
      <point x="506" y="120" type="line"/>
      <point x="478" y="46"/>
      <point x="412" y="1"/>
      <point x="351" y="1" type="curve" smooth="yes"/>
      <point x="241" y="1"/>
      <point x="171" y="103"/>
      <point x="171" y="266" type="curve" smooth="yes"/>
      <point x="171" y="425"/>
      <point x="237" y="517"/>
      <point x="351" y="517" type="curve" smooth="yes"/>
      <point x="422" y="517"/>
      <point x="482" y="478"/>
      <point x="498" y="423" type="curve"/>
      <point x="498" y="424" type="line" smooth="yes"/>
      <point x="484" y="482"/>
      <point x="412" y="529"/>
      <point x="326" y="529" type="curve" smooth="yes"/>
      <point x="177" y="529"/>
      <point x="73" y="417"/>
      <point x="73" y="255" type="curve" smooth="yes"/>
      <point x="73" y="98"/>
      <point x="171" y="-14"/>
    </contour>
    <contour>
      <point x="537" y="-228" type="line"/>
      <point x="582" y="-228"/>
      <point x="625" y="-230"/>
      <point x="677" y="-231" type="curve"/>
      <point x="677" y="-230" type="line"/>
      <point x="657" y="-229" type="line"/>
      <point x="604" y="-226"/>
      <point x="582" y="-208"/>
      <point x="582" y="-158" type="curve"/>
      <point x="582" y="256" type="line"/>
      <point x="492" y="256" type="line"/>
      <point x="492" y="-158" type="line"/>
      <point x="492" y="-208"/>
      <point x="469" y="-226"/>
      <point x="407" y="-228" type="curve"/>
      <point x="356" y="-230" type="line"/>
      <point x="356" y="-231" type="line"/>
      <point x="424" y="-230"/>
      <point x="479" y="-228"/>
      <point x="537" y="-228" type="curve"/>
      <point x="537" y="-228" type="line"/>
    </contour>
    <component base="_LC-xheight-right-instroke" xOffset="292"/>
  </outline>
</glyph>
<glyph name="r" format="2">
  <advance width="536"/>
  <unicode hex="0072"/>
  <anchor x="268" y="0" name="bottom"/>
  <anchor x="268" y="512" name="top"/>
  <outline>
    <contour>
      <point x="176" y="3" type="curve"/>
      <point x="176" y="3" type="line"/>
      <point x="176" y="3" type="line"/>
      <point x="226" y="3"/>
      <point x="274" y="1"/>
      <point x="332" y="0" type="curve"/>
      <point x="332" y="1" type="line"/>
      <point x="300" y="2" type="line"/>
      <point x="243" y="5"/>
      <point x="221" y="23"/>
      <point x="221" y="73" type="curve"/>
      <point x="221" y="256" type="line"/>
      <point x="131" y="256" type="line"/>
      <point x="131" y="73" type="line"/>
      <point x="131" y="23"/>
      <point x="109" y="5"/>
      <point x="56" y="2" type="curve"/>
      <point x="36" y="1" type="line"/>
      <point x="36" y="0" type="line"/>
      <point x="88" y="1"/>
      <point x="131" y="3"/>
    </contour>
    <contour>
      <point x="131" y="256" type="line"/>
      <point x="221" y="256" type="line"/>
      <point x="221" y="514" type="line"/>
      <point x="221" y="526" type="line"/>
      <point x="189" y="516"/>
      <point x="147" y="512"/>
      <point x="100" y="512" type="curve"/>
      <point x="82" y="512"/>
      <point x="71" y="512"/>
      <point x="36" y="514" type="curve"/>
      <point x="36" y="513" type="line"/>
      <point x="47" y="512" type="line"/>
      <point x="111" y="506"/>
      <point x="131" y="486"/>
      <point x="131" y="431" type="curve"/>
    </contour>
    <component base="_LC-r-arm" xOffset="190"/>
  </outline>
</glyph>
<glyph name="s" format="2">
  <advance width="555"/>
  <unicode hex="0073"/>
  <anchor x="460" y="0" name="^exit"/>
  <anchor x="284" y="0" name="bottom"/>
  <anchor x="280" y="257" name="center"/>
  <anchor x="271" y="512" name="top"/>
  <anchor x="271" y="492" name="top_low_1"/>
  <anchor x="271" y="472" name="top_low_2"/>
  <anchor x="271" y="452" name="top_low_3"/>
  <anchor x="271" y="432" name="top_low_4"/>
  <outline>
    <contour>
      <point x="291" y="-14" type="curve" smooth="yes"/>
      <point x="411" y="-14"/>
      <point x="485" y="47"/>
      <point x="485" y="148" type="curve" smooth="yes"/>
      <point x="485" y="227"/>
      <point x="436" y="272"/>
      <point x="315" y="304" type="curve" smooth="yes"/>
      <point x="188" y="338"/>
      <point x="148" y="368"/>
      <point x="148" y="428" type="curve" smooth="yes"/>
      <point x="148" y="490"/>
      <point x="191" y="527"/>
      <point x="263" y="527" type="curve" smooth="yes"/>
      <point x="358" y="527"/>
      <point x="434" y="460"/>
      <point x="455" y="358" type="curve"/>
      <point x="456" y="358" type="line"/>
      <point x="456" y="453"/>
      <point x="457" y="495"/>
      <point x="460" y="529" type="curve"/>
      <point x="459" y="529" type="line"/>
      <point x="451" y="505"/>
      <point x="440" y="496"/>
      <point x="420" y="496" type="curve" smooth="yes"/>
      <point x="382" y="496"/>
      <point x="324" y="529"/>
      <point x="250" y="529" type="curve" smooth="yes"/>
      <point x="151" y="529"/>
      <point x="86" y="470"/>
      <point x="86" y="381" type="curve" smooth="yes"/>
      <point x="86" y="304"/>
      <point x="138" y="256"/>
      <point x="254" y="228" type="curve" smooth="yes"/>
      <point x="374" y="199"/>
      <point x="423" y="164"/>
      <point x="423" y="99" type="curve" smooth="yes"/>
      <point x="423" y="28"/>
      <point x="373" y="-12"/>
      <point x="284" y="-12" type="curve" smooth="yes"/>
      <point x="165" y="-12"/>
      <point x="94" y="58"/>
      <point x="73" y="197" type="curve"/>
      <point x="72" y="197" type="line"/>
      <point x="72" y="65"/>
      <point x="71" y="22"/>
      <point x="67" y="-14" type="curve"/>
      <point x="68" y="-14" type="line"/>
      <point x="78" y="8"/>
      <point x="92" y="19"/>
      <point x="114" y="19" type="curve" smooth="yes"/>
      <point x="152" y="19"/>
      <point x="203" y="-14"/>
    </contour>
  </outline>
</glyph>
<glyph name="u" format="2">
  <advance width="717"/>
  <unicode hex="0075"/>
  <anchor x="131" y="256" name="#entry"/>
  <anchor x="221" y="256" name="#exit"/>
  <anchor x="190" y="0" name="%entry"/>
  <anchor x="535" y="512" name="%exit"/>
  <anchor x="16" y="512" name="^entry"/>
  <anchor x="352" y="512" name="^exit"/>
  <anchor x="390" y="0" name="bottom"/>
  <anchor x="357" y="270" name="center"/>
  <anchor x="504" y="256" name="reversedExit"/>
  <anchor x="221" y="256" name="stem"/>
  <anchor x="345" y="512" name="top"/>
  <anchor x="345" y="492" name="top_low_1"/>
  <anchor x="345" y="472" name="top_low_2"/>
  <anchor x="345" y="452" name="top_low_3"/>
  <anchor x="594" y="512" name="topright"/>
  <outline>
    <contour>
      <point x="221" y="512" type="line"/>
      <point x="221" y="524" type="line"/>
      <point x="189" y="514"/>
      <point x="147" y="510"/>
      <point x="100" y="510" type="curve"/>
      <point x="82" y="510"/>
      <point x="71" y="510"/>
      <point x="36" y="512" type="curve"/>
      <point x="36" y="511" type="line"/>
      <point x="47" y="510" type="line"/>
      <point x="111" y="504"/>
      <point x="131" y="484"/>
      <point x="131" y="429" type="curve"/>
      <point x="131" y="256" type="line"/>
      <point x="221" y="256" type="line"/>
    </contour>
    <contour>
      <point x="222" y="256" type="line"/>
      <point x="132" y="256" type="line"/>
      <point x="132" y="180" type="line" smooth="yes"/>
      <point x="132" y="55"/>
      <point x="197" y="-17"/>
      <point x="310" y="-17" type="curve" smooth="yes"/>
      <point x="412" y="-17"/>
      <point x="484" y="41"/>
      <point x="534" y="161" type="curve"/>
      <point x="533" y="162" type="line"/>
      <point x="483" y="49"/>
      <point x="424" y="-2"/>
      <point x="341" y="-2" type="curve" smooth="yes"/>
      <point x="261" y="-2"/>
      <point x="222" y="44"/>
      <point x="222" y="139" type="curve" smooth="yes"/>
    </contour>
    <contour>
      <point x="504" y="0" type="line"/>
      <point x="504" y="-12" type="line"/>
      <point x="536" y="-2"/>
      <point x="578" y="2"/>
      <point x="625" y="2" type="curve"/>
      <point x="643" y="2"/>
      <point x="654" y="2"/>
      <point x="689" y="0" type="curve"/>
      <point x="689" y="1" type="line"/>
      <point x="678" y="2" type="line"/>
      <point x="614" y="8"/>
      <point x="594" y="28"/>
      <point x="594" y="83" type="curve"/>
      <point x="594" y="256" type="line"/>
      <point x="504" y="256" type="line"/>
    </contour>
    <contour>
      <point x="594" y="512" type="line"/>
      <point x="594" y="524" type="line"/>
      <point x="562" y="514"/>
      <point x="520" y="510"/>
      <point x="473" y="510" type="curve"/>
      <point x="455" y="510"/>
      <point x="444" y="510"/>
      <point x="409" y="512" type="curve"/>
      <point x="409" y="511" type="line"/>
      <point x="420" y="510" type="line"/>
      <point x="484" y="504"/>
      <point x="504" y="484"/>
      <point x="504" y="429" type="curve"/>
      <point x="504" y="256" type="line"/>
      <point x="594" y="256" type="line"/>
    </contour>
  </outline>
</glyph>
<glyph name="v" format="2">
  <advance width="638"/>
  <unicode hex="0076"/>
  <anchor x="305" y="0" name="bottom"/>
  <anchor x="305" y="512" name="top"/>
  <outline>
    <contour>
      <point x="308" y="-15" type="line"/>
      <point x="309" y="-15" type="line"/>
      <point x="470" y="335" type="line"/>
      <point x="533" y="469"/>
      <point x="558" y="494"/>
      <point x="629" y="509" type="curve"/>
      <point x="638" y="511" type="line"/>
      <point x="638" y="512" type="line"/>
      <point x="618" y="511"/>
      <point x="587" y="509"/>
      <point x="537" y="509" type="curve"/>
      <point x="465" y="509"/>
      <point x="402" y="510"/>
      <point x="368" y="512" type="curve"/>
      <point x="368" y="511" type="line"/>
      <point x="386" y="508" type="line"/>
      <point x="490" y="490"/>
      <point x="518" y="442"/>
      <point x="461" y="319" type="curve"/>
      <point x="351" y="79" type="line"/>
      <point x="357" y="91" type="line"/>
      <point x="190" y="440" type="line"/>
      <point x="178" y="463"/>
      <point x="171" y="486"/>
      <point x="170" y="512" type="curve"/>
      <point x="145" y="510"/>
      <point x="127" y="510"/>
      <point x="106" y="510" type="curve"/>
      <point x="73" y="510"/>
      <point x="46" y="511"/>
      <point x="0" y="512" type="curve"/>
      <point x="0" y="511" type="line"/>
      <point x="38" y="509"/>
      <point x="67" y="492"/>
      <point x="83" y="457" type="curve"/>
    </contour>
  </outline>
</glyph>
<glyph name="w" format="2">
  <advance width="892"/>
  <unicode hex="0077"/>
  <anchor x="448" y="0" name="bottom"/>
  <anchor x="482" y="512" name="top"/>
  <outline>
    <contour>
      <point x="280" y="-15" type="line"/>
      <point x="281" y="-15" type="line"/>
      <point x="490" y="518" type="line"/>
      <point x="489" y="519" type="line"/>
      <point x="323" y="96" type="line"/>
      <point x="328" y="105" type="line"/>
      <point x="187" y="439" type="line"/>
      <point x="176" y="462"/>
      <point x="171" y="486"/>
      <point x="170" y="512" type="curve"/>
      <point x="145" y="510"/>
      <point x="127" y="510"/>
      <point x="106" y="510" type="curve"/>
      <point x="73" y="510"/>
      <point x="46" y="511"/>
      <point x="0" y="512" type="curve"/>
      <point x="0" y="511" type="line"/>
      <point x="38" y="509"/>
      <point x="66" y="492"/>
      <point x="81" y="456" type="curve"/>
    </contour>
    <contour>
      <point x="647" y="-15" type="line"/>
      <point x="648" y="-15" type="line"/>
      <point x="797" y="385" type="line"/>
      <point x="826" y="460"/>
      <point x="854" y="498"/>
      <point x="892" y="511" type="curve"/>
      <point x="892" y="512" type="line"/>
      <point x="878" y="511"/>
      <point x="864" y="511"/>
      <point x="846" y="511" type="curve"/>
      <point x="833" y="511"/>
      <point x="822" y="511"/>
      <point x="808" y="512" type="curve"/>
      <point x="815" y="471"/>
      <point x="808" y="419"/>
      <point x="786" y="359" type="curve"/>
      <point x="685" y="88" type="line"/>
      <point x="690" y="99" type="line"/>
      <point x="490" y="519" type="line"/>
      <point x="489" y="519" type="line"/>
      <point x="444" y="405" type="line"/>
    </contour>
  </outline>
</glyph>
<glyph name="x" format="2">
  <advance width="618"/>
  <unicode hex="0078"/>
  <anchor x="319" y="0" name="bottom"/>
  <anchor x="612" y="0" name="bottomright"/>
  <anchor x="326" y="512" name="top"/>
  <outline>
    <contour>
      <point x="432" y="0" type="curve"/>
      <point x="453" y="1"/>
      <point x="475" y="2"/>
      <point x="496" y="2" type="curve" smooth="yes"/>
      <point x="532" y="2"/>
      <point x="562" y="1"/>
      <point x="612" y="0" type="curve"/>
      <point x="612" y="1" type="line"/>
      <point x="574" y="3"/>
      <point x="543" y="20"/>
      <point x="515" y="58" type="curve" smooth="yes"/>
      <point x="229" y="441" type="line" smooth="yes"/>
      <point x="209" y="467"/>
      <point x="197" y="488"/>
      <point x="196" y="514" type="curve"/>
      <point x="175" y="513"/>
      <point x="153" y="512"/>
      <point x="132" y="512" type="curve" smooth="yes"/>
      <point x="96" y="512"/>
      <point x="66" y="513"/>
      <point x="16" y="514" type="curve"/>
      <point x="16" y="513" type="line"/>
      <point x="54" y="511"/>
      <point x="84" y="494"/>
      <point x="113" y="456" type="curve" smooth="yes"/>
      <point x="399" y="73" type="line" smooth="yes"/>
      <point x="419" y="47"/>
      <point x="431" y="26"/>
    </contour>
    <contour>
      <point x="8" y="0" type="line"/>
      <point x="64" y="2"/>
      <point x="95" y="3"/>
      <point x="127" y="3" type="curve" smooth="yes"/>
      <point x="173" y="3"/>
      <point x="219" y="2"/>
      <point x="248" y="0" type="curve"/>
      <point x="248" y="1" type="line"/>
      <point x="180" y="9"/>
      <point x="134" y="70"/>
      <point x="225" y="175" type="curve" smooth="yes"/>
      <point x="300" y="261" type="line"/>
      <point x="299" y="262" type="line"/>
      <point x="192" y="142" type="line" smooth="yes"/>
      <point x="107" y="47"/>
      <point x="76" y="20"/>
      <point x="8" y="1" type="curve"/>
    </contour>
    <contour>
      <point x="327" y="264" type="line"/>
      <point x="436" y="395" type="line" smooth="yes"/>
      <point x="507" y="480"/>
      <point x="540" y="503"/>
      <point x="575" y="513" type="curve"/>
      <point x="575" y="514" type="line"/>
      <point x="555" y="512"/>
      <point x="526" y="511"/>
      <point x="486" y="511" type="curve" smooth="yes"/>
      <point x="449" y="511"/>
      <point x="434" y="512"/>
      <point x="393" y="514" type="curve"/>
      <point x="393" y="513" type="line"/>
      <point x="441" y="507"/>
      <point x="476" y="449"/>
      <point x="397" y="352" type="curve" smooth="yes"/>
      <point x="326" y="265" type="line"/>
    </contour>
  </outline>
</glyph>
<glyph name="y" format="2">
  <advance width="618"/>
  <unicode hex="0079"/>
  <anchor x="-148" y="256" name="#entry"/>
  <anchor x="385" y="0" name="bottom"/>
  <anchor x="339" y="257" name="center"/>
  <anchor x="307" y="512" name="top"/>
  <outline>
    <contour>
      <point x="303" y="-17" type="line"/>
      <point x="304" y="-17" type="line"/>
      <point x="455" y="333" type="line"/>
      <point x="514" y="469"/>
      <point x="538" y="494"/>
      <point x="609" y="509" type="curve"/>
      <point x="618" y="511" type="line"/>
      <point x="618" y="512" type="line"/>
      <point x="598" y="511"/>
      <point x="567" y="509"/>
      <point x="517" y="509" type="curve"/>
      <point x="445" y="509"/>
      <point x="382" y="510"/>
      <point x="348" y="512" type="curve"/>
      <point x="348" y="511" type="line"/>
      <point x="366" y="508" type="line"/>
      <point x="470" y="490"/>
      <point x="500" y="441"/>
      <point x="446" y="317" type="curve"/>
      <point x="341" y="73" type="line"/>
      <point x="351" y="93" type="line"/>
      <point x="189" y="440" type="line"/>
      <point x="178" y="463"/>
      <point x="171" y="486"/>
      <point x="170" y="512" type="curve"/>
      <point x="145" y="510"/>
      <point x="127" y="510"/>
      <point x="106" y="510" type="curve"/>
      <point x="73" y="510"/>
      <point x="46" y="511"/>
      <point x="0" y="512" type="curve"/>
      <point x="0" y="511" type="line"/>
      <point x="38" y="509"/>
      <point x="67" y="492"/>
      <point x="83" y="457" type="curve"/>
    </contour>
    <contour>
      <point x="120" y="-239" type="curve" smooth="yes"/>
      <point x="181" y="-239"/>
      <point x="221" y="-209"/>
      <point x="250" y="-142" type="curve" smooth="yes"/>
      <point x="312" y="2" type="line"/>
      <point x="311" y="3" type="line"/>
      <point x="249" y="-141" type="line" smooth="yes"/>
      <point x="223" y="-202"/>
      <point x="184" y="-233"/>
      <point x="134" y="-233" type="curve" smooth="yes"/>
      <point x="121" y="-233"/>
      <point x="113" y="-227"/>
      <point x="113" y="-216" type="curve" smooth="yes"/>
      <point x="113" y="-192"/>
      <point x="144" y="-170"/>
      <point x="144" y="-138" type="curve" smooth="yes"/>
      <point x="144" y="-115"/>
      <point x="124" y="-100"/>
      <point x="94" y="-100" type="curve" smooth="yes"/>
      <point x="53" y="-100"/>
      <point x="26" y="-125"/>
      <point x="26" y="-163" type="curve" smooth="yes"/>
      <point x="26" y="-210"/>
      <point x="62" y="-239"/>
    </contour>
  </outline>
</glyph>
<glyph name="z" format="2">
  <advance width="572"/>
  <unicode hex="007A"/>
  <anchor x="291" y="0" name="bottom"/>
  <anchor x="293" y="269" name="center"/>
  <anchor x="292" y="512" name="top"/>
  <outline>
    <contour>
      <point x="62" y="0" type="line"/>
      <point x="119" y="2"/>
      <point x="180" y="3"/>
      <point x="239" y="3" type="curve" smooth="yes"/>
      <point x="231" y="3" type="line"/>
      <point x="413" y="3" type="line"/>
      <point x="445" y="3"/>
      <point x="478" y="3"/>
      <point x="510" y="1" type="curve"/>
      <point x="507" y="55"/>
      <point x="511" y="116"/>
      <point x="518" y="186" type="curve"/>
      <point x="517" y="186" type="line"/>
      <point x="454" y="40"/>
      <point x="403" y="3"/>
      <point x="231" y="4" type="curve"/>
      <point x="162" y="4" type="line"/>
      <point x="512" y="511" type="line"/>
      <point x="512" y="512" type="line"/>
      <point x="455" y="511"/>
      <point x="399" y="509"/>
      <point x="335" y="509" type="curve" smooth="yes"/>
      <point x="315" y="509" type="line"/>
      <point x="161" y="509" type="line"/>
      <point x="129" y="509"/>
      <point x="96" y="509"/>
      <point x="64" y="511" type="curve"/>
      <point x="67" y="463"/>
      <point x="63" y="408"/>
      <point x="56" y="346" type="curve"/>
      <point x="57" y="346" type="line"/>
      <point x="120" y="476"/>
      <point x="171" y="508"/>
      <point x="315" y="508" type="curve"/>
      <point x="412" y="508" type="line"/>
      <point x="62" y="1" type="line"/>
    </contour>
  </outline>
</glyph>
<glyph name="braceleft" format="2">
  <advance width="418"/>
  <unicode hex="007B"/>
  <outline>
    <contour>
      <point x="318" y="-191" type="curve"/>
      <point x="318" y="-190" type="line"/>
      <point x="235" y="-185"/>
      <point x="230" y="-181"/>
      <point x="224" y="47" type="curve" smooth="yes"/>
      <point x="219" y="222"/>
      <point x="165" y="293"/>
      <point x="40" y="299" type="curve"/>
      <point x="166" y="305"/>
      <point x="213" y="380"/>
      <point x="224" y="551" type="curve" smooth="yes"/>
      <point x="238" y="771"/>
      <point x="251" y="777"/>
      <point x="318" y="781" type="curve"/>
      <point x="318" y="782" type="line"/>
      <point x="174" y="782"/>
      <point x="138" y="738"/>
      <point x="128" y="551" type="curve" smooth="yes"/>
      <point x="117" y="353"/>
      <point x="113" y="300"/>
      <point x="39" y="300" type="curve" smooth="yes"/>
      <point x="33" y="300" type="line"/>
      <point x="33" y="298" type="line"/>
      <point x="39" y="298" type="line" smooth="yes"/>
      <point x="103" y="298"/>
      <point x="117" y="258"/>
      <point x="128" y="47" type="curve" smooth="yes"/>
      <point x="138" y="-148"/>
      <point x="172" y="-191"/>
    </contour>
  </outline>
</glyph>
<glyph name="bar" format="2">
  <advance width="262"/>
  <unicode hex="007C"/>
  <outline>
    <contour>
      <point x="131" y="-231" type="line"/>
      <point x="132" y="-231" type="line"/>
      <point x="132" y="858" type="line"/>
      <point x="131" y="858" type="line"/>
    </contour>
  </outline>
</glyph>
<glyph name="asciitilde" format="2">
  <advance width="775"/>
  <unicode hex="007E"/>
  <anchor x="388" y="262" name="_center"/>
  <outline>
    <contour>
      <point x="517" y="200" type="curve" smooth="yes"/>
      <point x="595" y="200"/>
      <point x="649" y="235"/>
      <point x="682" y="326" type="curve"/>
      <point x="681" y="326" type="line"/>
      <point x="646" y="269"/>
      <point x="607" y="253"/>
      <point x="552" y="253" type="curve" smooth="yes"/>
      <point x="455" y="253"/>
      <point x="374" y="330"/>
      <point x="259" y="330" type="curve" smooth="yes"/>
      <point x="180" y="330"/>
      <point x="115" y="294"/>
      <point x="93" y="204" type="curve"/>
      <point x="94" y="204" type="line"/>
      <point x="120" y="261"/>
      <point x="169" y="277"/>
      <point x="223" y="277" type="curve" smooth="yes"/>
      <point x="320" y="277"/>
      <point x="401" y="200"/>
    </contour>
  </outline>
</glyph>
<glyph name="sterling" format="2">
  <advance width="767"/>
  <unicode hex="00A3"/>
  <outline>
    <contour>
      <point x="89" y="357" type="line"/>
      <point x="497" y="357" type="line"/>
      <point x="497" y="358" type="line"/>
      <point x="89" y="358" type="line"/>
    </contour>
    <contour>
      <point x="201" y="93" type="curve"/>
      <point x="202" y="93" type="line"/>
      <point x="290" y="180"/>
      <point x="311" y="235"/>
      <point x="311" y="317" type="curve" smooth="yes"/>
      <point x="311" y="463" type="line" smooth="yes"/>
      <point x="311" y="624"/>
      <point x="377" y="716"/>
      <point x="493" y="716" type="curve" smooth="yes"/>
      <point x="548" y="716"/>
      <point x="584" y="699"/>
      <point x="584" y="672" type="curve" smooth="yes"/>
      <point x="584" y="644"/>
      <point x="549" y="616"/>
      <point x="549" y="585" type="curve" smooth="yes"/>
      <point x="549" y="559"/>
      <point x="570" y="542"/>
      <point x="600" y="542" type="curve" smooth="yes"/>
      <point x="634" y="542"/>
      <point x="659" y="568"/>
      <point x="659" y="602" type="curve" smooth="yes"/>
      <point x="659" y="669"/>
      <point x="571" y="722"/>
      <point x="461" y="722" type="curve" smooth="yes"/>
      <point x="306" y="722"/>
      <point x="218" y="620"/>
      <point x="218" y="440" type="curve" smooth="yes"/>
      <point x="218" y="258" type="line" smooth="yes"/>
      <point x="218" y="160"/>
      <point x="217" y="128"/>
    </contour>
    <contour>
      <point x="78" y="-14" type="curve" smooth="yes"/>
      <point x="118" y="-14"/>
      <point x="144" y="12"/>
      <point x="202" y="93" type="curve"/>
      <point x="200" y="93" type="line"/>
      <point x="286" y="66"/>
      <point x="409" y="-14"/>
      <point x="534" y="-14" type="curve" smooth="yes"/>
      <point x="642" y="-14"/>
      <point x="732" y="52"/>
      <point x="732" y="132" type="curve" smooth="yes"/>
      <point x="732" y="169"/>
      <point x="710" y="192"/>
      <point x="676" y="192" type="curve" smooth="yes"/>
      <point x="644" y="192"/>
      <point x="626" y="172"/>
      <point x="626" y="137" type="curve" smooth="yes"/>
      <point x="626" y="90"/>
      <point x="658" y="53"/>
      <point x="658" y="26" type="curve" smooth="yes"/>
      <point x="658" y="19"/>
      <point x="656" y="17"/>
      <point x="645" y="17" type="curve" smooth="yes"/>
      <point x="580" y="17"/>
      <point x="457" y="94"/>
      <point x="232" y="94" type="curve" smooth="yes"/>
      <point x="101" y="94"/>
      <point x="35" y="71"/>
      <point x="35" y="21" type="curve" smooth="yes"/>
      <point x="35" y="-1"/>
      <point x="53" y="-14"/>
    </contour>
  </outline>
</glyph>
<glyph name="currency" format="2">
  <advance width="535"/>
  <unicode hex="00A4"/>
  <outline>
    <contour>
      <point x="92" y="81" type="line"/>
      <point x="135" y="124" type="line"/>
      <point x="167" y="91"/>
      <point x="214" y="69"/>
      <point x="268" y="69" type="curve" smooth="yes"/>
      <point x="321" y="69"/>
      <point x="371" y="93"/>
      <point x="401" y="125" type="curve"/>
      <point x="445" y="81" type="line"/>
      <point x="446" y="82" type="line"/>
      <point x="402" y="126" type="line"/>
      <point x="436" y="160"/>
      <point x="457" y="205"/>
      <point x="457" y="258" type="curve" smooth="yes"/>
      <point x="457" y="311"/>
      <point x="437" y="356"/>
      <point x="402" y="390" type="curve"/>
      <point x="446" y="436" type="line"/>
      <point x="445" y="437" type="line"/>
      <point x="401" y="391" type="line"/>
      <point x="367" y="428"/>
      <point x="318" y="448"/>
      <point x="268" y="448" type="curve" smooth="yes"/>
      <point x="219" y="448"/>
      <point x="169" y="428"/>
      <point x="134" y="392" type="curve"/>
      <point x="91" y="436" type="line"/>
      <point x="90" y="435" type="line"/>
      <point x="133" y="391" type="line"/>
      <point x="98" y="356"/>
      <point x="78" y="307"/>
      <point x="78" y="258" type="curve" smooth="yes"/>
      <point x="78" y="212"/>
      <point x="95" y="160"/>
      <point x="134" y="125" type="curve"/>
      <point x="91" y="82" type="line"/>
    </contour>
    <contour>
      <point x="268" y="70" type="curve" smooth="yes"/>
      <point x="165" y="70"/>
      <point x="79" y="155"/>
      <point x="79" y="258" type="curve" smooth="yes"/>
      <point x="79" y="360"/>
      <point x="163" y="447"/>
      <point x="268" y="447" type="curve" smooth="yes"/>
      <point x="370" y="447"/>
      <point x="456" y="359"/>
      <point x="456" y="258" type="curve" smooth="yes"/>
      <point x="456" y="155"/>
      <point x="370" y="70"/>
    </contour>
  </outline>
</glyph>
<glyph name="section" format="2">
  <advance width="583"/>
  <unicode hex="00A7"/>
  <outline>
    <contour>
      <point x="389" y="30" type="line"/>
      <point x="476" y="75"/>
      <point x="533" y="136"/>
      <point x="533" y="205" type="curve" smooth="yes"/>
      <point x="533" y="279"/>
      <point x="486" y="334"/>
      <point x="364" y="416" type="curve" smooth="yes"/>
      <point x="218" y="514"/>
      <point x="178" y="550"/>
      <point x="178" y="618" type="curve" smooth="yes"/>
      <point x="178" y="671"/>
      <point x="224" y="719"/>
      <point x="318" y="719" type="curve" smooth="yes"/>
      <point x="374" y="719"/>
      <point x="424" y="698"/>
      <point x="424" y="674" type="curve" smooth="yes"/>
      <point x="424" y="648"/>
      <point x="374" y="622"/>
      <point x="374" y="586" type="curve" smooth="yes"/>
      <point x="374" y="560"/>
      <point x="394" y="542"/>
      <point x="425" y="542" type="curve" smooth="yes"/>
      <point x="464" y="542"/>
      <point x="494" y="572"/>
      <point x="494" y="610" type="curve" smooth="yes"/>
      <point x="494" y="674"/>
      <point x="412" y="722"/>
      <point x="301" y="722" type="curve" smooth="yes"/>
      <point x="184" y="722"/>
      <point x="108" y="663"/>
      <point x="108" y="579" type="curve" smooth="yes"/>
      <point x="108" y="502"/>
      <point x="150" y="456"/>
      <point x="321" y="340" type="curve" smooth="yes"/>
      <point x="436" y="262"/>
      <point x="478" y="221"/>
      <point x="478" y="156" type="curve" smooth="yes"/>
      <point x="478" y="113"/>
      <point x="467" y="74"/>
      <point x="389" y="31" type="curve"/>
    </contour>
    <contour>
      <point x="283" y="-239" type="curve" smooth="yes"/>
      <point x="400" y="-239"/>
      <point x="476" y="-180"/>
      <point x="476" y="-96" type="curve" smooth="yes"/>
      <point x="476" y="-19"/>
      <point x="434" y="27"/>
      <point x="263" y="143" type="curve" smooth="yes"/>
      <point x="148" y="221"/>
      <point x="106" y="262"/>
      <point x="106" y="327" type="curve" smooth="yes"/>
      <point x="106" y="370"/>
      <point x="117" y="409"/>
      <point x="195" y="452" type="curve"/>
      <point x="195" y="453" type="line"/>
      <point x="108" y="408"/>
      <point x="51" y="347"/>
      <point x="51" y="278" type="curve" smooth="yes"/>
      <point x="51" y="204"/>
      <point x="98" y="149"/>
      <point x="220" y="67" type="curve" smooth="yes"/>
      <point x="366" y="-31"/>
      <point x="406" y="-67"/>
      <point x="406" y="-135" type="curve" smooth="yes"/>
      <point x="406" y="-188"/>
      <point x="360" y="-236"/>
      <point x="266" y="-236" type="curve" smooth="yes"/>
      <point x="210" y="-236"/>
      <point x="160" y="-215"/>
      <point x="160" y="-191" type="curve" smooth="yes"/>
      <point x="160" y="-165"/>
      <point x="210" y="-139"/>
      <point x="210" y="-103" type="curve" smooth="yes"/>
      <point x="210" y="-77"/>
      <point x="190" y="-59"/>
      <point x="159" y="-59" type="curve" smooth="yes"/>
      <point x="120" y="-59"/>
      <point x="90" y="-89"/>
      <point x="90" y="-127" type="curve" smooth="yes"/>
      <point x="90" y="-191"/>
      <point x="172" y="-239"/>
    </contour>
  </outline>
</glyph>
<glyph name="copyright" format="2">
  <advance width="894"/>
  <unicode hex="00A9"/>
  <outline>
    <contour>
      <point x="447" y="-14" type="curve" smooth="yes"/>
      <point x="667" y="-14"/>
      <point x="845" y="164"/>
      <point x="845" y="384" type="curve" smooth="yes"/>
      <point x="845" y="604"/>
      <point x="667" y="782"/>
      <point x="447" y="782" type="curve" smooth="yes"/>
      <point x="227" y="782"/>
      <point x="49" y="604"/>
      <point x="49" y="384" type="curve" smooth="yes"/>
      <point x="49" y="164"/>
      <point x="227" y="-14"/>
    </contour>
    <contour>
      <point x="448" y="123" type="curve" smooth="yes"/>
      <point x="546" y="123"/>
      <point x="626" y="173"/>
      <point x="664" y="259" type="curve"/>
      <point x="663" y="259" type="line"/>
      <point x="623" y="176"/>
      <point x="560" y="138"/>
      <point x="491" y="138" type="curve" smooth="yes"/>
      <point x="373" y="138"/>
      <point x="306" y="233"/>
      <point x="306" y="399" type="curve" smooth="yes"/>
      <point x="306" y="550"/>
      <point x="376" y="641"/>
      <point x="493" y="641" type="curve" smooth="yes"/>
      <point x="541" y="641"/>
      <point x="572" y="624"/>
      <point x="572" y="598" type="curve" smooth="yes"/>
      <point x="572" y="565"/>
      <point x="528" y="535"/>
      <point x="528" y="501" type="curve" smooth="yes"/>
      <point x="528" y="474"/>
      <point x="548" y="456"/>
      <point x="579" y="456" type="curve" smooth="yes"/>
      <point x="619" y="456"/>
      <point x="648" y="486"/>
      <point x="648" y="526" type="curve" smooth="yes"/>
      <point x="648" y="593"/>
      <point x="566" y="646"/>
      <point x="464" y="646" type="curve" smooth="yes"/>
      <point x="315" y="646"/>
      <point x="208" y="538"/>
      <point x="208" y="388" type="curve" smooth="yes"/>
      <point x="208" y="232"/>
      <point x="307" y="123"/>
    </contour>
    <contour>
      <point x="447" y="-13" type="curve" smooth="yes"/>
      <point x="227" y="-13"/>
      <point x="50" y="165"/>
      <point x="50" y="384" type="curve" smooth="yes"/>
      <point x="50" y="603"/>
      <point x="227" y="781"/>
      <point x="447" y="781" type="curve" smooth="yes"/>
      <point x="667" y="781"/>
      <point x="844" y="603"/>
      <point x="844" y="384" type="curve" smooth="yes"/>
      <point x="844" y="165"/>
      <point x="667" y="-13"/>
    </contour>
  </outline>
</glyph>
<glyph name="ordfeminine" format="2">
  <advance width="501"/>
  <unicode hex="00AA"/>
  <outline>
    <contour>
      <point x="175" y="360" type="curve" smooth="yes"/>
      <point x="235" y="360"/>
      <point x="280" y="379"/>
      <point x="321" y="422" type="curve"/>
      <point x="322" y="379"/>
      <point x="345" y="360"/>
      <point x="398" y="360" type="curve" smooth="yes"/>
      <point x="445" y="360"/>
      <point x="469" y="374"/>
      <point x="490" y="385" type="curve"/>
      <point x="489" y="386" type="line"/>
      <point x="472" y="377"/>
      <point x="452" y="372"/>
      <point x="433" y="372" type="curve" smooth="yes"/>
      <point x="411" y="372"/>
      <point x="401" y="382"/>
      <point x="401" y="405" type="curve" smooth="yes"/>
      <point x="401" y="604" type="line" smooth="yes"/>
      <point x="401" y="686"/>
      <point x="355" y="723"/>
      <point x="254" y="723" type="curve" smooth="yes"/>
      <point x="156" y="723"/>
      <point x="80" y="684"/>
      <point x="80" y="633" type="curve" smooth="yes"/>
      <point x="80" y="606"/>
      <point x="99" y="588"/>
      <point x="128" y="588" type="curve" smooth="yes"/>
      <point x="155" y="588"/>
      <point x="174" y="602"/>
      <point x="174" y="622" type="curve" smooth="yes"/>
      <point x="174" y="649"/>
      <point x="133" y="668"/>
      <point x="133" y="687" type="curve" smooth="yes"/>
      <point x="133" y="703"/>
      <point x="173" y="716"/>
      <point x="220" y="716" type="curve" smooth="yes"/>
      <point x="288" y="716"/>
      <point x="321" y="688"/>
      <point x="321" y="631" type="curve" smooth="yes"/>
      <point x="321" y="600" type="line" smooth="yes"/>
      <point x="321" y="531"/>
      <point x="62" y="575"/>
      <point x="62" y="445" type="curve" smooth="yes"/>
      <point x="62" y="392"/>
      <point x="104" y="360"/>
    </contour>
    <contour>
      <point x="214" y="381" type="curve" smooth="yes"/>
      <point x="170" y="381"/>
      <point x="143" y="407"/>
      <point x="143" y="449" type="curve" smooth="yes"/>
      <point x="143" y="559"/>
      <point x="301" y="540"/>
      <point x="321" y="592" type="curve"/>
      <point x="321" y="424" type="line"/>
      <point x="289" y="394"/>
      <point x="256" y="381"/>
    </contour>
  </outline>
</glyph>
<glyph name="logicalnot" format="2">
  <advance width="677"/>
  <unicode hex="00AC"/>
  <outline>
    <contour>
      <point x="588" y="61" type="line"/>
      <point x="589" y="61" type="line"/>
      <point x="589" y="266" type="line"/>
      <point x="88" y="266" type="line"/>
      <point x="88" y="265" type="line"/>
      <point x="588" y="265" type="line"/>
    </contour>
  </outline>
</glyph>
<glyph name="registered" format="2">
  <advance width="723"/>
  <unicode hex="00AE"/>
  <outline>
    <contour>
      <point x="362" y="224" type="curve" smooth="yes"/>
      <point x="516" y="224"/>
      <point x="641" y="349"/>
      <point x="641" y="503" type="curve" smooth="yes"/>
      <point x="641" y="657"/>
      <point x="516" y="782"/>
      <point x="362" y="782" type="curve" smooth="yes"/>
      <point x="208" y="782"/>
      <point x="83" y="657"/>
      <point x="83" y="503" type="curve" smooth="yes"/>
      <point x="83" y="349"/>
      <point x="208" y="224"/>
    </contour>
    <contour>
      <point x="362" y="225" type="curve" smooth="yes"/>
      <point x="209" y="225"/>
      <point x="84" y="350"/>
      <point x="84" y="503" type="curve" smooth="yes"/>
      <point x="84" y="657"/>
      <point x="209" y="781"/>
      <point x="362" y="781" type="curve" smooth="yes"/>
      <point x="516" y="781"/>
      <point x="640" y="657"/>
      <point x="640" y="503" type="curve" smooth="yes"/>
      <point x="640" y="350"/>
      <point x="516" y="225"/>
    </contour>
    <contour>
      <point x="213" y="369" type="line"/>
      <point x="243" y="370"/>
      <point x="255" y="370"/>
      <point x="287" y="370" type="curve" smooth="yes"/>
      <point x="316" y="370"/>
      <point x="337" y="370"/>
      <point x="371" y="369" type="curve"/>
      <point x="371" y="370" type="line"/>
      <point x="322" y="374"/>
      <point x="315" y="378"/>
      <point x="315" y="404" type="curve" smooth="yes"/>
      <point x="315" y="659" type="line"/>
      <point x="357" y="659" type="line" smooth="yes"/>
      <point x="412" y="659"/>
      <point x="436" y="637"/>
      <point x="436" y="588" type="curve" smooth="yes"/>
      <point x="436" y="541"/>
      <point x="410" y="515"/>
      <point x="364" y="515" type="curve" smooth="yes"/>
      <point x="286" y="515" type="line"/>
      <point x="286" y="514" type="line"/>
      <point x="372" y="514" type="line" smooth="yes"/>
      <point x="453" y="514"/>
      <point x="496" y="540"/>
      <point x="496" y="590" type="curve" smooth="yes"/>
      <point x="496" y="638"/>
      <point x="458" y="660"/>
      <point x="377" y="660" type="curve" smooth="yes"/>
      <point x="362" y="660"/>
      <point x="323" y="660"/>
      <point x="283" y="660" type="curve" smooth="yes"/>
      <point x="237" y="660"/>
      <point x="224" y="660"/>
      <point x="213" y="660" type="curve"/>
      <point x="213" y="659" type="line"/>
      <point x="254" y="655"/>
      <point x="258" y="652"/>
      <point x="258" y="625" type="curve" smooth="yes"/>
      <point x="258" y="404" type="line" smooth="yes"/>
      <point x="258" y="377"/>
      <point x="254" y="374"/>
      <point x="213" y="370" type="curve"/>
    </contour>
    <contour>
      <point x="494" y="362" type="curve" smooth="yes"/>
      <point x="515" y="362"/>
      <point x="531" y="369"/>
      <point x="541" y="380" type="curve"/>
      <point x="540" y="381" type="line"/>
      <point x="535" y="376"/>
      <point x="528" y="373"/>
      <point x="522" y="373" type="curve" smooth="yes"/>
      <point x="509" y="373"/>
      <point x="504" y="380"/>
      <point x="496" y="409" type="curve" smooth="yes"/>
      <point x="489" y="434" type="line" smooth="yes"/>
      <point x="474" y="487"/>
      <point x="439" y="510"/>
      <point x="367" y="515" type="curve"/>
      <point x="361" y="515" type="line"/>
      <point x="361" y="514" type="line"/>
      <point x="392" y="514"/>
      <point x="406" y="500"/>
      <point x="420" y="456" type="curve" smooth="yes"/>
      <point x="432" y="417" type="line" smooth="yes"/>
      <point x="445" y="375"/>
      <point x="459" y="362"/>
    </contour>
  </outline>
</glyph>
<glyph name="degree" format="2">
  <advance width="392"/>
  <unicode hex="00B0"/>
  <outline>
    <contour>
      <point x="196" y="539" type="curve" smooth="yes"/>
      <point x="271" y="539"/>
      <point x="337" y="584"/>
      <point x="337" y="660" type="curve" smooth="yes"/>
      <point x="337" y="736"/>
      <point x="271" y="781"/>
      <point x="196" y="781" type="curve" smooth="yes"/>
      <point x="121" y="781"/>
      <point x="55" y="736"/>
      <point x="55" y="660" type="curve" smooth="yes"/>
      <point x="55" y="584"/>
      <point x="121" y="539"/>
    </contour>
    <contour>
      <point x="196" y="540" type="curve" smooth="yes"/>
      <point x="121" y="540"/>
      <point x="56" y="585"/>
      <point x="56" y="660" type="curve" smooth="yes"/>
      <point x="56" y="735"/>
      <point x="121" y="780"/>
      <point x="196" y="780" type="curve" smooth="yes"/>
      <point x="271" y="780"/>
      <point x="336" y="735"/>
      <point x="336" y="660" type="curve" smooth="yes"/>
      <point x="336" y="585"/>
      <point x="271" y="540"/>
    </contour>
  </outline>
</glyph>
<glyph name="paragraph" format="2">
  <advance width="778"/>
  <unicode hex="00B6"/>
  <outline>
    <contour>
      <point x="415" y="-231" type="line"/>
      <point x="446" y="-229"/>
      <point x="509" y="-228"/>
      <point x="581" y="-228" type="curve" smooth="yes"/>
      <point x="644" y="-228"/>
      <point x="695" y="-229"/>
      <point x="728" y="-231" type="curve"/>
      <point x="728" y="-230" type="line"/>
      <point x="644" y="-223"/>
      <point x="629" y="-214"/>
      <point x="629" y="-144" type="curve" smooth="yes"/>
      <point x="629" y="639" type="line" smooth="yes"/>
      <point x="629" y="688"/>
      <point x="651" y="702"/>
      <point x="723" y="707" type="curve"/>
      <point x="723" y="708" type="line"/>
      <point x="636" y="705"/>
      <point x="539" y="709"/>
      <point x="494" y="709" type="curve" smooth="yes"/>
      <point x="212" y="709"/>
      <point x="66" y="612"/>
      <point x="66" y="434" type="curve" smooth="yes"/>
      <point x="66" y="232"/>
      <point x="231" y="131"/>
      <point x="536" y="148" type="curve"/>
      <point x="536" y="-134" type="line" smooth="yes"/>
      <point x="536" y="-207"/>
      <point x="510" y="-224"/>
      <point x="415" y="-230" type="curve"/>
    </contour>
    <contour>
      <point x="537" y="170" type="line"/>
      <point x="531" y="170"/>
      <point x="529" y="237"/>
      <point x="528" y="419" type="curve"/>
      <point x="350" y="289"/>
      <point x="312" y="260"/>
      <point x="305" y="261" type="curve"/>
      <point x="306" y="268"/>
      <point x="344" y="295"/>
      <point x="523" y="427" type="curve"/>
      <point x="264" y="427"/>
      <point x="198" y="427"/>
      <point x="192" y="431" type="curve"/>
      <point x="199" y="435"/>
      <point x="264" y="436"/>
      <point x="523" y="436" type="curve"/>
      <point x="345" y="570"/>
      <point x="308" y="595"/>
      <point x="305" y="604" type="curve"/>
      <point x="315" y="603"/>
      <point x="351" y="575"/>
      <point x="528" y="444" type="curve"/>
      <point x="527" y="628"/>
      <point x="531" y="686"/>
      <point x="537" y="686" type="curve"/>
    </contour>
  </outline>
</glyph>
<glyph name="ordmasculine" format="2">
  <advance width="541"/>
  <unicode hex="00BA"/>
  <outline>
    <contour>
      <point x="270" y="360" type="curve" smooth="yes"/>
      <point x="369" y="360"/>
      <point x="477" y="422"/>
      <point x="477" y="541" type="curve" smooth="yes"/>
      <point x="477" y="660"/>
      <point x="369" y="722"/>
      <point x="270" y="722" type="curve" smooth="yes"/>
      <point x="172" y="722"/>
      <point x="64" y="660"/>
      <point x="64" y="541" type="curve" smooth="yes"/>
      <point x="64" y="422"/>
      <point x="172" y="360"/>
    </contour>
    <contour>
      <point x="270" y="361" type="curve" smooth="yes"/>
      <point x="205" y="361"/>
      <point x="147" y="413"/>
      <point x="147" y="541" type="curve" smooth="yes"/>
      <point x="147" y="669"/>
      <point x="205" y="721"/>
      <point x="270" y="721" type="curve" smooth="yes"/>
      <point x="336" y="721"/>
      <point x="394" y="669"/>
      <point x="394" y="541" type="curve" smooth="yes"/>
      <point x="394" y="413"/>
      <point x="336" y="361"/>
    </contour>
  </outline>
</glyph>
<glyph name="AE" format="2">
  <advance width="1055"/>
  <unicode hex="00C6"/>
  <anchor x="491" y="0" name="bottom"/>
  <anchor x="506" y="708" name="top"/>
  <anchor x="506" y="688" name="top_low_1"/>
  <anchor x="506" y="668" name="top_low_2"/>
  <anchor x="506" y="648" name="top_low_3"/>
  <outline>
    <contour>
      <point x="-11" y="0" type="line"/>
      <point x="42" y="2"/>
      <point x="59" y="3"/>
      <point x="86" y="3" type="curve" smooth="yes"/>
      <point x="145" y="3"/>
      <point x="192" y="2"/>
      <point x="217" y="0" type="curve"/>
      <point x="217" y="1" type="line"/>
      <point x="111" y="5"/>
      <point x="99" y="86"/>
      <point x="187" y="205" type="curve" smooth="yes"/>
      <point x="604" y="772" type="line"/>
      <point x="603" y="772" type="line"/>
      <point x="146" y="151" type="line" smooth="yes"/>
      <point x="97" y="84"/>
      <point x="42" y="31"/>
      <point x="-11" y="1" type="curve"/>
    </contour>
    <contour>
      <point x="297" y="356" type="line"/>
      <point x="725" y="356" type="line"/>
      <point x="725" y="357" type="line"/>
      <point x="298" y="357" type="line"/>
    </contour>
    <contour>
      <point x="542" y="3" type="curve"/>
      <point x="554" y="3" type="line"/>
      <point x="682" y="3" type="line"/>
      <point x="805" y="3"/>
      <point x="889" y="2"/>
      <point x="960" y="0" type="curve"/>
      <point x="957" y="67"/>
      <point x="963" y="143"/>
      <point x="976" y="230" type="curve"/>
      <point x="975" y="230" type="line"/>
      <point x="911" y="32"/>
      <point x="839" y="4"/>
      <point x="681" y="4" type="curve"/>
      <point x="701" y="4" type="line" smooth="yes"/>
      <point x="614" y="4"/>
      <point x="599" y="14"/>
      <point x="599" y="85" type="curve" smooth="yes"/>
      <point x="599" y="704" type="line"/>
      <point x="634" y="704" type="line"/>
      <point x="790" y="704"/>
      <point x="861" y="680"/>
      <point x="924" y="508" type="curve"/>
      <point x="925" y="508" type="line"/>
      <point x="915" y="584"/>
      <point x="910" y="650"/>
      <point x="913" y="708" type="curve"/>
      <point x="842" y="706"/>
      <point x="758" y="705"/>
      <point x="635" y="705" type="curve"/>
      <point x="554" y="705" type="line"/>
      <point x="542" y="705" type="line"/>
      <point x="482" y="705"/>
      <point x="440" y="707"/>
      <point x="406" y="708" type="curve"/>
      <point x="406" y="707" type="line"/>
      <point x="433" y="704" type="line"/>
      <point x="493" y="697"/>
      <point x="506" y="683"/>
      <point x="506" y="621" type="curve"/>
      <point x="506" y="87" type="line"/>
      <point x="506" y="25"/>
      <point x="493" y="11"/>
      <point x="433" y="4" type="curve"/>
      <point x="406" y="1" type="line"/>
      <point x="406" y="0" type="line"/>
      <point x="440" y="1"/>
      <point x="482" y="3"/>
    </contour>
    <contour>
      <point x="849" y="204" type="curve"/>
      <point x="850" y="204" type="line"/>
      <point x="845" y="284"/>
      <point x="844" y="317"/>
      <point x="844" y="356" type="curve" smooth="yes"/>
      <point x="844" y="391"/>
      <point x="842" y="427"/>
      <point x="847" y="508" type="curve"/>
      <point x="846" y="508" type="line"/>
      <point x="828" y="395"/>
      <point x="785" y="357"/>
      <point x="681" y="357" type="curve"/>
      <point x="681" y="356" type="line"/>
      <point x="794" y="356"/>
      <point x="833" y="321"/>
    </contour>
  </outline>
</glyph>
<glyph name="multiply" format="2">
  <advance width="535"/>
  <unicode hex="00D7"/>
  <outline>
    <contour>
      <point x="84" y="81" type="line"/>
      <point x="269" y="266" type="line"/>
      <point x="452" y="83" type="line"/>
      <point x="453" y="84" type="line"/>
      <point x="270" y="267" type="line"/>
      <point x="453" y="449" type="line"/>
      <point x="452" y="450" type="line"/>
      <point x="269" y="268" type="line"/>
      <point x="83" y="453" type="line"/>
      <point x="82" y="452" type="line"/>
      <point x="268" y="267" type="line"/>
      <point x="83" y="82" type="line"/>
    </contour>
  </outline>
</glyph>
<glyph name="germandbls" format="2">
  <advance width="724"/>
  <unicode hex="00DF"/>
  <outline>
    <contour>
      <point x="431" y="-14" type="curve" smooth="yes"/>
      <point x="565" y="-14"/>
      <point x="669" y="82"/>
      <point x="669" y="207" type="curve" smooth="yes"/>
      <point x="669" y="330"/>
      <point x="569" y="415"/>
      <point x="405" y="431" type="curve"/>
      <point x="508" y="474"/>
      <point x="562" y="540"/>
      <point x="562" y="623" type="curve" smooth="yes"/>
      <point x="562" y="723"/>
      <point x="486" y="782"/>
      <point x="358" y="782" type="curve" smooth="yes"/>
      <point x="208" y="782"/>
      <point x="131" y="699"/>
      <point x="131" y="539" type="curve" smooth="yes"/>
      <point x="131" y="83" type="line"/>
      <point x="131" y="28"/>
      <point x="111" y="8"/>
      <point x="47" y="2" type="curve"/>
      <point x="36" y="1" type="line"/>
      <point x="36" y="0" type="line"/>
      <point x="71" y="2"/>
      <point x="82" y="2"/>
      <point x="100" y="2" type="curve"/>
      <point x="147" y="2"/>
      <point x="189" y="-2"/>
      <point x="221" y="-12" type="curve"/>
      <point x="221" y="0" type="line"/>
      <point x="221" y="608" type="line" smooth="yes"/>
      <point x="221" y="722"/>
      <point x="263" y="780"/>
      <point x="346" y="780" type="curve" smooth="yes"/>
      <point x="430" y="780"/>
      <point x="475" y="721"/>
      <point x="475" y="612" type="curve" smooth="yes"/>
      <point x="475" y="537"/>
      <point x="454" y="483"/>
      <point x="405" y="432" type="curve"/>
      <point x="393" y="434"/>
      <point x="377" y="436"/>
      <point x="364" y="436" type="curve" smooth="yes"/>
      <point x="344" y="436"/>
      <point x="333" y="433"/>
      <point x="333" y="428" type="curve" smooth="yes"/>
      <point x="333" y="423"/>
      <point x="341" y="420"/>
      <point x="354" y="420" type="curve" smooth="yes"/>
      <point x="371" y="420"/>
      <point x="388" y="423"/>
      <point x="405" y="430" type="curve"/>
      <point x="510" y="403"/>
      <point x="571" y="317"/>
      <point x="571" y="198" type="curve" smooth="yes"/>
      <point x="571" y="76"/>
      <point x="505" y="-10"/>
      <point x="411" y="-10" type="curve" smooth="yes"/>
      <point x="382" y="-10"/>
      <point x="364" y="-1"/>
      <point x="364" y="13" type="curve" smooth="yes"/>
      <point x="364" y="37"/>
      <point x="419" y="62"/>
      <point x="419" y="103" type="curve" smooth="yes"/>
      <point x="419" y="128"/>
      <point x="398" y="145"/>
      <point x="368" y="145" type="curve" smooth="yes"/>
      <point x="329" y="145"/>
      <point x="299" y="115"/>
      <point x="299" y="75" type="curve" smooth="yes"/>
      <point x="299" y="22"/>
      <point x="352" y="-14"/>
    </contour>
  </outline>
</glyph>
<glyph name="ae" format="2">
  <advance width="934"/>
  <unicode hex="00E6"/>
  <anchor x="495" y="0" name="bottom"/>
  <anchor x="753" y="0" name="ogonek"/>
  <anchor x="488" y="512" name="top"/>
  <outline>
    <contour>
      <point x="658" y="-14" type="curve" smooth="yes"/>
      <point x="752" y="-14"/>
      <point x="828" y="36"/>
      <point x="864" y="122" type="curve"/>
      <point x="863" y="122" type="line"/>
      <point x="826" y="39"/>
      <point x="764" y="1"/>
      <point x="701" y="1" type="curve" smooth="yes"/>
      <point x="582" y="1"/>
      <point x="518" y="96"/>
      <point x="518" y="272" type="curve" smooth="yes"/>
      <point x="518" y="291"/>
      <point x="519" y="303"/>
      <point x="520" y="318" type="curve"/>
      <point x="520" y="319" type="line"/>
      <point x="529" y="446"/>
      <point x="584" y="528"/>
      <point x="660" y="528" type="curve" smooth="yes"/>
      <point x="731" y="528"/>
      <point x="775" y="449"/>
      <point x="773" y="319" type="curve"/>
      <point x="476" y="319" type="line"/>
      <point x="477" y="318" type="line"/>
      <point x="869" y="318" type="line"/>
      <point x="869" y="445"/>
      <point x="792" y="529"/>
      <point x="667" y="529" type="curve" smooth="yes"/>
      <point x="526" y="529"/>
      <point x="429" y="418"/>
      <point x="429" y="255" type="curve" smooth="yes"/>
      <point x="429" y="96"/>
      <point x="522" y="-14"/>
    </contour>
    <contour>
      <point x="301" y="16" type="curve" smooth="yes"/>
      <point x="224" y="16"/>
      <point x="186" y="56"/>
      <point x="186" y="125" type="curve" smooth="yes"/>
      <point x="186" y="287"/>
      <point x="405" y="252"/>
      <point x="429" y="338" type="curve"/>
      <point x="429" y="255" type="line"/>
      <point x="463" y="138" type="line"/>
      <point x="427" y="58"/>
      <point x="371" y="16"/>
    </contour>
    <contour>
      <point x="245" y="-14" type="curve" smooth="yes"/>
      <point x="334" y="-14"/>
      <point x="418" y="29"/>
      <point x="464" y="138" type="curve"/>
      <point x="519" y="324" type="line"/>
      <point x="519" y="456"/>
      <point x="455" y="529"/>
      <point x="321" y="529" type="curve" smooth="yes"/>
      <point x="209" y="529"/>
      <point x="116" y="473"/>
      <point x="116" y="406" type="curve" smooth="yes"/>
      <point x="116" y="372"/>
      <point x="138" y="350"/>
      <point x="172" y="350" type="curve" smooth="yes"/>
      <point x="204" y="350"/>
      <point x="224" y="366"/>
      <point x="224" y="390" type="curve" smooth="yes"/>
      <point x="224" y="419"/>
      <point x="192" y="451"/>
      <point x="192" y="476" type="curve" smooth="yes"/>
      <point x="192" y="503"/>
      <point x="231" y="523"/>
      <point x="285" y="523" type="curve" smooth="yes"/>
      <point x="378" y="523"/>
      <point x="429" y="467"/>
      <point x="429" y="367" type="curve" smooth="yes"/>
      <point x="429" y="349" type="line" smooth="yes"/>
      <point x="429" y="240"/>
      <point x="89" y="294"/>
      <point x="89" y="114" type="curve" smooth="yes"/>
      <point x="89" y="32"/>
      <point x="149" y="-14"/>
    </contour>
  </outline>
</glyph>
<glyph name="eth" format="2">
  <advance width="676"/>
  <unicode hex="00F0"/>
  <outline>
    <contour>
      <point x="334" y="-14" type="curve" smooth="yes"/>
      <point x="497" y="-14"/>
      <point x="604" y="103"/>
      <point x="604" y="281" type="curve" smooth="yes"/>
      <point x="604" y="498"/>
      <point x="443" y="689"/>
      <point x="181" y="782" type="curve"/>
      <point x="180" y="781" type="line"/>
      <point x="397" y="689"/>
      <point x="506" y="520"/>
      <point x="506" y="279" type="curve" smooth="yes"/>
      <point x="506" y="95"/>
      <point x="445" y="-13"/>
      <point x="338" y="-13" type="curve" smooth="yes"/>
      <point x="234" y="-13"/>
      <point x="171" y="89"/>
      <point x="171" y="256" type="curve" smooth="yes"/>
      <point x="171" y="423"/>
      <point x="236" y="517"/>
      <point x="352" y="517" type="curve" smooth="yes"/>
      <point x="426" y="517"/>
      <point x="480" y="481"/>
      <point x="502" y="432" type="curve"/>
      <point x="503" y="432" type="line"/>
      <point x="480" y="486"/>
      <point x="416" y="529"/>
      <point x="326" y="529" type="curve" smooth="yes"/>
      <point x="177" y="529"/>
      <point x="73" y="417"/>
      <point x="73" y="256" type="curve" smooth="yes"/>
      <point x="73" y="94"/>
      <point x="178" y="-14"/>
    </contour>
    <contour>
      <point x="139" y="607" type="line"/>
      <point x="346" y="692" type="line"/>
      <point x="345" y="693" type="line"/>
      <point x="138" y="608" type="line"/>
    </contour>
    <contour>
      <point x="346" y="692" type="line"/>
      <point x="556" y="776" type="line"/>
      <point x="555" y="777" type="line"/>
      <point x="345" y="693" type="line"/>
    </contour>
  </outline>
</glyph>
<glyph name="divide" format="2">
  <advance width="677"/>
  <unicode hex="00F7"/>
  <outline>
    <contour>
      <point x="338" y="46" type="curve" smooth="yes"/>
      <point x="369" y="46"/>
      <point x="394" y="71"/>
      <point x="394" y="102" type="curve" smooth="yes"/>
      <point x="394" y="132"/>
      <point x="369" y="157"/>
      <point x="338" y="157" type="curve" smooth="yes"/>
      <point x="308" y="157"/>
      <point x="283" y="132"/>
      <point x="283" y="102" type="curve" smooth="yes"/>
      <point x="283" y="71"/>
      <point x="308" y="46"/>
    </contour>
    <contour>
      <point x="338" y="375" type="curve" smooth="yes"/>
      <point x="369" y="375"/>
      <point x="394" y="399"/>
      <point x="394" y="430" type="curve" smooth="yes"/>
      <point x="394" y="460"/>
      <point x="369" y="485"/>
      <point x="338" y="485" type="curve" smooth="yes"/>
      <point x="308" y="485"/>
      <point x="283" y="460"/>
      <point x="283" y="430" type="curve" smooth="yes"/>
      <point x="283" y="399"/>
      <point x="308" y="375"/>
    </contour>
    <component base="minus"/>
  </outline>
</glyph>
<glyph name="thorn" format="2">
  <advance width="713"/>
  <unicode hex="00FE"/>
  <anchor x="221" y="256" name="#entry"/>
  <anchor x="221" y="256" name="#exit"/>
  <anchor x="355" y="-231" name="bottom"/>
  <anchor x="372" y="255" name="center"/>
  <anchor x="131" y="0" name="lower-left"/>
  <anchor x="332" y="512" name="top"/>
  <anchor x="131" y="512" name="top-left"/>
  <outline>
    <contour>
      <point x="176" y="-228" type="curve"/>
      <point x="176" y="-228" type="line"/>
      <point x="176" y="-228" type="line"/>
      <point x="234" y="-228"/>
      <point x="289" y="-230"/>
      <point x="357" y="-231" type="curve"/>
      <point x="357" y="-230" type="line"/>
      <point x="306" y="-228" type="line"/>
      <point x="244" y="-226"/>
      <point x="221" y="-208"/>
      <point x="221" y="-158" type="curve"/>
      <point x="221" y="256" type="line"/>
      <point x="131" y="256" type="line"/>
      <point x="131" y="-158" type="line"/>
      <point x="131" y="-208"/>
      <point x="109" y="-226"/>
      <point x="56" y="-229" type="curve"/>
      <point x="36" y="-230" type="line"/>
      <point x="36" y="-231" type="line"/>
      <point x="88" y="-230"/>
      <point x="131" y="-228"/>
    </contour>
    <contour>
      <point x="406" y="526" type="curve" smooth="yes"/>
      <point x="313" y="526"/>
      <point x="237" y="476"/>
      <point x="206" y="392" type="curve"/>
      <point x="207" y="392" type="line"/>
      <point x="235" y="466"/>
      <point x="301" y="511"/>
      <point x="362" y="511" type="curve" smooth="yes"/>
      <point x="472" y="511"/>
      <point x="542" y="409"/>
      <point x="542" y="246" type="curve" smooth="yes"/>
      <point x="542" y="87"/>
      <point x="476" y="-5"/>
      <point x="362" y="-5" type="curve" smooth="yes"/>
      <point x="291" y="-5"/>
      <point x="231" y="34"/>
      <point x="215" y="89" type="curve"/>
      <point x="215" y="88" type="line" smooth="yes"/>
      <point x="229" y="30"/>
      <point x="301" y="-17"/>
      <point x="387" y="-17" type="curve" smooth="yes"/>
      <point x="536" y="-17"/>
      <point x="640" y="95"/>
      <point x="640" y="257" type="curve" smooth="yes"/>
      <point x="640" y="414"/>
      <point x="542" y="526"/>
    </contour>
    <component base="_LC-ascender-left-inserif"/>
  </outline>
</glyph>
<glyph name="Aogonek" format="2">
  <advance width="783"/>
  <unicode hex="0104"/>
  <anchor x="392" y="354" name="center"/>
  <anchor x="393" y="708" name="top"/>
  <anchor x="393" y="688" name="top_low_1"/>
  <anchor x="393" y="668" name="top_low_2"/>
  <anchor x="393" y="648" name="top_low_3"/>
  <outline>
    <contour>
      <point x="141" y="160" type="curve"/>
      <point x="350" y="623" type="line"/>
      <point x="345" y="614" type="line"/>
      <point x="579" y="88" type="line"/>
      <point x="625" y="-17"/>
      <point x="626" y="-30"/>
      <point x="579" y="-68" type="curve"/>
      <point x="531" y="-107"/>
      <point x="480" y="-133"/>
      <point x="480" y="-180" type="curve"/>
      <point x="480" y="-216"/>
      <point x="508" y="-239"/>
      <point x="560" y="-239" type="curve"/>
      <point x="622" y="-239"/>
      <point x="671" y="-214"/>
      <point x="704" y="-171" type="curve"/>
      <point x="703" y="-170" type="line"/>
      <point x="678" y="-200"/>
      <point x="649" y="-216"/>
      <point x="617" y="-216" type="curve"/>
      <point x="574" y="-216"/>
      <point x="553" y="-195"/>
      <point x="553" y="-157" type="curve"/>
      <point x="553" y="-61"/>
      <point x="634" y="0"/>
      <point x="786" y="0" type="curve"/>
      <point x="786" y="1" type="line"/>
      <point x="734" y="5"/>
      <point x="707" y="22"/>
      <point x="688" y="65" type="curve"/>
      <point x="395" y="723" type="line"/>
      <point x="394" y="723" type="line"/>
      <point x="132" y="144" type="line"/>
      <point x="86" y="43"/>
      <point x="61" y="18"/>
      <point x="-10" y="3" type="curve"/>
      <point x="-19" y="1" type="line"/>
      <point x="-19" y="0" type="line"/>
      <point x="1" y="1"/>
      <point x="32" y="3"/>
      <point x="82" y="3" type="curve"/>
      <point x="154" y="3"/>
      <point x="217" y="2"/>
      <point x="251" y="0" type="curve"/>
      <point x="251" y="1" type="line"/>
      <point x="233" y="4" type="line"/>
      <point x="129" y="22"/>
      <point x="101" y="70"/>
    </contour>
    <contour>
      <point x="193" y="277" type="line"/>
      <point x="542" y="277" type="line"/>
      <point x="542" y="278" type="line"/>
      <point x="194" y="278" type="line"/>
    </contour>
  </outline>
</glyph>
<glyph name="kgreenlandic" format="2">
  <advance width="660"/>
  <unicode hex="0138"/>
  <anchor x="131" y="256" name="#entry"/>
  <anchor x="221" y="256" name="#exit"/>
  <anchor x="131" y="0" name="^exit"/>
  <anchor x="131" y="256" name="stem"/>
  <anchor x="221" y="514" name="topright"/>
  <outline>
    <contour>
      <point x="131" y="256" type="line"/>
      <point x="221" y="256" type="line"/>
      <point x="221" y="514" type="line"/>
      <point x="221" y="526" type="line"/>
      <point x="189" y="516"/>
      <point x="147" y="512"/>
      <point x="100" y="512" type="curve"/>
      <point x="82" y="512"/>
      <point x="71" y="512"/>
      <point x="36" y="514" type="curve"/>
      <point x="36" y="513" type="line"/>
      <point x="47" y="512" type="line"/>
      <point x="111" y="506"/>
      <point x="131" y="486"/>
      <point x="131" y="431" type="curve"/>
    </contour>
    <component base="_LC-baseline-normal-narrow"/>
    <component base="_LC-k-legs" xOffset="184"/>
  </outline>
</glyph>
<glyph name="OE" format="2">
  <advance width="1130"/>
  <unicode hex="0152"/>
  <anchor x="558" y="0" name="bottom"/>
  <anchor x="547" y="708" name="top"/>
  <anchor x="547" y="688" name="top_low_1"/>
  <anchor x="547" y="668" name="top_low_2"/>
  <anchor x="547" y="648" name="top_low_3"/>
  <outline>
    <contour>
      <point x="434" y="-14" type="curve" smooth="yes"/>
      <point x="505" y="-14"/>
      <point x="524" y="2"/>
      <point x="632" y="2" type="curve" smooth="yes"/>
      <point x="626" y="2"/>
      <point x="697" y="3"/>
      <point x="744" y="3" type="curve" smooth="yes"/>
      <point x="790" y="3" type="line"/>
      <point x="899" y="3"/>
      <point x="973" y="2"/>
      <point x="1035" y="0" type="curve"/>
      <point x="1032" y="68"/>
      <point x="1038" y="145"/>
      <point x="1051" y="234" type="curve"/>
      <point x="1050" y="234" type="line"/>
      <point x="994" y="32"/>
      <point x="930" y="4"/>
      <point x="789" y="4" type="curve"/>
      <point x="780" y="4" type="line" smooth="yes"/>
      <point x="693" y="4"/>
      <point x="678" y="16"/>
      <point x="678" y="87" type="curve" smooth="yes"/>
      <point x="678" y="704" type="line"/>
      <point x="803" y="704" type="line"/>
      <point x="927" y="704"/>
      <point x="983" y="680"/>
      <point x="1029" y="508" type="curve"/>
      <point x="1030" y="508" type="line"/>
      <point x="1024" y="584"/>
      <point x="1019" y="650"/>
      <point x="1022" y="708" type="curve"/>
      <point x="966" y="706"/>
      <point x="900" y="705"/>
      <point x="804" y="705" type="curve"/>
      <point x="631" y="705" type="line" smooth="yes"/>
      <point x="553" y="705"/>
      <point x="510" y="722"/>
      <point x="435" y="722" type="curve" smooth="yes"/>
      <point x="217" y="722"/>
      <point x="66" y="568"/>
      <point x="66" y="345" type="curve" smooth="yes"/>
      <point x="66" y="127"/>
      <point x="211" y="-14"/>
    </contour>
    <contour>
      <point x="440" y="-12" type="curve" smooth="yes"/>
      <point x="279" y="-12"/>
      <point x="166" y="142"/>
      <point x="166" y="359" type="curve" smooth="yes"/>
      <point x="166" y="574"/>
      <point x="276" y="720"/>
      <point x="439" y="720" type="curve" smooth="yes"/>
      <point x="543" y="720"/>
      <point x="585" y="691"/>
      <point x="585" y="619" type="curve" smooth="yes"/>
      <point x="585" y="89" type="line" smooth="yes"/>
      <point x="585" y="20"/>
      <point x="540" y="-12"/>
    </contour>
    <contour>
      <point x="642" y="356" type="line"/>
      <point x="839" y="356" type="line"/>
      <point x="839" y="357" type="line"/>
      <point x="642" y="357" type="line"/>
    </contour>
    <contour>
      <point x="928" y="204" type="curve"/>
      <point x="929" y="204" type="line"/>
      <point x="924" y="284"/>
      <point x="923" y="317"/>
      <point x="923" y="356" type="curve" smooth="yes"/>
      <point x="923" y="391"/>
      <point x="921" y="427"/>
      <point x="926" y="508" type="curve"/>
      <point x="925" y="508" type="line"/>
      <point x="907" y="395"/>
      <point x="864" y="357"/>
      <point x="760" y="357" type="curve"/>
      <point x="760" y="356" type="line"/>
      <point x="873" y="356"/>
      <point x="912" y="321"/>
    </contour>
  </outline>
</glyph>
<glyph name="oe" format="2">
  <advance width="1013"/>
  <unicode hex="0153"/>
  <anchor x="518" y="0" name="bottom"/>
  <anchor x="527" y="512" name="top"/>
  <outline>
    <contour>
      <point x="318" y="-14" type="curve" smooth="yes"/>
      <point x="463" y="-14"/>
      <point x="555" y="91"/>
      <point x="555" y="257" type="curve" smooth="yes"/>
      <point x="555" y="424"/>
      <point x="463" y="529"/>
      <point x="318" y="529" type="curve" smooth="yes"/>
      <point x="170" y="529"/>
      <point x="73" y="421"/>
      <point x="73" y="257" type="curve" smooth="yes"/>
      <point x="73" y="93"/>
      <point x="170" y="-14"/>
    </contour>
    <contour>
      <point x="320" y="-13" type="curve" smooth="yes"/>
      <point x="230" y="-13"/>
      <point x="171" y="93"/>
      <point x="171" y="257" type="curve" smooth="yes"/>
      <point x="171" y="421"/>
      <point x="230" y="528"/>
      <point x="320" y="528" type="curve" smooth="yes"/>
      <point x="410" y="528"/>
      <point x="469" y="421"/>
      <point x="469" y="257" type="curve" smooth="yes"/>
      <point x="469" y="93"/>
      <point x="410" y="-13"/>
    </contour>
    <contour>
      <point x="722" y="-14" type="curve" smooth="yes"/>
      <point x="823" y="-14"/>
      <point x="904" y="36"/>
      <point x="943" y="122" type="curve"/>
      <point x="942" y="122" type="line"/>
      <point x="901" y="39"/>
      <point x="836" y="1"/>
      <point x="765" y="1" type="curve" smooth="yes"/>
      <point x="636" y="1"/>
      <point x="567" y="96"/>
      <point x="567" y="272" type="curve" smooth="yes"/>
      <point x="567" y="291"/>
      <point x="568" y="303"/>
      <point x="569" y="318" type="curve"/>
      <point x="569" y="319" type="line"/>
      <point x="579" y="446"/>
      <point x="640" y="528"/>
      <point x="724" y="528" type="curve" smooth="yes"/>
      <point x="804" y="528"/>
      <point x="854" y="449"/>
      <point x="852" y="319" type="curve"/>
      <point x="525" y="319" type="line"/>
      <point x="526" y="318" type="line"/>
      <point x="948" y="318" type="line"/>
      <point x="948" y="445"/>
      <point x="865" y="529"/>
      <point x="731" y="529" type="curve" smooth="yes"/>
      <point x="583" y="529"/>
      <point x="480" y="418"/>
      <point x="480" y="255" type="curve" smooth="yes"/>
      <point x="480" y="96"/>
      <point x="579" y="-14"/>
    </contour>
  </outline>
</glyph>
<glyph name="bstroke" format="2">
  <advance width="704"/>
  <unicode hex="0180"/>
  <anchor x="212" y="256" name="#entry"/>
  <anchor x="212" y="256" name="#exit"/>
  <anchor x="363" y="255" name="center"/>
  <anchor x="323" y="512" name="top"/>
  <anchor x="122" y="512" name="top-left"/>
  <outline>
    <contour>
      <point x="397" y="526" type="curve" smooth="yes"/>
      <point x="304" y="526"/>
      <point x="228" y="476"/>
      <point x="197" y="392" type="curve"/>
      <point x="198" y="392" type="line"/>
      <point x="226" y="466"/>
      <point x="292" y="511"/>
      <point x="353" y="511" type="curve" smooth="yes"/>
      <point x="463" y="511"/>
      <point x="533" y="409"/>
      <point x="533" y="246" type="curve" smooth="yes"/>
      <point x="533" y="87"/>
      <point x="467" y="-5"/>
      <point x="353" y="-5" type="curve" smooth="yes"/>
      <point x="282" y="-5"/>
      <point x="222" y="34"/>
      <point x="206" y="89" type="curve"/>
      <point x="206" y="88" type="line" smooth="yes"/>
      <point x="220" y="30"/>
      <point x="292" y="-17"/>
      <point x="378" y="-17" type="curve" smooth="yes"/>
      <point x="527" y="-17"/>
      <point x="631" y="95"/>
      <point x="631" y="257" type="curve" smooth="yes"/>
      <point x="631" y="414"/>
      <point x="533" y="526"/>
    </contour>
    <component base="_LC-baseline-left-instroke"/>
    <component base="_LC-ascender-serifless" xOffset="-9"/>
    <component base="strokeshortcomb" xOffset="-40" yOffset="368"/>
  </outline>
</glyph>
<glyph name="Bhook" format="2">
  <advance width="894"/>
  <unicode hex="0181"/>
  <anchor x="528" y="0" name="bottom"/>
  <anchor x="521" y="0" name="currency"/>
  <anchor x="528" y="708" name="top"/>
  <outline>
    <contour>
      <point x="352" y="3" type="curve"/>
      <point x="359" y="3" type="line"/>
      <point x="408" y="3"/>
      <point x="476" y="0"/>
      <point x="557" y="0" type="curve" smooth="yes"/>
      <point x="727" y="0"/>
      <point x="836" y="77"/>
      <point x="836" y="197" type="curve" smooth="yes"/>
      <point x="836" y="304"/>
      <point x="749" y="361"/>
      <point x="574" y="368" type="curve"/>
      <point x="574" y="369" type="line"/>
      <point x="703" y="391"/>
      <point x="773" y="452"/>
      <point x="773" y="544" type="curve" smooth="yes"/>
      <point x="773" y="649"/>
      <point x="684" y="708"/>
      <point x="537" y="708" type="curve" smooth="yes"/>
      <point x="508" y="708"/>
      <point x="467" y="705"/>
      <point x="358" y="705" type="curve"/>
      <point x="358" y="705" type="line"/>
      <point x="300" y="705"/>
      <point x="258" y="708"/>
      <point x="248" y="708" type="curve"/>
      <point x="129" y="708"/>
      <point x="38" y="642"/>
      <point x="38" y="563" type="curve"/>
      <point x="38" y="525"/>
      <point x="60" y="502"/>
      <point x="94" y="502" type="curve"/>
      <point x="126" y="502"/>
      <point x="144" y="522"/>
      <point x="144" y="555" type="curve"/>
      <point x="144" y="596"/>
      <point x="117" y="622"/>
      <point x="117" y="648" type="curve"/>
      <point x="117" y="683"/>
      <point x="174" y="707"/>
      <point x="248" y="707" type="curve"/>
      <point x="300" y="707"/>
      <point x="312" y="700"/>
      <point x="312" y="621" type="curve"/>
      <point x="312" y="87" type="line"/>
      <point x="312" y="25"/>
      <point x="299" y="12"/>
      <point x="233" y="5" type="curve"/>
      <point x="192" y="1" type="line"/>
      <point x="192" y="0" type="line"/>
      <point x="231" y="1"/>
      <point x="281" y="3"/>
    </contour>
    <contour>
      <point x="495" y="3" type="curve" smooth="yes"/>
      <point x="420" y="3"/>
      <point x="405" y="17"/>
      <point x="405" y="85" type="curve" smooth="yes"/>
      <point x="405" y="704" type="line"/>
      <point x="498" y="704" type="line" smooth="yes"/>
      <point x="622" y="704"/>
      <point x="677" y="654"/>
      <point x="677" y="542" type="curve" smooth="yes"/>
      <point x="677" y="428"/>
      <point x="631" y="368"/>
      <point x="545" y="368" type="curve" smooth="yes"/>
      <point x="389" y="368" type="line"/>
      <point x="389" y="367" type="line"/>
      <point x="559" y="367" type="line" smooth="yes"/>
      <point x="678" y="367"/>
      <point x="736" y="313"/>
      <point x="736" y="200" type="curve" smooth="yes"/>
      <point x="736" y="68"/>
      <point x="656" y="3"/>
    </contour>
  </outline>
</glyph>
<glyph name="Chook" format="2">
  <advance width="820"/>
  <unicode hex="0187"/>
  <anchor x="441" y="0" name="bottom"/>
  <anchor x="434" y="0" name="currency"/>
  <anchor x="165" y="354" name="middlestroke"/>
  <anchor x="432" y="708" name="top"/>
  <outline>
    <contour>
      <point x="433" y="-14" type="curve" smooth="yes"/>
      <point x="557" y="-14"/>
      <point x="641" y="39"/>
      <point x="689" y="39" type="curve" smooth="yes"/>
      <point x="717" y="39"/>
      <point x="730" y="25"/>
      <point x="739" y="-14" type="curve"/>
      <point x="740" y="-14" type="line"/>
      <point x="737" y="38"/>
      <point x="736" y="101"/>
      <point x="736" y="240" type="curve"/>
      <point x="735" y="240" type="line"/>
      <point x="703" y="82"/>
      <point x="592" y="-12"/>
      <point x="440" y="-12" type="curve" smooth="yes"/>
      <point x="268" y="-12"/>
      <point x="166" y="124"/>
      <point x="166" y="356" type="curve" smooth="yes"/>
      <point x="166" y="586"/>
      <point x="267" y="720"/>
      <point x="440" y="720" type="curve" smooth="yes"/>
      <point x="591" y="720"/>
      <point x="702" y="626"/>
      <point x="734" y="468" type="curve"/>
      <point x="735" y="468" type="line"/>
      <point x="734" y="568"/>
      <point x="720" y="621"/>
      <point x="698" y="670" type="curve"/>
      <point x="634" y="675"/>
      <point x="539" y="722"/>
      <point x="437" y="722" type="curve" smooth="yes"/>
      <point x="220" y="722"/>
      <point x="66" y="566"/>
      <point x="66" y="344" type="curve" smooth="yes"/>
      <point x="66" y="128"/>
      <point x="212" y="-14"/>
    </contour>
    <contour>
      <point x="734" y="468" type="curve"/>
      <point x="735" y="468" type="line"/>
      <point x="735" y="696"/>
      <point x="651" y="693"/>
      <point x="651" y="820" type="curve" smooth="yes"/>
      <point x="651" y="849"/>
      <point x="663" y="867"/>
      <point x="685" y="867" type="curve" smooth="yes"/>
      <point x="715" y="867"/>
      <point x="736" y="830"/>
      <point x="774" y="830" type="curve" smooth="yes"/>
      <point x="808" y="830"/>
      <point x="831" y="850"/>
      <point x="831" y="880" type="curve" smooth="yes"/>
      <point x="831" y="914"/>
      <point x="804" y="936"/>
      <point x="762" y="936" type="curve" smooth="yes"/>
      <point x="698" y="936"/>
      <point x="650" y="888"/>
      <point x="650" y="820" type="curve" smooth="yes"/>
      <point x="650" y="693"/>
      <point x="734" y="696"/>
    </contour>
  </outline>
</glyph>
<glyph name="Dhook" format="2">
  <advance width="1010"/>
  <unicode hex="018A"/>
  <anchor x="563" y="0" name="bottom"/>
  <anchor x="387" y="356" name="center"/>
  <anchor x="592" y="708" name="top"/>
  <outline>
    <contour>
      <point x="503" y="0" type="curve"/>
      <point x="520" y="0" type="line" smooth="yes"/>
      <point x="782" y="0"/>
      <point x="944" y="134"/>
      <point x="944" y="369" type="curve" smooth="yes"/>
      <point x="944" y="588"/>
      <point x="803" y="708"/>
      <point x="524" y="708" type="curve" smooth="yes"/>
      <point x="490" y="708"/>
      <point x="415" y="705"/>
      <point x="361" y="705" type="curve"/>
      <point x="358" y="705" type="line"/>
      <point x="300" y="705"/>
      <point x="258" y="708"/>
      <point x="248" y="708" type="curve"/>
      <point x="129" y="708"/>
      <point x="38" y="642"/>
      <point x="38" y="563" type="curve"/>
      <point x="38" y="525"/>
      <point x="60" y="502"/>
      <point x="94" y="502" type="curve"/>
      <point x="126" y="502"/>
      <point x="144" y="522"/>
      <point x="144" y="555" type="curve"/>
      <point x="144" y="596"/>
      <point x="117" y="622"/>
      <point x="117" y="648" type="curve"/>
      <point x="117" y="683"/>
      <point x="174" y="707"/>
      <point x="248" y="707" type="curve"/>
      <point x="300" y="707"/>
      <point x="312" y="700"/>
      <point x="312" y="621" type="curve"/>
      <point x="312" y="87" type="line"/>
      <point x="312" y="27"/>
      <point x="295" y="12"/>
      <point x="227" y="5" type="curve"/>
      <point x="183" y="1" type="line"/>
      <point x="183" y="0" type="line"/>
      <point x="234" y="1"/>
      <point x="291" y="3"/>
      <point x="357" y="3" type="curve"/>
      <point x="427" y="3"/>
      <point x="466" y="0"/>
    </contour>
    <contour>
      <point x="501" y="1" type="curve" smooth="yes"/>
      <point x="419" y="1"/>
      <point x="405" y="14"/>
      <point x="405" y="85" type="curve" smooth="yes"/>
      <point x="405" y="704" type="line"/>
      <point x="502" y="704" type="line" smooth="yes"/>
      <point x="741" y="704"/>
      <point x="844" y="603"/>
      <point x="844" y="354" type="curve" smooth="yes"/>
      <point x="844" y="108"/>
      <point x="744" y="1"/>
    </contour>
  </outline>
</glyph>
<glyph name="Schwa" format="2">
  <advance width="868"/>
  <unicode hex="018F"/>
  <anchor x="454" y="0" name="bottom"/>
  <anchor x="454" y="708" name="top"/>
  <anchor x="454" y="688" name="top_low_1"/>
  <anchor x="454" y="668" name="top_low_2"/>
  <anchor x="454" y="648" name="top_low_3"/>
  <outline>
    <contour>
      <point x="424" y="-14" type="curve" smooth="yes"/>
      <point x="661" y="-14"/>
      <point x="802" y="123"/>
      <point x="802" y="352" type="curve" smooth="yes"/>
      <point x="802" y="581"/>
      <point x="661" y="722"/>
      <point x="430" y="722" type="curve" smooth="yes"/>
      <point x="291" y="722"/>
      <point x="171" y="654"/>
      <point x="116" y="531" type="curve"/>
      <point x="117" y="531" type="line"/>
      <point x="171" y="645"/>
      <point x="273" y="707"/>
      <point x="395" y="707" type="curve" smooth="yes"/>
      <point x="581" y="707"/>
      <point x="702" y="560"/>
      <point x="702" y="335" type="curve" smooth="yes"/>
      <point x="702" y="124"/>
      <point x="595" y="-13"/>
      <point x="431" y="-13" type="curve" smooth="yes"/>
      <point x="270" y="-13"/>
      <point x="159" y="122"/>
      <point x="167" y="316" type="curve"/>
      <point x="744" y="316" type="line"/>
      <point x="743" y="317" type="line"/>
      <point x="66" y="317" type="line"/>
      <point x="69" y="110"/>
      <point x="199" y="-14"/>
    </contour>
  </outline>
</glyph>
<glyph name="Eopen" format="2">
  <advance width="682"/>
  <unicode hex="0190"/>
  <anchor x="342" y="0" name="bottom"/>
  <anchor x="342" y="708" name="top"/>
  <outline>
    <contour>
      <point x="323" y="-14" type="curve" smooth="yes"/>
      <point x="444" y="-14"/>
      <point x="491" y="25"/>
      <point x="554" y="25" type="curve" smooth="yes"/>
      <point x="583" y="25"/>
      <point x="592" y="17"/>
      <point x="601" y="-14" type="curve"/>
      <point x="602" y="-14" type="line"/>
      <point x="597" y="19"/>
      <point x="596" y="54"/>
      <point x="596" y="196" type="curve"/>
      <point x="595" y="196" type="line"/>
      <point x="580" y="70"/>
      <point x="488" y="-10"/>
      <point x="356" y="-10" type="curve" smooth="yes"/>
      <point x="231" y="-10"/>
      <point x="158" y="57"/>
      <point x="158" y="172" type="curve" smooth="yes"/>
      <point x="158" y="273"/>
      <point x="217" y="341"/>
      <point x="317" y="353" type="curve"/>
      <point x="337" y="348"/>
      <point x="354" y="345"/>
      <point x="374" y="345" type="curve" smooth="yes"/>
      <point x="388" y="345"/>
      <point x="396" y="348"/>
      <point x="396" y="353" type="curve" smooth="yes"/>
      <point x="396" y="358"/>
      <point x="387" y="361"/>
      <point x="371" y="361" type="curve" smooth="yes"/>
      <point x="354" y="361"/>
      <point x="338" y="359"/>
      <point x="317" y="355" type="curve"/>
      <point x="226" y="367"/>
      <point x="172" y="435"/>
      <point x="172" y="536" type="curve" smooth="yes"/>
      <point x="172" y="651"/>
      <point x="241" y="718"/>
      <point x="360" y="718" type="curve" smooth="yes"/>
      <point x="490" y="718"/>
      <point x="580" y="638"/>
      <point x="595" y="512" type="curve"/>
      <point x="596" y="512" type="line"/>
      <point x="596" y="654"/>
      <point x="597" y="689"/>
      <point x="602" y="722" type="curve"/>
      <point x="601" y="722" type="line"/>
      <point x="592" y="691"/>
      <point x="583" y="683"/>
      <point x="554" y="683" type="curve" smooth="yes"/>
      <point x="492" y="683"/>
      <point x="446" y="722"/>
      <point x="327" y="722" type="curve" smooth="yes"/>
      <point x="170" y="722"/>
      <point x="72" y="652"/>
      <point x="72" y="541" type="curve" smooth="yes"/>
      <point x="72" y="436"/>
      <point x="161" y="367"/>
      <point x="310" y="355" type="curve"/>
      <point x="310" y="354" type="line"/>
      <point x="152" y="341"/>
      <point x="58" y="272"/>
      <point x="58" y="167" type="curve" smooth="yes"/>
      <point x="58" y="56"/>
      <point x="160" y="-14"/>
    </contour>
  </outline>
</glyph>
<glyph name="Ghook" format="2">
  <advance width="883"/>
  <unicode hex="0193"/>
  <anchor x="443" y="0" name="bottom"/>
  <anchor x="437" y="0" name="currency"/>
  <anchor x="428" y="708" name="top"/>
  <outline>
    <contour>
      <point x="433" y="-14" type="curve" smooth="yes"/>
      <point x="573" y="-14"/>
      <point x="623" y="40"/>
      <point x="689" y="40" type="curve" smooth="yes"/>
      <point x="712" y="40"/>
      <point x="725" y="36"/>
      <point x="735" y="29" type="curve"/>
      <point x="736" y="29" type="line"/>
      <point x="736" y="217" type="line"/>
      <point x="736" y="282"/>
      <point x="745" y="297"/>
      <point x="775" y="301" type="curve"/>
      <point x="786" y="303" type="line"/>
      <point x="786" y="304" type="line"/>
      <point x="753" y="302"/>
      <point x="725" y="301"/>
      <point x="690" y="301" type="curve"/>
      <point x="690" y="301" type="line"/>
      <point x="689" y="301" type="line"/>
      <point x="602" y="301"/>
      <point x="539" y="303"/>
      <point x="493" y="304" type="curve"/>
      <point x="493" y="303" type="line"/>
      <point x="555" y="297" type="line"/>
      <point x="629" y="290"/>
      <point x="643" y="278"/>
      <point x="643" y="217" type="curve"/>
      <point x="643" y="146" type="line" smooth="yes"/>
      <point x="643" y="47"/>
      <point x="574" y="-12"/>
      <point x="440" y="-12" type="curve" smooth="yes"/>
      <point x="268" y="-12"/>
      <point x="166" y="124"/>
      <point x="166" y="356" type="curve" smooth="yes"/>
      <point x="166" y="586"/>
      <point x="267" y="720"/>
      <point x="440" y="720" type="curve" smooth="yes"/>
      <point x="591" y="720"/>
      <point x="702" y="626"/>
      <point x="734" y="468" type="curve"/>
      <point x="735" y="468" type="line"/>
      <point x="734" y="568"/>
      <point x="720" y="621"/>
      <point x="698" y="670" type="curve"/>
      <point x="634" y="675"/>
      <point x="539" y="722"/>
      <point x="437" y="722" type="curve" smooth="yes"/>
      <point x="220" y="722"/>
      <point x="66" y="566"/>
      <point x="66" y="344" type="curve" smooth="yes"/>
      <point x="66" y="128"/>
      <point x="212" y="-14"/>
    </contour>
    <contour>
      <point x="734" y="468" type="curve"/>
      <point x="735" y="468" type="line"/>
      <point x="735" y="696"/>
      <point x="651" y="693"/>
      <point x="651" y="820" type="curve" smooth="yes"/>
      <point x="651" y="849"/>
      <point x="663" y="867"/>
      <point x="685" y="867" type="curve" smooth="yes"/>
      <point x="715" y="867"/>
      <point x="736" y="830"/>
      <point x="774" y="830" type="curve" smooth="yes"/>
      <point x="808" y="830"/>
      <point x="831" y="850"/>
      <point x="831" y="880" type="curve" smooth="yes"/>
      <point x="831" y="914"/>
      <point x="804" y="936"/>
      <point x="762" y="936" type="curve" smooth="yes"/>
      <point x="698" y="936"/>
      <point x="650" y="888"/>
      <point x="650" y="820" type="curve" smooth="yes"/>
      <point x="650" y="693"/>
      <point x="734" y="696"/>
    </contour>
  </outline>
</glyph>
<glyph name="khook" format="2">
  <advance width="660"/>
  <unicode hex="0199"/>
  <anchor x="221" y="256" name="#entry"/>
  <anchor x="221" y="256" name="#exit"/>
  <anchor x="606" y="512" name="2ndTittle"/>
  <anchor x="271" y="0" name="^exit"/>
  <anchor x="131" y="512" name="bar"/>
  <anchor x="176" y="512" name="center"/>
  <anchor x="131" y="256" name="stem"/>
  <anchor x="316" y="771" name="top"/>
  <outline>
    <contour>
      <point x="131" y="256" type="line"/>
      <point x="221" y="256" type="line"/>
      <point x="221" y="568" type="line"/>
      <point x="221" y="712"/>
      <point x="266" y="780"/>
      <point x="358" y="780" type="curve"/>
      <point x="395" y="780"/>
      <point x="414" y="768"/>
      <point x="414" y="745" type="curve"/>
      <point x="414" y="726"/>
      <point x="381" y="698"/>
      <point x="381" y="668" type="curve"/>
      <point x="381" y="645"/>
      <point x="401" y="628"/>
      <point x="432" y="628" type="curve"/>
      <point x="469" y="628"/>
      <point x="495" y="651"/>
      <point x="495" y="684" type="curve"/>
      <point x="495" y="743"/>
      <point x="433" y="782"/>
      <point x="339" y="782" type="curve"/>
      <point x="218" y="782"/>
      <point x="131" y="692"/>
      <point x="131" y="544" type="curve"/>
    </contour>
    <component base="_LC-baseline-normal-narrow"/>
    <component base="_LC-k-legs" xOffset="184"/>
  </outline>
</glyph>
<glyph name="lambdastroke-latin" format="2">
  <advance width="592"/>
  <unicode hex="019B"/>
  <anchor x="307" y="0" name="bottom"/>
  <anchor x="307" y="245" name="center"/>
  <anchor x="307" y="771" name="top"/>
  <outline>
    <contour>
      <point x="189" y="72" type="curve"/>
      <point x="351" y="419" type="line"/>
      <point x="341" y="439" type="line"/>
      <point x="450" y="186" type="line"/>
      <point x="501" y="68"/>
      <point x="488" y="22"/>
      <point x="415" y="4" type="curve"/>
      <point x="403" y="1" type="line"/>
      <point x="403" y="0" type="line"/>
      <point x="426" y="2"/>
      <point x="471" y="3"/>
      <point x="521" y="3" type="curve"/>
      <point x="556" y="3"/>
      <point x="578" y="1"/>
      <point x="592" y="0" type="curve"/>
      <point x="592" y="1" type="line"/>
      <point x="585" y="3" type="line"/>
      <point x="536" y="18"/>
      <point x="514" y="42"/>
      <point x="458" y="171" type="curve"/>
      <point x="304" y="529" type="line"/>
      <point x="303" y="529" type="line"/>
      <point x="83" y="55" type="line"/>
      <point x="67" y="20"/>
      <point x="38" y="3"/>
      <point x="0" y="1" type="curve"/>
      <point x="0" y="0" type="line"/>
      <point x="46" y="1"/>
      <point x="73" y="2"/>
      <point x="106" y="2" type="curve"/>
      <point x="127" y="2"/>
      <point x="145" y="2"/>
      <point x="170" y="0" type="curve"/>
      <point x="171" y="26"/>
      <point x="178" y="49"/>
    </contour>
    <contour>
      <point x="67" y="513" type="line"/>
      <point x="274" y="598" type="line"/>
      <point x="273" y="599" type="line"/>
      <point x="66" y="514" type="line"/>
    </contour>
    <contour>
      <point x="308" y="517" type="line"/>
      <point x="309" y="518" type="line"/>
      <point x="237" y="685" type="line" smooth="yes"/>
      <point x="208" y="752"/>
      <point x="168" y="782"/>
      <point x="107" y="782" type="curve" smooth="yes"/>
      <point x="49" y="782"/>
      <point x="13" y="753"/>
      <point x="13" y="706" type="curve" smooth="yes"/>
      <point x="13" y="668"/>
      <point x="40" y="643"/>
      <point x="81" y="643" type="curve" smooth="yes"/>
      <point x="111" y="643"/>
      <point x="131" y="658"/>
      <point x="131" y="681" type="curve" smooth="yes"/>
      <point x="131" y="713"/>
      <point x="100" y="735"/>
      <point x="100" y="759" type="curve" smooth="yes"/>
      <point x="100" y="770"/>
      <point x="108" y="776"/>
      <point x="121" y="776" type="curve" smooth="yes"/>
      <point x="171" y="776"/>
      <point x="210" y="745"/>
      <point x="236" y="684" type="curve" smooth="yes"/>
    </contour>
    <contour>
      <point x="274" y="598" type="line"/>
      <point x="484" y="682" type="line"/>
      <point x="483" y="683" type="line"/>
      <point x="273" y="599" type="line"/>
    </contour>
  </outline>
</glyph>
<glyph name="Mturned" format="2">
  <advance width="1407"/>
  <unicode hex="019C"/>
  <anchor x="702" y="0" name="bottom"/>
  <anchor x="702" y="708" name="top"/>
  <outline>
    <contour>
      <point x="430" y="-14" type="curve" smooth="yes"/>
      <point x="622" y="-14"/>
      <point x="718" y="95"/>
      <point x="718" y="311" type="curve"/>
      <point x="717" y="310" type="line"/>
      <point x="717" y="113"/>
      <point x="636" y="4"/>
      <point x="461" y="4" type="curve" smooth="yes"/>
      <point x="312" y="4"/>
      <point x="243" y="95"/>
      <point x="243" y="292" type="curve" smooth="yes"/>
      <point x="243" y="621" type="line"/>
      <point x="243" y="683"/>
      <point x="256" y="697"/>
      <point x="316" y="704" type="curve"/>
      <point x="343" y="707" type="line"/>
      <point x="343" y="708" type="line"/>
      <point x="309" y="707"/>
      <point x="267" y="705"/>
      <point x="207" y="705" type="curve"/>
      <point x="195" y="705" type="line"/>
      <point x="186" y="705" type="line"/>
      <point x="126" y="705"/>
      <point x="84" y="707"/>
      <point x="50" y="708" type="curve"/>
      <point x="50" y="707" type="line"/>
      <point x="77" y="704" type="line"/>
      <point x="137" y="697"/>
      <point x="150" y="683"/>
      <point x="150" y="621" type="curve"/>
      <point x="150" y="298" type="line" smooth="yes"/>
      <point x="150" y="89"/>
      <point x="243" y="-14"/>
    </contour>
    <contour>
      <point x="932" y="-14" type="curve" smooth="yes"/>
      <point x="1116" y="-14"/>
      <point x="1205" y="92"/>
      <point x="1205" y="311" type="curve"/>
      <point x="1204" y="310" type="line"/>
      <point x="1204" y="109"/>
      <point x="1128" y="4"/>
      <point x="965" y="4" type="curve" smooth="yes"/>
      <point x="819" y="4"/>
      <point x="750" y="96"/>
      <point x="750" y="292" type="curve" smooth="yes"/>
      <point x="750" y="621" type="line"/>
      <point x="750" y="683"/>
      <point x="763" y="697"/>
      <point x="823" y="704" type="curve"/>
      <point x="850" y="707" type="line"/>
      <point x="850" y="708" type="line"/>
      <point x="816" y="707"/>
      <point x="774" y="705"/>
      <point x="714" y="705" type="curve"/>
      <point x="702" y="705" type="line"/>
      <point x="693" y="705" type="line"/>
      <point x="633" y="705"/>
      <point x="591" y="707"/>
      <point x="557" y="708" type="curve"/>
      <point x="557" y="707" type="line"/>
      <point x="584" y="704" type="line"/>
      <point x="644" y="697"/>
      <point x="657" y="683"/>
      <point x="657" y="621" type="curve"/>
      <point x="657" y="298" type="line" smooth="yes"/>
      <point x="657" y="91"/>
      <point x="750" y="-14"/>
    </contour>
    <contour>
      <point x="1164" y="0" type="line"/>
      <point x="1164" y="62" type="line"/>
      <point x="1164" y="-14" type="line"/>
      <point x="1195" y="-4"/>
      <point x="1236" y="2"/>
      <point x="1285" y="2" type="curve"/>
      <point x="1317" y="2"/>
      <point x="1330" y="2"/>
      <point x="1356" y="0" type="curve"/>
      <point x="1356" y="1" type="line"/>
      <point x="1341" y="3" type="line"/>
      <point x="1277" y="11"/>
      <point x="1257" y="28"/>
      <point x="1257" y="82" type="curve"/>
      <point x="1257" y="621" type="line"/>
      <point x="1257" y="683"/>
      <point x="1270" y="697"/>
      <point x="1330" y="704" type="curve"/>
      <point x="1357" y="707" type="line"/>
      <point x="1357" y="708" type="line"/>
      <point x="1323" y="707"/>
      <point x="1281" y="705"/>
      <point x="1221" y="705" type="curve"/>
      <point x="1209" y="705" type="line"/>
      <point x="1200" y="705" type="line"/>
      <point x="1140" y="705"/>
      <point x="1098" y="707"/>
      <point x="1064" y="708" type="curve"/>
      <point x="1064" y="707" type="line"/>
      <point x="1091" y="704" type="line"/>
      <point x="1151" y="697"/>
      <point x="1164" y="683"/>
      <point x="1164" y="621" type="curve"/>
    </contour>
  </outline>
</glyph>
<glyph name="nlongrightleg" format="2">
  <advance width="709"/>
  <unicode hex="019E"/>
  <anchor x="131" y="256" name="#entry"/>
  <anchor x="221" y="256" name="#exit"/>
  <anchor x="-153" y="0" name="%entry"/>
  <anchor x="131" y="0" name="%exit"/>
  <anchor x="0" y="0" name="^entry"/>
  <anchor x="336" y="0" name="^exit"/>
  <anchor x="376" y="0" name="bottom"/>
  <anchor x="221" y="256" name="reversedExit"/>
  <anchor x="131" y="256" name="stem"/>
  <anchor x="364" y="512" name="top"/>
  <anchor x="221" y="514" name="topright"/>
  <outline>
    <contour>
      <point x="176" y="3" type="curve"/>
      <point x="176" y="3" type="line"/>
      <point x="176" y="3" type="line"/>
      <point x="221" y="3"/>
      <point x="264" y="1"/>
      <point x="316" y="0" type="curve"/>
      <point x="316" y="1" type="line"/>
      <point x="296" y="2" type="line"/>
      <point x="243" y="5"/>
      <point x="221" y="23"/>
      <point x="221" y="73" type="curve"/>
      <point x="221" y="256" type="line"/>
      <point x="131" y="256" type="line"/>
      <point x="131" y="73" type="line"/>
      <point x="131" y="23"/>
      <point x="109" y="5"/>
      <point x="56" y="2" type="curve"/>
      <point x="36" y="1" type="line"/>
      <point x="36" y="0" type="line"/>
      <point x="88" y="1"/>
      <point x="131" y="3"/>
    </contour>
    <contour>
      <point x="131" y="256" type="line"/>
      <point x="221" y="256" type="line"/>
      <point x="221" y="514" type="line"/>
      <point x="221" y="526" type="line"/>
      <point x="189" y="516"/>
      <point x="147" y="512"/>
      <point x="100" y="512" type="curve"/>
      <point x="82" y="512"/>
      <point x="71" y="512"/>
      <point x="36" y="514" type="curve"/>
      <point x="36" y="513" type="line"/>
      <point x="47" y="512" type="line"/>
      <point x="111" y="506"/>
      <point x="131" y="486"/>
      <point x="131" y="431" type="curve"/>
    </contour>
    <contour>
      <point x="504" y="256" type="line"/>
      <point x="594" y="256" type="line"/>
      <point x="594" y="332" type="line" smooth="yes"/>
      <point x="594" y="457"/>
      <point x="528" y="529"/>
      <point x="415" y="529" type="curve" smooth="yes"/>
      <point x="313" y="529"/>
      <point x="241" y="471"/>
      <point x="191" y="351" type="curve"/>
      <point x="192" y="350" type="line"/>
      <point x="242" y="463"/>
      <point x="301" y="514"/>
      <point x="384" y="514" type="curve" smooth="yes"/>
      <point x="465" y="514"/>
      <point x="504" y="468"/>
      <point x="504" y="373" type="curve" smooth="yes"/>
    </contour>
    <contour>
      <point x="549" y="-228" type="curve"/>
      <point x="549" y="-228" type="line"/>
      <point x="549" y="-228" type="line"/>
      <point x="594" y="-228"/>
      <point x="637" y="-230"/>
      <point x="689" y="-231" type="curve"/>
      <point x="689" y="-230" type="line"/>
      <point x="669" y="-229" type="line"/>
      <point x="616" y="-226"/>
      <point x="594" y="-208"/>
      <point x="594" y="-158" type="curve"/>
      <point x="594" y="256" type="line"/>
      <point x="504" y="256" type="line"/>
      <point x="504" y="-158" type="line"/>
      <point x="504" y="-208"/>
      <point x="482" y="-226"/>
      <point x="429" y="-229" type="curve"/>
      <point x="409" y="-230" type="line"/>
      <point x="409" y="-231" type="line"/>
      <point x="461" y="-230"/>
      <point x="504" y="-228"/>
    </contour>
  </outline>
</glyph>
